<?xml version="1.0" encoding="iso-8859-1"?>
<!-- Generator: Adobe Illustrator 21.1.0, SVG Export Plug-In . SVG Version: 6.00 Build 0)  -->
<svg version="1.1" id="_x31_2" xmlns="http://www.w3.org/2000/svg" xmlns:xlink="http://www.w3.org/1999/xlink" x="0px" y="0px"
	 viewBox="0 0 512 512" style="enable-background:new 0 0 512 512;" xml:space="preserve">
<g>
	<path style="fill:#E73828;" d="M68.168,199.919c-14.693-4.675-28.717-2.671-44.745,7.346
		C7.395,217.283-3.958,246.001,6.727,272.714c10.685,26.714,38.735,42.074,49.42,44.077C46.798,283.4,68.168,199.919,68.168,199.919
		z"/>
	<path style="fill:#E73828;" d="M60.154,362.205c-14.693-6.01-14.025-14.693-8.682-20.703c5.343-6.011,10.686-3.339,17.364-2.004
		c6.678,1.336,14.025,8.682,14.025,8.682l-4.675,6.01L60.154,362.205z"/>
	<path style="fill:#94C85C;" d="M90.051,184.135c0-12.683,19.93-32.613,38.049-38.048s24.46-11.777,24.46-11.777
		s17.212-20.836,28.989-26.272c11.777-5.436,15.605,1.646,22.648,9.965s11.777,10.871,14.495,5.436
		c2.718-5.436,11.777-21.742,18.118-23.554s11.816,10.031,15.401,23.554c3.584,13.523,13.589,10.871,25.366,16.307
		c11.777,5.436,20.836,12.683,18.118,19.024c-2.718,6.341-18.118,8.153-27.178,8.153c-9.059,0-21.354,6.378-27.177,22.648
		c-5.823,16.27-8.153,21.742,12.683,28.083c20.836,6.342,54.355-9.965,63.414-12.683c9.059-2.718,26.272-6.341,38.049,1.812
		c11.777,8.153,4.529,18.118,4.529,18.118l-11.777-1.812c0,0-11.777,4.53-18.118-0.906c-2.718,0.906-9.965,3.624-9.965,3.624
		s-28.989,9.965-43.484,7.247c-14.495-2.718-42.578-14.495-42.578-14.495l-3.624,39.86l-73.379,0.906l-48.014-16.307l14.495,40.766
		c0,0,32.716,22.664,50.731,27.178c18.016,4.513,42.578-6.341,57.979-7.247c15.401-0.906,21.494,2.108,20.836,5.435
		c-7.247,0-19.024,2.718-19.024,2.718s21.742,1.812,25.366,8.153c-4.53,0-14.573-0.225-23.554,0.906
		c14.495,0.906,23.554,6.341,18.118,8.153c-5.435,1.812-21.742,0-31.707,2.718c-9.965,2.718-23.554,10.871-47.108,5.435
		s-43.484-16.306-43.484-16.306s-57.979-61.602-57.979-65.226S90.051,184.135,90.051,184.135z"/>
	<path style="fill:#FFFFFF;" d="M173.396,190.477c4.53,3.624,9.965,12.683,2.718,21.742c-7.247,9.059-20.836,10.871-9.965,15.401
		c10.871,4.53,35.116,18.767,50.517,17.861c15.401-0.906,17.403-29.248,18.333-34.168c0.929-4.919,10.871-19.93,16.306-27.177
		c5.436-7.247,17.212-17.212,17.212-17.212s-48.013,3.624-67.038,10.871C182.455,185.041,173.396,190.477,173.396,190.477z"/>
	<path style="fill:#FFFFFF;" d="M192.42,160.582c-11.777,0-16.307-8.153-15.401-19.024c0.906-10.871,9.059-16.307,19.93-15.401
		c10.871,0.906,11.777,11.777,10.871,18.118C206.915,150.617,199.667,158.77,192.42,160.582z"/>
	<path style="fill:#FFFFFF;" d="M235.129,148.162c-8.125-3.922-8.014-23.04,0.334-28.717c8.348-5.677,18.366-2.004,21.371,5.009
		c3.005,7.012-1.67,20.703-4.675,23.374C249.153,150.499,244.812,152.837,235.129,148.162z"/>
	<path style="fill:#FFFFFF;" d="M173.353,57.669c-2.337-4.341-5.343-10.352-6.011-14.025c-0.668-3.673,2.338-4.675,6.011-0.334
		S178.362,54.33,173.353,57.669z"/>
	<path style="fill:#FFFFFF;" d="M162,87.722c-5.677-2.671-11.019-6.01-12.021-10.018c-1.002-4.007,5.009-5.677,9.35-0.334
		C163.67,82.713,162,87.722,162,87.722z"/>
	<path style="fill:#FFFFFF;" d="M137.624,103.75c-3.673-4.675-13.691-12.021-18.366-10.351c-4.675,1.67-5.677,6.01,0.334,9.016
		c6.011,3.005,19.367,4.341,19.367,4.341L137.624,103.75z"/>
	<path style="fill:#FFFFFF;" d="M114.249,65.683c-6.011-0.334-12.021-4.341-13.357-8.014c-1.336-3.673-1.67-4.675,5.009-2.671
		c6.678,2.004,14.025,10.352,14.025,10.352L114.249,65.683z"/>
	<path style="fill:#9E9E9F;" d="M76.85,201.255c-9.35,20.703-18.032,104.851-1.336,124.886
		c16.696,20.035,33.655,10.621,37.399,8.014c3.744-2.607,56.099-34.728,56.099-34.728l70.791-42.742l-1.336-38.067
		c0,0,41.406,0.668,51.424-1.336c10.018-2.003,22.039-12.689,22.039-12.689s-50.088-1.336-61.441-12.689
		c-7.346-8.682-6.678,4.007-6.678,4.007l2.004,9.35l-14.693,13.357l-8.014,25.378c0,0-81.477-6.678-84.816-6.678
		C134.952,237.318,76.85,201.255,76.85,201.255z"/>
	<path style="fill:#FFFFFF;" d="M183.705,337.495c-2.671-2.003-8.014-23.374,4.675-29.385c5.404-1.2,11.353,0,11.353,0
		s-9.35,12.689-8.014,20.035c1.336,7.346,4.007,10.686,4.007,10.686L183.705,337.495z"/>
	<path style="fill:#FFFFFF;" d="M311.263,231.308c-4.007-2.671-6.011-20.703,0.668-26.714c2.671-0.668,5.506,0.377,5.506,0.377
		s-1.748,14,2.718,20.836C319.944,229.972,311.263,231.308,311.263,231.308z"/>
	<path style="fill:#FFFFFF;" d="M301.245,265.368c-5.343,0.668-44.745,11.353-54.763,43.41
		c22.039,16.028,70.123,38.735,70.123,38.735s27.382-41.406,53.427-41.406c13.357-29.385,52.092-40.738,52.092-40.738
		s-7.346-8.682-10.018-10.018c-2.671-1.336-44.745-26.714-49.42-28.717c-4.675-2.004-32.997,2.664-44.745,17.364
		C306.192,258.697,301.245,265.368,301.245,265.368z"/>
	<path style="fill:#FFFFFF;" d="M171.684,362.205l-4.675,16.696l-16.028-3.339l-36.731,78.805c0,0,64.113,17.364,68.788,18.7
		c4.675,1.336,12.689-23.375,14.693-24.71c2.003-1.336,44.308,0.593,44.745-2.671c0.438-3.264-3.339-84.816-3.339-84.816
		L171.684,362.205z"/>
	<path style="fill:#0C646D;" d="M404.092,204.594c2.004,1.336,2.671,11.353,2.671,11.353s-12.021,4.675-10.018,8.682
		c2.004,4.007,25.378,12.021,30.053,13.357c4.675,1.336,38.067,14.025,42.742,15.36c4.675,1.336,10.018-2.671,10.018-2.671
		s25.378-23.374,29.385-31.389c4.007-8.014,5.343-21.371-4.007-26.046c-9.35-4.675-64.113-24.042-64.113-24.042l-44.745,29.385
		L404.092,204.594z"/>
	<path style="fill:#FFFFFF;" d="M414.11,207.934l56.099,22.707c0,0,16.028-18.7,24.042-25.378c8.014-6.678,12.021-5.343,14.025,0
		c2.004,5.343-1.336,9.35-3.339,11.353c-2.003,2.004-30.053,30.721-32.724,30.721c-2.671,0-60.278-21.535-64.781-23.374
		s-4.502-1.84-4.502-1.84s9.177-11.517,1.163-17.528C410.103,202.591,414.11,207.934,414.11,207.934z"/>
	<g>
		<path style="fill:#231815;" d="M171.396,118.595c-2.619,3.235-5.226,6.6-8.286,9.44c-1.477,1.371-6.559,5.96-6.07,1.714
			c0.356-3.088,6.585-7.8,8.525-10.111c2.986-3.558,5.863-7.227,9.316-10.357c7.128-6.462,17.399-8.851,24.481-0.935
			c2.942,3.288,4.607,7.399,6.985,11.06c1.227,1.888,2.561,3.755,4.502,4.981c1.149,0.726,3.795,0.882,4.624,1.811
			c0.296,0.296-3.753,0.246-4.234,0.124c-2.146-0.54-3.991-1.783-5.619-3.253c-4.226-3.816-6.61-9.535-11.163-12.974
			C186.198,103.858,176.905,112.786,171.396,118.595z"/>
		<path style="fill:#231815;" d="M227.507,109.139c-0.706,1.279-7.417,14.301-9.223,10.4c-0.994-2.147,3.337-7.707,4.291-9.415
			c1.975-3.535,3.951-7.279,7.109-9.914c6.369-5.315,14.464-2.616,18.756,3.791c1.782,2.661,2.849,5.657,3.546,8.763
			c0.063,0.28,1.105,8.178,0.416,7.885c-1.281-0.546-2.796-6.564-3.508-7.889c-1.426-2.654-3.137-5.449-5.31-7.548
			C237.495,99.333,231.627,103.272,227.507,109.139z"/>
		<path style="fill:#231815;" d="M278.236,135.888c-1.905-0.834-11.896-4.603-13.522-1.023c-1.226,2.699,10.738,7.133,12.258,7.867
			c6.495,3.139,27.82,13.472,12.627,19.494c-12.376,4.905-26.252,5.433-39.378,6.174c-15.226,0.859-30.629,2.735-45.566,5.864
			c-12.098,2.534-25.976,6.453-35.227,15.16c-2.054,1.933-7.794,10.302-0.883,7.168c4.631-2.1,8.748-5.704,13.187-8.226
			c23.557-13.385,50.517-14.69,76.944-16.717c8.358-0.641,16.753-1.296,24.984-2.949c4.171-0.838,9.498-1.713,13.1-4.319
			C312.085,153.292,286.452,139.454,278.236,135.888z"/>
		<path style="fill:#231815;" d="M154.949,190.47c1.074-1.721,6.707-10.885,9.975-9.64c1.919,0.731-2.941,5.162-3.519,5.83
			c-2.335,2.7-4.329,5.697-5.952,8.876c-2.109,4.131-5.079,10.276,0.855,12.654c2.548,1.021,5.716,0.658,8.339,0.139
			c1.64-0.325,3.257-0.812,4.779-1.511c1.068-0.49,3.106-2.452,4.157-2.425c0.257-0.015-2.488,3.176-2.649,3.307
			c-1.575,1.284-3.444,2.313-5.323,3.075c-4.033,1.634-9.178,2.235-12.955-0.378C145.391,205.371,151.039,195.791,154.949,190.47z"
			/>
		<path style="fill:#231815;" d="M231.367,135.966c0.543,4.16,2.077,8.772,5.424,11.526c0.813,0.669,7.986,3.004,7.997,3.194
			c0.211,3.838-9.67-0.754-10.59-1.594c-3.475-3.177-5.136-8.108-5.733-12.652c-1.058-8.046,1.171-17.907,9.43-21.198
			c9.192-3.662,17.342,2.48,19.846,11.33c1.348,4.763,1.19,10.149-0.827,14.705c-1.099,2.482-4.311,7.717-7.621,7.673
			c0.546,0.04,3.273-3.355,3.739-4.017c1.647-2.341,2.494-5.145,2.763-7.971c0.53-5.583-1.185-12.314-5.375-16.256
			c-4.211-3.962-10.984-3.78-15.008,0.441C231.804,124.932,230.976,130.961,231.367,135.966z"/>
		<path style="fill:#231815;" d="M179.305,137.408c-1.366,4.545-1.624,9.698-0.235,14.267c0.257,0.847,4.823,8.149,4.676,8.341
			c-2.062,2.696-7.266-6.994-7.468-7.622c-1.433-4.435-1.345-9.395-0.298-13.9c2.239-9.633,9.768-17.49,20.238-15.103
			c10.895,2.484,15.547,14.143,12.508,24.312c-1.291,4.32-4.106,8.403-8.09,10.642c-2.77,1.556-8.982,3.285-11.983,1.126
			c0.428,0.382,5.222-0.406,5.954-0.574c2.712-0.622,5.154-2.016,7.046-4.055c4.699-5.064,5.824-13.433,3.217-19.721
			c-2.431-5.862-8.519-9.601-14.942-8.413C184.513,127.709,181.031,132.486,179.305,137.408z"/>
		<path style="fill:#231815;" d="M214.605,140.779c-3.438,0.819-7.347-1.461-2.42-2.664c1.442-0.352,16.636-2.63,16.57-1.719
			C228.461,140.469,217.047,140.717,214.605,140.779z"/>
		<path style="fill:#231815;" d="M260.739,171.839c1.293-0.922,11.528-7.009,12.154-3.339c0.254,1.492-4.614,2.773-5.504,3.186
			c-3.079,1.428-5.766,3.371-8.338,5.568c-4.562,3.896-8.721,8.308-12.382,13.056c-0.817,1.06-8.537,10.907-8.204,11.41
			c-0.909-1.372,2.025-7.091,2.582-8.414c1.284-3.048,2.921-5.821,4.947-8.44C250.004,179.679,255.118,175.209,260.739,171.839z"/>
		<path style="fill:#231815;" d="M144.073,140.849c1.788-0.648,7.486-2.49,7.11-5.339c-0.436-3.302-7.683-1.454-9.48-0.974
			c-8.476,2.263-16.128,7.139-23.259,12.099c-14.972,10.415-29.934,21.811-42.191,35.381c-5.844,6.471-11.681,13.718-15.043,21.849
			c-0.653,1.581-2.981,7.876,0.074,8.585c1.696,0.393,3.318-2.565,3.98-3.609c4.159-6.566,6.555-14.137,11.104-20.489
			c4.005-5.593,9.09-10.42,14.197-14.998C106.198,159.336,123.764,147.003,144.073,140.849z"/>
		<path style="fill:#231815;" d="M357.497,194.63c-0.754,0.498-9.609,6.359-10.482,4.07c-0.859-2.255,7.932-5.928,8.75-6.455
			c5.75-3.704,11.366-7.574,17.242-11.089c1.203-0.72,10.688-6.927,11.775-5.819C386.21,176.792,359.995,193.267,357.497,194.63z"/>
		<path style="fill:#231815;" d="M190.289,288.281c-6.422,4.076-12.892,8.142-19.601,11.737c-1.227,0.658-6.834,4.416-8.485,3.64
			c-2.655-1.248,10.614-9.144,12.279-10.144c8.265-4.962,16.394-10.146,24.596-15.209c16.104-9.941,32.747-19.155,49.701-27.563
			c5.485-2.72,11.029-5.334,16.623-7.823c0.493-0.219,9.285-3.551,9.285-3.551c-0.047,0.962-3.906,2.639-4.545,3.016
			c-3.642,2.151-7.29,4.288-10.907,6.483c-7.02,4.26-14.018,8.546-21.16,12.601C222.191,270.484,206.157,279.233,190.289,288.281z"
			/>
		<path style="fill:#231815;" d="M72.744,355.119c-4.401,3.027-9.38,6.175-14.372,8.113c-1.499,0.582-3.806,0.609-5.047,1.557
			c-2.671,2.041-0.822,6.873,1.82,8.227c3.542,1.815,6.797-4.096,9.248-6.308c3.662-3.305,7.274-6.802,11.418-9.467
			c11.812-7.597,23.103-15.855,36.138-21.306c2.364-0.989,5.108-1.181,4.708-4.386c-0.614-4.921-3.818-2.591-6.122-0.798
			c-5.447,4.238-12.105,7.01-17.898,10.776C85.904,345.902,79.356,350.562,72.744,355.119z"/>
		<path style="fill:#231815;" d="M83.241,246.273c-4.951,29.869,9.583,60.831,35.272,76.594
			c12.992,7.972,28.652,11.719,43.694,13.342c16.324,1.761,32.068-1.97,48.139-4.147c2.03-0.275,10.125-2.252,11.662-0.439
			c0.995,1.175-11.967,4.163-13.15,4.427c-13.672,3.05-27.294,5.887-41.372,4.964c-28.435-1.866-57.743-11.885-75.875-34.829
			c-10.065-12.736-12.991-27.616-15.748-43.275c-1.134-6.443-3.737-13.963,0.275-19.854c1.083-1.59,5.136-7.235,7.402-4.913
			C85.002,239.642,83.521,244.649,83.241,246.273z"/>
		<path style="fill:#231815;" d="M128.853,272.536c-1.479-7.466-1.522-15.172-0.021-22.641c0.367-1.824,3.098-14.148,5.932-10.442
			c1.299,1.699-0.29,7.358-0.579,9.361c-0.62,4.299-1.227,8.554-1.185,12.911c0.079,8.083,1.856,16.453,6.274,23.315
			c6.959,10.807,18.826,15.073,30.596,18.631c7.818,2.363,15.734,3.724,23.914,3.239c4.303-0.255,8.573-0.911,12.878-1.14
			c2.137-0.114,8.016-0.967,9.915,0.752c-0.213-0.229-8.408,1.582-9.351,1.775c-4.679,0.958-9.26,2.364-13.959,3.224
			c-9.232,1.689-18.425,0.428-27.349-2.255c-9.687-2.912-19.902-6.664-26.885-14.294C133.33,288.74,130.187,280.776,128.853,272.536
			z"/>
		<path style="fill:#231815;" d="M226.241,303.955c-1.414,0.372-8.631,3.34-9.604,1.838c-1.72-2.656,10.875-5.167,12.405-5.41
			c4.839-0.767,9.872-0.387,14.585,0.948c1.956,0.554,11.112,3.573,11.191,6.468c-0.025-0.935-11.329-2.92-12.881-3.204
			C236.728,303.642,231.506,303.188,226.241,303.955z"/>
		<path style="fill:#231815;" d="M237.481,313.491c-0.918,0.27-8,2.414-8.311-0.081c-0.263-2.11,8.007-2.891,8.932-3.096
			c5.153-1.142,9.908-0.986,14.356,2.165c0.645,0.457,7.184,7.509,6.115,7.831c-1.123,0.338-7.293-4.658-8.885-5.409
			C245.676,313.006,241.836,312.825,237.481,313.491z"/>
		<path style="fill:#231815;" d="M233.492,322.223c-0.796,0.219-6.321,1.929-6.569-0.163c-0.265-2.23,7.051-3.048,8.769-3.262
			c3.441-0.428,6.943,0.05,10.09,1.566c1.209,0.582,6.315,3.524,5.905,5.362C252.047,324.113,234.981,322.086,233.492,322.223z"/>
		<path style="fill:#231815;" d="M228.6,331.939c-1.365,0.348-6.49,2.202-7.771,0.657c-1.96-2.361,8.41-3.771,9.533-3.942
			c4.274-0.652,8.457-0.223,12.567,1.12c1.637,0.535,8.419,2.633,8.853,4.569c0.033,0.146-10.369-1.341-11.18-1.498
			C236.588,332.071,232.688,331.616,228.6,331.939z"/>
		<path style="fill:#231815;" d="M261.968,286.148c-2.645,2.756-5.112,5.652-7.533,8.603c-0.395,0.481-2.324,3.543-3.244,3.471
			c-4.063-0.318,10.048-15.779,11.167-16.808c6.553-6.026,14.206-10.736,22.517-13.941c3.799-1.465,7.693-2.524,11.711-3.183
			c1.997-0.328,7.489-1.745,9.117-0.441c-0.808-0.647-9.797,3.098-11.278,3.672c-3.864,1.499-7.651,3.203-11.396,4.976
			C275.376,276.119,268.378,280.62,261.968,286.148z"/>
		<path style="fill:#231815;" d="M312.733,249.646c-2.393,2.875-4.513,5.914-6.54,9.05c-0.361,0.559-1.779,3.759-2.751,3.769
			c-2.719,0.029,1.396-7.02,1.85-7.75c2.296-3.686,5.094-7.114,8.175-10.171c6.022-5.973,13.556-10.539,21.597-13.227
			c3.796-1.269,7.719-2.157,11.717-2.425c1.931-0.129,7.475-0.918,8.944,0.613c-0.643-0.67-8.531,1.473-9.822,1.816
			c-3.786,1.006-7.461,2.406-11.078,3.901C326.662,238.597,318.897,243.255,312.733,249.646z"/>
		<path style="fill:#231815;" d="M193.85,194.796c-4.221,1.441-8.813,2.162-13.203,1.04c-0.761-0.195-8.37-4.474-6.91-4.866
			c2.304-0.618,6.522,1.999,8.885,2.322c3.836,0.524,7.716-0.359,11.312-1.65c6.718-2.413,12.901-6.251,19.483-9.017
			c7.049-2.962,14.288-5.46,21.611-7.65c3.355-1.003,6.729-1.948,10.108-2.867c1.558-0.424,5.079-2.054,6.688-1.543
			c-0.359-0.114-3.993,2.075-4.702,2.38c-2.33,1.002-4.666,1.993-6.999,2.987c-4.934,2.101-9.899,4.119-14.911,6.029
			C214.699,185.967,204.575,191.449,193.85,194.796z"/>
		<path style="fill:#231815;" d="M224.349,174.403c-0.469-1.885,1.832-2.071,2.867-1.212c0.687,0.571,0.804,4.785,0.356,5.435
			C225.491,181.649,223.885,176.52,224.349,174.403z"/>
		<path style="fill:#231815;" d="M208.262,177.516c-0.338-1.299-0.349-3.212,1.225-3.678c2.045-0.607,1.874,3.575,2.092,4.629
			c0.18,0.868,2.472,9.508-0.007,9.445C209.079,187.847,208.262,179.097,208.262,177.516z"/>
		<path style="fill:#231815;" d="M194.216,189.089c0.368,1.062,0.471,2.856-0.84,3.352c-1.675,0.634-1.39-0.774-1.881-1.734
			c-0.84-1.642-2.015-11.603,2.024-10.961C194.606,179.918,194.202,188.071,194.216,189.089z"/>
		<path style="fill:#231815;" d="M131.304,95.649c1.086,0.78,11.638,10.822,7.891,12.536c-1.301,0.595-3.945-4.505-4.605-5.342
			c-2.166-2.751-4.97-5.279-8.234-6.646c-5.274-2.208-14.082,1.829-6.109,5.799c2.649,1.319,5.559,2.182,8.385,3.031
			c1.843,0.554,7.092,0.989,8.44,2.365c-0.062-0.057-4.483,0.254-5.249,0.199c-2.308-0.164-4.625-0.374-6.905-0.775
			c-3.696-0.649-9.281-1.843-11.366-5.416c-2.27-3.89,1.414-7.854,5.031-9.108C123.124,90.717,127.74,92.848,131.304,95.649z"/>
		<path style="fill:#231815;" d="M162.235,78.818c0.429,0.796,4.76,11.154,1.977,11.116c-0.895-0.012-4.575-11.392-5.954-12.973
			c-2.846-3.264-7.881-2.285-5.328,2.322c1.13,2.039,10.108,8.563,9.436,10.624c0.686-1.996-15.456-7.458-13.167-14.358
			C151.931,67.313,160.191,74.354,162.235,78.818z"/>
		<path style="fill:#231815;" d="M178.399,50.922c0.303,3.046,0.147,8.254-2.357,10.589c-3.021,2.816-2.544,0.212-1.748-2.397
			c1.728-5.665,2.269-14.669-5.07-16.73c-1.203,2.886,7.268,18.161,4.874,19.681c-0.492,0.377-8.736-16.735-8.549-19.324
			c0.302-4.194,3.699-4.609,6.847-2.96C176.556,41.96,178.228,46.437,178.399,50.922z"/>
		<path style="fill:#231815;" d="M113.764,56.551c2.524,1.61,6.661,5.123,7.006,8.508c0.374,3.669-1.422,1.847-2.992-0.195
			c-3.869-5.032-8.842-9.184-15.662-8.456c0.935,1.68,2.389,3.164,3.872,4.408c1.816,1.525,3.859,2.787,6.004,3.796
			c1.348,0.635,5.565,1.202,6.29,2.302c0.072,0.08-5.11,0.095-5.839-0.036c-2.714-0.489-5.374-1.414-7.73-2.852
			c-2.315-1.413-8.14-6.336-7.531-9.612C98.061,49.685,111.421,54.818,113.764,56.551z"/>
		<path style="fill:#231815;" d="M159.007,141.464c-1.462-0.246-4.699-1.048-4.269-3.15c0.371-1.813,4.315,0.12,4.923,0.278
			c3.065,0.793,6.039,1.395,8.841,2.964c0.441,0.247,5.533,4.18,4.593,4.554c-1.473,0.586-5.914-1.329-7.402-1.866
			C163.43,143.427,161.23,142.388,159.007,141.464z"/>
		<path style="fill:#231815;" d="M289.305,202.929c-9.932-0.838-21.374-3.08-29.955-8.33c-2.522-1.543-7.024-6.975-10.298-6.025
			c-6.136,1.779,3.413,8.015,5.466,8.839c15.278,6.135,32.559,8.582,49.026,8.33c16.473-0.252,47.767-12.579,56.224,9.138
			c0.665,1.708,1.938,15.411,5.204,10.132c1.608-2.599-1.468-9.338-2.584-11.668c-1.793-3.745-4.486-6.904-7.986-9.161
			c-10.235-6.602-24.004-4.75-35.252-2.41C309.268,203.83,299.317,203.794,289.305,202.929z"/>
		<path style="fill:#231815;" d="M237.352,225.569c-0.226-1.411-1.609-10.893,1.098-11.424c1.658-0.326,2.055,12.625,2.391,14.585
			c1.046,6.102,2.062,12.415,1.537,18.625c-0.227,2.679-0.758,5.365-1.906,7.816c-0.21,0.449-2.788,4.293-2.98,3.806
			c-0.43-1.092,1.537-5.759,1.624-7.086c0.146-2.242-0.055-4.539-0.17-6.774C238.609,238.582,237.796,232.093,237.352,225.569z"/>
		<path style="fill:#231815;" d="M58.674,224.303c0.626-1.597,3.805-9.106,1.362-10.515c-2.909-1.677-6.39,5.939-7.201,7.694
			c-4.359,9.428-6.093,20.005-7.257,30.243c-2.452,21.556-3.531,44.376,1.488,65.635c2.387,10.111,6.266,19.923,12.187,28.495
			c1.812,2.623,5.414,8.446,9.011,8.684c5.148,0.34-0.105-6.206-1.46-8.178c-5.435-7.915-11.344-15.506-14.481-24.703
			c-3.049-8.937-4.114-18.554-4.653-27.939C46.318,270.177,49.814,246.221,58.674,224.303z"/>
		<path style="fill:#231815;" d="M245.444,136.69c1.525-6.15-3.692-0.956-3.233-0.674c-2.393-1.471,3.87-7.141,4.932-0.94
			c0.768,4.489-4.582,6.359-7.748,3.904c-3.951-3.065-2.334-8.759,1.678-10.886c2.45-1.298,10.139,0.231,7.11,4.018
			c1.183-1.014-2.551-3.537-3.396-3.57c-2.042-0.08-4.821,2.358-5.407,4.204C238.214,136.425,243.726,140.904,245.444,136.69z"/>
		<path style="fill:#231815;" d="M196.252,147.425c0.202-1.025-0.375-3.191-1.667-3.555c-0.831-0.234-2.553,3.424-2.876,0.004
			c-0.33-3.496,3.541-3.19,5.476-1.424c2.648,2.416,2.191,6.428-0.087,8.921c-5.535,6.057-12.744,0.232-11.691-6.692
			c0.411-2.703,1.755-5.543,3.844-7.352c0.994-0.86,8.2-3.713,7.679,0.497c0.355-1.42-4.911,0.015-5.524,0.645
			c-1.442,1.484-2.317,4.176-2.594,6.18C188.063,150.07,194.05,153.134,196.252,147.425z"/>
		<path style="fill:#231815;" d="M332.971,189.394c-0.467-1.341-2.624-6.668-0.904-7.993c2.101-1.617,3.749,7.184,4.12,8.334
			c1.316,4.081,2.523,8.12,3.341,12.341c0.362,1.869,2.281,8.821,0.94,10.475c-0.155,0.191-4.406-9.794-4.64-10.615
			C334.656,197.817,333.875,193.577,332.971,189.394z"/>
		<path style="fill:#231815;" d="M410.847,207.14c-4.103-1.571-8.249-3.118-12.23-4.985c-0.828-0.388-4.103-1.465-4.414-2.511
			c-0.77-2.59,5.484-0.038,6.658,0.382c4.904,1.752,9.713,3.843,14.556,5.759c8.976,3.551,18.268,6.685,26.917,10.98
			c1.948,0.967,20.247,12.686,20.659,12.378c-1.266,0.947-11.179-4.388-12.804-5.076c-4.633-1.962-9.19-4.101-13.83-6.048
			C427.822,214.436,419.29,210.949,410.847,207.14z"/>
		<path style="fill:#231815;" d="M405.096,194.227c-1.551,1.128-8.703,6.767-11.107,4.993c-1.572-1.16,11.473-9.178,12.932-10.277
			c1.805-1.359,27.155-18.308,27.601-16.721c0.375,1.333-11.373,9.804-12.792,10.868C416.399,187.082,410.8,190.79,405.096,194.227z
			"/>
		<path style="fill:#231815;" d="M454.065,175.175c-3.661-1.024-7.306-2.176-11.014-3.024c-2.134-0.488-7.395,0.664-5.912-2.474
			c2.6-5.501,20.551,2.155,24.594,3.437c3.885,1.232,45.46,18.833,44.948,19.567c-0.86,1.234-11.766-2.363-13.312-2.765
			c-4.84-1.259-9.569-2.812-14.222-4.647C470.763,181.964,462.515,178.314,454.065,175.175z"/>
		<path style="fill:#231815;" d="M498.092,198.781c2.559-1.703,6.591-3.884,9.576-1.873c0.846,0.57,3.73,4.998,1.602,5.945
			c-1.401,0.624-2.171-3.313-3.842-3.781c-3.095-0.865-7.857,3.654-9.812,5.32c-6.273,5.345-11.883,11.4-17.688,17.232
			c-1.112,1.117-7.993,9.442-9.6,8.903c-0.13-0.044,10.156-14.44,11.283-15.712C484.954,208.786,491.11,202.88,498.092,198.781z"/>
		<path style="fill:#231815;" d="M403.425,208.112c-0.701-0.809-4.226-4.429-2.117-5.519c1.892-0.977,5.54,5.123,6.105,6.159
			c1.494,2.741,2.219,6.256,1.055,9.277c-0.548,1.424-1.514,2.947-2.919,3.653c-0.201,0.101-2.796,1.282-2.619,0.44
			c0.225-1.07,1.686-2.352,2.053-3.532c0.301-0.967,0.382-2.413,0.376-3.398C405.343,212.693,404.644,210.283,403.425,208.112z"/>
		<path style="fill:#231815;" d="M447.871,244.528c4.715,1.759,9.443,3.616,13.926,5.916c1.248,0.64,5,2.079,5.599,3.588
			c0.996,2.505-6.673-0.983-7.682-1.42c-5.874-2.54-11.771-4.948-17.775-7.167c-11.315-4.182-22.572-8.509-33.763-13.015
			c-2.777-1.118-13.106-3.669-14.245-6.509c-0.752-1.875,0.857-3.766,2.132-5.015c1.09-1.068,4.267-1.936,4.815-2.573
			c-1.047,1.377-6.109,3.918-5.262,6.065c0.538,1.364,3.162,1.534,4.537,1.936c6.391,1.87,12.661,4.06,18.877,6.447
			C428.719,236.503,438.319,240.468,447.871,244.528z"/>
		<path style="fill:#231815;" d="M118.866,211.409c-11.02-8.821-17.807-23.041-15.355-37.38c0.586-3.428,6.664-14.321,1.31-16.402
			c-5.454-2.12-8.193,7.984-8.24,11.366c-0.163,11.772,2.453,25.209,9.891,34.595c7.081,8.936,17.269,16.145,27.745,20.484
			c14.398,5.963,30.158,6.415,45.345,3.612c6.393-1.18,12.792-2.691,18.656-5.536c4.015-1.948,11.655-7.773,15.943-4.077
			c4.297,3.703,1.156,11.009,4.938,14.663c1.368,1.322,3.398,1.255,4.312-0.567c1.692-3.37-2.352-12.482-4.351-15.268
			c-3.489-4.86-8.175-4.883-13.242-2.789c-6.555,2.709-12.267,6.402-19.182,8.273c-8.58,2.322-17.477,3.684-26.378,3.568
			C144.962,225.753,131.015,220.542,118.866,211.409z"/>
		<path style="fill:#231815;" d="M226.07,221.511c0.038,1.059,0.928,6.503-1.217,6.634c-2.605,0.159-1.685-8.586-1.516-9.686
			c0.55-3.594,2.292-7.077,4.937-9.601c0.88-0.84,7.473-3.606,7.242-3.017c-0.455,1.164-2.757,2.623-3.611,3.7
			c-0.915,1.154-1.769,2.42-2.547,3.665C227.753,215.77,226.51,218.49,226.07,221.511z"/>
		<path style="fill:#231815;" d="M181.375,332.141c0.513,1.37,3.922,7.597,2.308,8.987c-2.292,1.974-5.962-10.873-6.23-12.202
			c-0.909-4.497-0.689-9.659,1.765-13.675c1.197-1.959,8.021-8.32,10.566-5.451c-0.085-0.096-4.016,2.421-4.479,2.833
			c-1.737,1.547-2.866,3.686-3.636,5.851C180.111,322.858,180.353,327.671,181.375,332.141z"/>
		<path style="fill:#231815;" d="M192.897,330.754c0.297,1.03,3.35,6.254,2.431,7.28c-2.468,2.755-5.398-6.962-5.587-7.955
			c-0.928-4.878-0.192-10.392,2.576-14.602c1.056-1.605,2.433-3.139,4.208-3.967c0.155-0.073,4.461-1.114,3.891-0.352
			c-1.135,1.518-3.087,2.106-4.199,3.958c-0.758,1.263-1.29,2.71-1.783,4.092C193.117,322.9,192.398,326.831,192.897,330.754z"/>
		<path style="fill:#231815;" d="M261.447,238.374c-3.233-0.807-14.973-3.224-16.174-7.49c-0.837-2.973,2.806-1.765,4.777-1.131
			c4.801,1.545,9.215,3.662,14.189,4.776c9.206,2.063,19.043,3.156,28.448,2.141c1.897-0.205,22.972-5.106,22.582-6.285
			c0.603,1.824-9.736,7.326-10.981,7.945c-4.19,2.081-8.664,3.387-13.315,3.91C280.969,243.366,270.973,241.277,261.447,238.374z"/>
		<path style="fill:#231815;" d="M305.041,212.601c0.167-1.347,1.462-7.573,3.945-7.193c2.491,0.382-0.543,5.279-0.86,6.68
			c-0.912,4.031-0.749,9.227,0.32,13.209c0.513,1.91,1.237,3.931,2.757,5.287c0.835,0.745,3.22,1.143,3.739,2.003
			c0.322,0.533-5.288-0.338-5.893-0.705c-1.908-1.158-3.165-3.061-3.926-5.118C303.51,222.399,303.909,217.038,305.041,212.601z"/>
		<path style="fill:#231815;" d="M314.934,209.998c0.123-1.34,1.475-5.56,3.708-4.96c2.552,0.686-0.097,2.968-0.537,4.295
			c-0.561,1.693,1.014,18.445,2.843,18.277c-2.79,0.257-5.467-5.974-5.984-7.96C314.162,216.576,314.142,213.063,314.934,209.998z"
			/>
		<path style="fill:#231815;" d="M330.62,223.81c-1.835-0.843-5.677-3.857-1.99-5.766c0.964-0.499,2.686-0.098,3.049,0.909
			c0.259,0.721-1.358,1.115-1.486,1.777c-0.124-0.365-0.248-0.73-0.372-1.096c1.795,2.043,10.167,4.643,12.156,1.833
			c0.587-0.828-1.571-4.922-2.208-4.782c1.675-0.368,4.654,2.114,5.423,3.318c1.486,2.329,0.522,3.438-1.651,4.668
			C339.621,226.891,334.32,226.121,330.62,223.81z"/>
		<path style="fill:#231815;" d="M349.87,232.605c-0.532-1.411-3.733-8.043-2.248-9.636c2.202-2.363,4.839,8.147,5.233,9.242
			c1.897,5.27,3.524,10.559,4.842,16.009c0.56,2.317,3.772,11.4,2.261,13.429c0.041-0.055-5.655-12.341-6.023-13.558
			C352.391,242.987,351.211,237.764,349.87,232.605z"/>
		<path style="fill:#231815;" d="M216.665,245.481c0.12,1.513,4.626,7.07,0.307,5.742c-4.164-1.281-3.711-7.838-0.859-9.872
			c3.419-2.438,9.053-1.294,9.974,3.145c0.406,1.958-0.329,3.825-1.396,5.438c-0.21,0.317-3.66,3.721-3.707,3.08
			c-0.188-2.572,4.125-6.186,0.971-8.719C219.411,242.253,217.763,245.81,216.665,245.481z"/>
		<path style="fill:#231815;" d="M220.934,264.299c-1.275,2.016-4.13,2.901-3.725-0.039c0.172-1.248,4.119-5.153,5.428-4.978
			c1.903,0.253,6.519,6.793,4.266,8.206C225.296,268.495,223.363,262,220.934,264.299z"/>
		<path style="fill:#231815;" d="M421.868,231.495c-2.46-0.845-15.041-3.674-15.993-6.914c-0.746-2.537,5.215-0.16,6.367,0.236
			c4.728,1.624,9.398,3.465,14.11,5.142c8.95,3.184,17.29,7.712,26.166,10.97c3.78,1.388,7.703,2.303,11.567,3.414
			c0.644,0.185,9.311,3.298,9.095,3.528c-0.946,1.011-10.484-1.544-12.158-1.763c-4.511-0.589-8.908-1.409-13.143-3.136
			C439.124,239.404,430.608,235.142,421.868,231.495z"/>
		<path style="fill:#231815;" d="M501.395,225.686c2.424-2.292,4.708-4.732,6.707-7.406c0.351-0.469,1.706-3.203,2.427-3.313
			c2.988-0.455-1.051,6.251-1.699,7.097c-2.24,2.923-5.059,5.48-7.786,7.933c-5.116,4.6-10.405,8.79-15.265,13.674
			c-2.442,2.454-13.654,14.211-17.937,10.57c1.037,1.061,7.577-4.727,8.407-5.55c2.402-2.382,4.572-4.999,6.872-7.478
			C488.664,235.239,495.174,230.88,501.395,225.686z"/>
		<path style="fill:#231815;" d="M483.558,237.214c-1.015,1.045-6.477,7.405-8.499,6.386c-2.224-1.121,8.049-10.118,9.491-11.536
			c4.143-4.073,8.624-7.876,13.284-11.346c0.891-0.663,8.164-6.559,9.206-5.699C508.238,216.008,485.68,235.44,483.558,237.214z"/>
		<path style="fill:#231815;" d="M325.008,274.254c-3.82-1.95-7.682-3.915-11.299-6.229c-0.652-0.417-3.785-2.014-3.935-3.028
			c-0.388-2.63,5.297,0.623,6.398,1.183c4.246,2.161,8.403,4.524,12.625,6.735c8.798,4.606,17.454,9.512,25.597,15.218
			c1.986,1.392,17.315,15.244,17.344,15.23c-1.358,0.619-8.784-5.701-10.263-6.648c-4.166-2.668-8.39-5.246-12.57-7.892
			C341.022,283.829,333.033,279.015,325.008,274.254z"/>
		<path style="fill:#231815;" d="M387.215,241.842c-1.476-0.676-10.48-4.626-9.761-7.361c0.485-1.847,11.893,5.114,13.551,5.887
			c5.793,2.701,11.497,5.716,17.014,8.949c2.451,1.436,4.842,2.99,6.984,4.864c0.399,0.349,4.613,5.249,4.177,5.287
			c-1.358,0.118-5.565-3.635-7.052-4.377c-2.494-1.243-5.058-2.339-7.554-3.58C398.64,248.561,392.99,245.084,387.215,241.842z"/>
		<path style="fill:#231815;" d="M379.784,286.081c-4.643,3.91-10.578,9.937-13.148,15.504c-1.158,2.509-0.242,6.923,3.582,4.98
			c2.114-1.074,2.059-5.484,2.976-7.587c5.657-12.968,19.923-21.536,32.247-27.146c3.016-1.373,6.131-2.631,9.345-3.461
			c1.602-0.413,4.475-0.168,5.813-1.028c1.272-0.819,2.313-2.362,0.985-3.611c-1.263-1.188-5.654,1.147-6.981,1.629
			C401.681,270.06,390.073,276.962,379.784,286.081z"/>
		<path style="fill:#231815;" d="M348.524,309.828c1.993-0.97,19.459-6.912,19.552-2.312c0.043,2.105-7.312,2.898-8.426,3.137
			c-4.613,0.988-9.216,2.409-13.103,5.174c-7.612,5.415-14.6,13.238-20.141,20.722c-2.879,3.888-5.532,8.001-7.604,12.38
			c-0.375,0.793-3.678,7.564-3.563,7.787c-1.542-3.015,1.281-9.962,2.28-12.938c1.551-4.622,3.781-8.88,6.663-12.813
			C330.182,322.777,338.939,313.666,348.524,309.828z"/>
		<path style="fill:#231815;" d="M271.073,325.919c-0.866-0.474-13.17-6.738-12.119-9.041c1-2.191,9.156,3.921,9.668,4.227
			c7.661,4.584,15.575,8.707,23.209,13.35c3.806,2.315,7.576,4.686,11.253,7.203c1.639,1.122,7.34,3.87,7.876,5.908
			c-0.152-0.579-8.236-3.407-9.456-3.968c-4.206-1.932-8.277-4.073-12.267-6.421C283.099,333.565,277.068,329.763,271.073,325.919z"
			/>
		<path style="fill:#231815;" d="M61.234,195.51c-14.076-4.784-26.007-4.008-38.026,5c-10.877,8.152-18.062,19.496-21.027,32.731
			c-5.886,26.267-0.282,53.777,22.07,70.305c4.783,3.537,9.992,6.54,15.119,9.547c2.037,1.195,13.12,5.935,7.476-0.09
			c-3.172-3.386-8.483-5.227-12.4-7.667c-5.767-3.593-11.287-7.691-15.91-12.699c-15.519-16.814-17.952-43.352-8.894-63.869
			c4.892-11.081,11.955-19.668,23.343-24.429c6.439-2.691,12.959-2.981,19.796-3.555c2.459-0.206,8.28,0.044,10.345-1.363
			C65.635,197.71,64.073,196.403,61.234,195.51z"/>
		<path style="fill:#231815;" d="M48.158,349.053c-0.187-1.724,1.101-3.759,2.389-4.806c0.647-0.525,3.234-1.022,3.551-1.577
			c0.797-1.397-0.516-3.877-1.669-4.781c-2.14-1.678-2.041-0.842-3.34,0.518c-5.853,6.129-3.649,15.465,1.938,20.554
			c2.75,2.505,7.219,5.842,10.958,6.546c1.489,0.28,1.342,0.967,2.597-0.357c0.582-0.614,1.002-2.606,0.398-3.25
			c-0.556-0.594-2.589-0.186-3.407-0.333c-1.971-0.355-3.918-1.422-5.61-2.446C52.196,356.841,48.737,353.614,48.158,349.053z"/>
		<path style="fill:#231815;" d="M219.375,167.429c-2.41,0-5.261-5.263-0.585-4.678
			C223.468,163.336,222.298,167.429,219.375,167.429z"/>
		<path style="fill:#231815;" d="M234.576,165.089c-2.338-1.753,1.755-5.846,3.508-5.261
			C239.839,162.166,234.576,165.089,234.576,165.089z"/>
		<path style="fill:#231815;" d="M166.43,382.793c0.365-4.47,0.707-8.95,1.236-13.404c0.151-1.27,0.053-5.515,1.177-6.49
			c1.882-1.632,1.717,2.64,1.748,4.183c0.113,5.653-0.884,11.423-1.315,17.056c-0.863,11.255-1.086,22.579-1.613,33.856
			c-0.254,5.454-0.546,10.901-0.895,16.349c-0.165,2.578,0.628,9.035-0.97,11.197c0.122-0.164-0.672-4.524-0.723-5.214
			c-0.201-2.757-0.393-5.516-0.568-8.275c-0.347-5.471-0.455-10.938-0.332-16.42C164.42,404.684,164.996,393.652,166.43,382.793z"/>
		<path style="fill:#231815;" d="M187.557,361.814c-1.787,0.113-14.469,1.659-15.772-1.104c-0.987-2.093,6.557-1.618,7.738-1.621
			c5.045-0.013,10.061-0.345,15.092-0.693c8.944-0.617,18.004-0.972,26.968-0.647c0.908,0.033,13.915,1.603,13.89,1.644
			c-0.729,1.175-7.513,0.704-8.88,0.828c-4.181,0.379-8.345,0.825-12.54,1.033C205.231,361.693,196.388,361.742,187.557,361.814z"/>
		<path style="fill:#231815;" d="M238.068,381.489c-0.383-4.871-0.663-9.82-0.334-14.704c0.08-1.187,0.001-5.535,1.203-6.406
			c2.515-1.822,2.313,5.91,2.338,7.351c0.116,6.594,0.42,13.134,0.935,19.711c0.848,10.822,0.908,21.619,1.189,32.463
			c0.135,5.203,0.22,10.402,0,15.604c-0.097,2.304-0.198,4.623-0.487,6.912c-0.054,0.429-0.831,4.042-0.952,3.825
			c-0.985-1.755-0.522-4.871-0.704-6.871c-0.238-2.608-0.564-5.205-0.902-7.801c-0.702-5.387-1.34-10.761-1.62-16.19
			C238.154,404.116,238.315,392.773,238.068,381.489z"/>
		<path style="fill:#231815;" d="M223.359,445.457c4.278-0.324,8.616-0.582,12.907-0.338c1.158,0.066,4.388-0.137,5.325,0.772
			c2.021,1.959-2.473,1.906-4.09,2.019c-5.231,0.365-10.516,0.266-15.759,0.595c-10.263,0.644-20.487,0.428-30.765,0.336
			c-4.63-0.042-9.258-0.179-13.868-0.63c-2.435-0.238-9.191-0.144-10.938-2.155c0.726,1.036,11.169-0.105,12.984-0.198
			c4.742-0.244,9.476-0.543,14.225-0.631C203.377,445.041,213.356,445.673,223.359,445.457z"/>
		<path style="fill:#231815;" d="M162.106,375.514c1.225,0.143,4.045,0.86,3.966,2.543c-0.114,2.416-4.03,0.458-5.262,0.258
			c-2.06-0.334-12.729-0.351-12.558-3.983C148.328,372.731,160.953,375.153,162.106,375.514z"/>
		<path style="fill:#231815;" d="M138.232,397.666c1.785-3.956,3.487-7.947,5.188-11.94c0.566-1.329,1.343-4.725,2.574-5.625
			c2.047-1.496,1.367,1.757,1.063,3.41c-1.019,5.538-4.209,11.191-6.553,16.261c-4.499,9.736-9.796,19.053-14.297,28.793
			c-2.171,4.698-4.258,9.412-7.166,13.704c-1.24,1.831-2.729,3.587-3.659,5.607c-0.884,1.918-0.471,3.746-1.026,5.573
			c0.188-0.682-0.941-3.62-0.592-5.169c0.566-2.51,2.026-4.819,3.181-7.084c2.345-4.598,4.008-9.513,6.043-14.255
			C127.351,416.776,133.211,407.492,138.232,397.666z"/>
		<path style="fill:#231815;" d="M131.193,462.389c-2.206-0.501-16.491-2.549-17.206-5.715c-0.513-2.273,7.752,0.276,8.712,0.535
			c5.477,1.474,11.002,2.734,16.52,4.045c6.629,1.574,13.211,3.307,19.85,4.845c4.762,1.103,9.493,2.331,14.223,3.559
			c2.228,0.579,4.454,1.178,6.705,1.664c1.451,0.313,4.287,0.212,5.499,1.036c-0.122-0.062-3.614,0.507-4.129,0.5
			c-2.615-0.035-5.238-0.347-7.833-0.648c-5.098-0.59-10.133-1.457-15.152-2.529C149.184,467.718,140.219,465.008,131.193,462.389z"
			/>
		<path style="fill:#231815;" d="M191.097,466.819c-0.636,1.192-3.307,6.046-5.435,5.249c-1.928-0.721,3.391-7.712,4.068-9.114
			c0.601-1.245,7.387-18.113,9.343-17.277c0.689,0.294-1.643,8.64-1.943,9.542C195.763,459.336,193.58,463.278,191.097,466.819z"/>
		<path style="fill:#231815;" d="M72.59,357.451c5.893-3.737,11.761-7.514,17.604-11.329c4.434-2.895,8.858-5.809,13.231-8.797
			c2.416-1.651,7.587-4.001,9.105-6.607c1.091-1.873,1.007-0.499-0.405-1.959c-1.904-1.969-5.064-3.389-7.242-5.103
			c-8.39-6.607-15.883-14.609-21.343-23.817c-8.105-13.669-10.622-29.627-5.93-44.939c4.651,26.057,17.451,54.348,39.63,69.895
			c15.036,10.539,33.458,12.013,51.241,13.705c1.865,0.177,12.231,2.145,13.242-0.27c0.398-0.951-2.261-6.579-2.535-7.727
			c-1.573-6.586-2.782-16.713,4.556-20.382c-14.494-2.265-29.773-6.847-41.324-16.225c-15.468-12.56-16.819-31.367-9.592-49.034
			c0,14.282,3.495,30.332,12.423,41.781c4.685,6.009,11.085,10.369,18.674,11.634c6.092,1.015,13.576-5.385,18.769-8.363
			c14.048-8.057,28.025-16.238,41.986-24.444c4.056-2.384,8.709-4.501,12.466-7.344c2.239-1.694,1.835-1.635,1.884-4.864
			c0.194-12.582,0.796-25.47-0.937-37.959c-0.228-1.64-0.01-8.215-2.167-8.91c-3.265-1.051-7.259,6.626-8.236,8.667
			c-1.789,3.737-3.199,8.05-3.146,12.237c0.013,1.039,1.427,9.574-0.681,8.596c-2.242-1.04-3.529-8.62-4.375-10.752
			c-1.284-3.235-2.973-7.341-6.925-7.78c-5.959-0.663-14.1,5.239-19.556,7.148c-13.341,4.668-25.873,4.486-39.295,0.994
			c-25.694-6.684-64.438-26.004-53.873-58.81c-13.336,1.111-22.732,17.456-28.57,27.686c-7.237,12.682-12.989,26.239-17.992,39.94
			c-6.689,18.317-8.985,37.983-7.576,57.439C47.454,315.935,55.994,339.472,72.59,357.451z"/>
		<path style="fill:#231815;" d="M245.912,195.097c-5.803,7.254-14.489,12.811-9.691,23.365
			c5.288,11.63,21.968,16.482,33.509,17.932c10.915,1.37,24.43,1.811,35.002-1.911c4.13-1.454,3.321-3.633,2.446-7.596
			c-1.566-7.095-3.072-14.516,1.167-21.069c-9.809,2.802-20.961,2.426-30.981,1.259
			C266.523,205.814,253.923,203.108,245.912,195.097z"/>
	</g>
</g>
</svg>
