<?xml version="1.0" encoding="iso-8859-1"?>
<!-- Generator: Adobe Illustrator 21.1.0, SVG Export Plug-In . SVG Version: 6.00 Build 0)  -->
<svg version="1.1" id="_x31_2" xmlns="http://www.w3.org/2000/svg" xmlns:xlink="http://www.w3.org/1999/xlink" x="0px" y="0px"
	 viewBox="0 0 512 512" style="enable-background:new 0 0 512 512;" xml:space="preserve">
<g>
	<path style="fill:#94C85C;" d="M75.436,253.925c-4.96-0.451-16.233-0.902-22.095-2.255c-5.862-1.353,7.666-12.175,13.528-13.528
		c5.862-1.353,7.666-3.607,7.666-3.607s3.552-11.65,8.117-13.528c4.564-1.877,6.161,1.214,10.371,7.215
		c4.21,6.001,2.706,5.862,9.018,6.764c6.313,0.902,8.117,1.353,9.018-3.607c0.902-4.96,5.411-10.822,10.371-9.018
		c4.96,1.804,10.822,13.528,16.233,15.331c5.411,1.804,35.172,10.822,48.7,20.742c13.528,9.92,24.35,24.35,26.604,27.506
		c2.255,3.156,9.469,22.546,12.175,31.565c2.706,9.018,0,22.546-4.509,24.801c3.157,10.371,6.764,14.43,13.979,13.077
		c7.215-1.353,13.979-8.568,18.037-12.626c4.058-4.058,8.567-8.568,15.782-6.764c7.215,1.804,13.077,13.528,14.43,22.997
		c1.353,9.469-4.96,21.644-7.666,24.35c-2.706,2.706,0.902-11.273-0.451-15.331c-1.353-4.058-2.706,12.626-10.371,17.586
		c-1.505-3.152,4.058-16.233,3.157-17.586c-0.902-1.353-5.862,12.626-9.469,13.978c-3.607,1.353,4.96-15.331,3.156-19.39
		c-1.804-4.058-10.371,6.764-17.586,12.626c-7.215,5.862-22.095,20.742-31.564,21.644c-9.469,0.902-23.448-7.215-32.015-22.546
		c-8.568-15.331-8.568-15.331-9.92-14.88c-1.353,0.451-18.939,7.215-29.31,9.92s-32.917,4.509-36.525,9.018
		c-3.607,4.509-18.488,25.703-22.546,33.819c-4.058,8.117-16.233,15.331-25.702,18.939c-9.469,3.607-13.077,3.607-17.135,4.96
		c-4.058,1.353,2.255-5.862,8.117-9.018c5.862-3.156-1.353-3.156-5.862-1.804c-4.509,1.353-7.215,0.902-13.979,3.607
		c-6.764,2.706,0.902-7.215,14.43-9.469c9.018-2.255-8.117-1.804-13.979-1.353c-5.862,0.451-2.705-4.058,5.862-4.509
		c8.567-0.451,18.939,0.451,24.35-2.255c5.411-2.706,7.773-7.574,8.117-13.077c0.343-5.502,1.717-13.217,4.058-24.35
		c2.341-11.133,10.371-20.742,21.644-27.055c11.273-6.313,23.899-10.822,23.899-10.822l-1.804-8.568c0,0-22.997-1.353-29.761-1.804
		s-13.077-1.804-18.037-1.804c-4.96,0-9.879-0.753-14.43-0.451c-4.551,0.302-0.451-1.353,3.156-3.156
		c3.607-1.804-6.764-1.804-14.43,2.705c-7.666,4.509,4.058-9.018,8.568-10.371c1.88-0.336-9.469,2.255-13.528,4.96
		c-4.058,2.706,6.764-9.469,19.39-11.273s36.074,4.509,47.347,2.255c11.273-2.255,13.528-9.018,10.371-13.077
		c-3.156-4.058-13.077-2.705-13.077-2.705s-12.175,2.255-20.291,2.705s-22.997,0-30.212-3.607
		c-7.215-3.607-11.724-7.215-15.782-7.215s-19.841,2.706-23.448,6.313c-3.607,3.607,1.353-4.509,7.215-6.764
		c0.073-1.947-9.469,2.706-12.626,4.509c-3.156,1.804,1.356-6.537,7.666-9.018c3.156-1.804-6.764,1.353-10.822,4.509
		c-4.058,3.157,4.509-9.469,13.979-13.528c9.469-4.058,18.037-0.451,26.604,1.804c8.567,2.255,20.742,4.96,27.957,4.96
		c7.215,0,18.939-2.255,18.939-2.255s9.469-8.567,9.469-11.724C97.982,260.238,75.436,253.925,75.436,253.925z"/>
	<path style="fill:#ED7342;" d="M109.255,260.689c11.071,3.321,18.564,9.547,17.586,10.371c-0.978,0.825-22.546,4.058-31.564,3.607
		c-9.019-0.451-17.586-2.705-17.586-2.705s5.388-2.744,3.607-9.469s-4.058-8.117-4.058-8.117S104.745,259.336,109.255,260.689z"/>
	<path style="fill:#FFFFFF;" d="M131.35,274.216c4.058,2.255,1.353,6.313-0.451,9.469c-1.804,3.156,4.058,8.568,4.058,8.568
		s-13.978,13.979-27.957,14.88c0-12.175-16.582-27.127-23.899-31.564c-5.411-3.607,1.353-1.804,1.353-1.804
		s19.39,1.804,27.506,0.451c8.117-1.353,16.684-2.706,16.684-2.706L131.35,274.216z"/>
	<path style="fill:#FFFFFF;" d="M158.856,310.29c10.822,7.666,13.979,36.525,7.666,44.19s-25.252,4.96-47.798-16.684
		c-5.385-6.473-4.96-10.371-4.96-10.371s22.997-7.666,27.957-10.371C146.681,314.349,158.856,310.29,158.856,310.29z"/>
	<path style="fill:#FFFFFF;" d="M150.739,227.321c1.353-4.058,4.509-7.215,8.117-5.862c3.607,1.353,1.804,4.509,0.451,4.96
		C157.954,226.87,150.739,227.321,150.739,227.321z"/>
	<path style="fill:#FFFFFF;" d="M167.874,204.775c2.255-0.451,9.469,0.451,10.822-1.804c1.353-2.255-2.255-4.509-5.862-2.706
		C169.227,202.069,167.874,204.775,167.874,204.775z"/>
	<path style="fill:#FFFFFF;" d="M137.212,207.931c3.156-0.451,10.371-1.804,10.371-4.509s-1.732-4.618-6.313-1.804
		C136.689,204.432,137.212,207.931,137.212,207.931z"/>
	<path style="fill:#FFFFFF;" d="M172.384,237.241c-3.156-0.902,1.215-5.283,4.058-4.058
		C179.285,234.407,179.147,238.143,172.384,237.241z"/>
	<path style="fill:#FFFFFF;" d="M361.32,138.94c3.279-1.588,8.568-5.411,1.353-14.88c-7.215-9.469-9.92-32.917,0.902-39.681
		c5.411,0.451,11.273,10.371,13.528,19.39c5.411-17.586,11.691-22.17,18.488-23.899c6.796-1.729,8.019,15.922,7.215,25.252
		c-0.804,9.329-7.646,25.318-10.371,27.506c0,0,5.411,25.702,10.371,31.564c4.96,5.862,20.292,12.175,32.016,36.976
		c11.724,24.801,13.978,35.172,18.488,39.681c4.509,4.509,4.058,8.117,2.705,7.666c-1.353-0.451-5.114,0.779-3.607,0.902
		c1.507,0.123,0,8.568,0,11.273c0,2.706,2.255,11.724,6.764,18.939c4.509,7.215,8.117,9.018,13.077,8.117
		c4.96-0.902,5.862-1.804,8.568-7.215c2.706-5.411,12.626-14.88,18.488-16.233c5.862-1.353,9.484,3.953,10.822,10.371
		c1.338,6.418-0.902,18.037,0.902,19.841c1.804,1.804,1.047,3.434-1.804,2.255c-1.529,0.999-4.509,1.353-4.509,1.353
		s-1.804,5.862-5.862,1.353c-4.058-4.509-2.255-13.077-3.156-14.43c-0.902-1.353-8.568,17.135-21.644,22.546
		c-13.077,5.411-25.252,6.313-31.113,4.058c-5.862-2.255-19.39-10.822-22.546-13.077c-3.156-2.255-6.313-4.96-6.313-4.96
		s-27.055,4.509-33.819,13.979c-6.764,9.469-19.195,30.814-23.899,33.368c-4.704,2.554-15.782,3.156-23.899,1.353
		s-16.033-3.619-20.742-4.96c-4.71-1.341-4.96-2.255-4.96-2.255s-1.804-4.058,0-4.96c-1.353-1.804-0.902-9.92,7.215-9.018
		c8.117,0.902,21.644,4.509,28.859,3.607c7.215-0.902,12.175-8.568,13.077-12.175s9.92-24.801,12.175-31.565
		c2.255-6.764,18.037-22.546,22.095-24.35c4.058-1.804,1.353-4.96,1.353-6.764s-7.666-24.801-13.077-31.564
		c-2.541,0.674-4.96,5.862-16.684,4.058c-11.724-1.804-91.537-29.761-96.948-32.466c-5.411-2.706-10.371-18.939-4.509-23.448
		c5.862-4.509,11.273-0.451,11.273-0.451L361.32,138.94z"/>
	<path style="fill:#FFFFFF;" d="M364.476,140.744l-0.451,36.525c0,0-2.706,0-5.862,2.706c-3.156,2.705-3.156,6.764-3.156,6.764
		s-1.804,4.96,1.353,6.764c-1.353,4.058,6.764,6.313,6.764,6.313l0.902,59.973c0,0-3.607,2.255-5.862,1.804
		c-2.255-0.451-89.283-12.175-90.635-14.88c-1.353-2.706-0.451-55.914-0.451-55.914s5.862-2.706,4.96-7.666
		c2.706-3.607,2.785-8.5,0.451-10.371c0.451-2.255,3.607-2.705-0.902-5.411c-4.509-2.706-4.509-2.706-4.509-2.706
		s2.653-41.336,1.804-42.387c-0.85-1.05,4.509-0.902,4.509-0.902s79.362,13.077,82.068,13.077s6.764,1.804,6.764,1.804
		L364.476,140.744z"/>
	<g>
		<path style="fill:#231815;" d="M361.767,211.612c0.656-3.348-0.232-6.719,0.227-10.057c0.478-3.471,2.484-0.401,2.782,1.398
			c0.633,3.819-0.007,8.212-0.028,12.125c-0.037,6.804,0.024,13.615-0.161,20.417c-0.117,4.315-0.24,8.631-0.262,12.948
			c-0.01,1.901-0.027,3.81,0.081,5.709c0.086,1.523,0.778,4.33-0.682,5.438c-1.596,1.21-1.487-1.247-1.532-2.284
			c-0.101-2.325-0.095-4.658-0.086-6.985c0.011-3.178,0.431-6.353,0.66-9.52c0.324-4.495,0.094-8.933,0.188-13.432
			c0.056-2.653,0.291-5.344-0.068-7.982C362.565,217.04,361.302,213.978,361.767,211.612z"/>
		<path style="fill:#231815;" d="M361.831,143.843c0.634-2.284-0.504-4.846,0.209-7.03c0.575-1.764,1.97-0.825,2.56,0.539
			c0.989,2.288,0.231,5.866,0.231,8.415c0,4.705,0.102,9.421-0.04,14.124c-0.091,3.012-0.2,6.024-0.202,9.038
			c-0.001,1.662,1.042,6.577-0.387,7.71c-2.388,1.895-1.816-4.82-1.821-5.89c-0.01-2.262,0.374-4.503,0.594-6.752
			c0.315-3.213,0.058-6.338,0.133-9.557c0.042-1.784,0.217-3.571-0.131-5.332C362.694,147.674,361.42,145.326,361.831,143.843z"/>
		<path style="fill:#231815;" d="M306.294,127.994c12.348,2.112,24.751,4.003,37.044,6.422c2.657,0.523,5.293,1.114,7.983,1.458
			c1.609,0.206,8.321,1.475,9.301-0.48c1.032-2.059-13.069-3.139-14.556-3.228c-13.106-0.787-26.324-3.108-39.235-5.415
			c-6.672-1.192-13.333-2.45-20.009-3.624c-3.095-0.544-6.19-1.082-9.287-1.615c-1.468-0.253-2.938-0.548-4.421-0.693
			c-0.96-0.094-4.428-0.589-5.082,0.387c-0.854,1.274,7.189,2.039,8.039,2.138c3.294,0.384,6.583,0.803,9.864,1.283
			C292.741,125.623,299.512,126.852,306.294,127.994z"/>
		<path style="fill:#231815;" d="M267.948,223.232c-0.223-8.391-0.54-16.868,0.16-25.243c0.081-0.962,0.906-9.162-1.019-8.894
			c-1.748,0.243-1.277,7.023-1.2,8.134c0.61,8.77,0.996,17.599,1.074,26.393c0.045,5.109,0.107,10.219,0.121,15.328
			c0.003,1.186-0.82,7.888,0.776,8.566c1.211,0.514,0.551-8.824,0.502-9.881C268.139,232.835,268.061,228.033,267.948,223.232z"/>
		<path style="fill:#231815;" d="M268.523,129.77c-0.156,7.311,0.07,14.626,0.026,21.938c-0.021,3.485-0.079,6.975-0.326,10.453
			c-0.024,0.337-0.626,3.363-0.433,3.581c-0.31-0.35-0.2-2.205-0.248-2.674c-0.239-2.351-0.343-4.706-0.358-7.069
			c-0.034-5.073-0.192-10.132-0.315-15.202c-0.063-2.582,0.375-18.783,0.847-18.725C268.207,122.132,268.434,128.916,268.523,129.77
			z"/>
		<path style="fill:#231815;" d="M342.879,257.642c4.769,1.221,9.692,1.224,14.54,1.905c0.841,0.118,3.994,0.241,3.523,1.526
			c-0.469,1.281-4.599,1.208-5.615,1.142c-5.666-0.368-11.355-1.379-16.986-2.145c-9.988-1.359-20.005-2.64-29.954-4.268
			c-8.985-1.47-17.965-2.983-26.959-4.398c-3.551-0.559-7.729-0.559-11.11-1.807c-0.664-0.245-3.168-1.217-2.427-2.252
			c0.437-0.611,3.14,0.13,3.749,0.224c10.325,1.6,20.474,3.817,30.747,5.685c6.437,1.17,12.98,1.813,19.448,2.819
			c3.554,0.553,7.044,1.051,10.645,1.15C335.801,257.313,339.635,256.81,342.879,257.642z"/>
		<path style="fill:#231815;" d="M372.798,127.353c-0.638,0.787-3.065,2.678-2.099,3.781c1.286,1.47,4.226-0.995,4.963-1.896
			c2.891-3.539,2.758-8.828,2.576-13.127c-0.186-4.412-0.929-9.105-0.095-13.488c0.882-4.637,3.107-9.215,5.736-13.1
			c2.644-3.907,5.984-7.32,10.031-9.772c0.751-0.455,4.428-2.151,3.674-3.47c-0.743-1.3-3.797,0.078-4.61,0.477
			c-3.97,1.952-6.645,5.746-9.139,9.257c-2.662,3.748-4.966,7.703-6.449,12.071c-1.589,4.679-1.486,9.444-1.615,14.329
			C375.651,116.979,375.936,123.613,372.798,127.353z"/>
		<path style="fill:#231815;" d="M405.764,87.82c0.343,8.942-1.134,18.098-3.763,26.63c-1.362,4.42-3.091,8.78-5.47,12.757
			c-0.979,1.636-2.064,3.227-3.327,4.659c-0.361,0.409-3.492,2.964-3.495,2.949c-0.058-0.312,1.887-2.518,2.101-2.87
			c1.212-1.991,2.236-4.101,3.239-6.202c2.879-6.032,5.094-12.269,6.276-18.862c0.904-5.047,1.953-10.217,2.055-15.355
			c0.059-2.987-0.131-6.009-0.617-8.958c-0.058-0.35-1.054-5.001-0.887-5.004c1.095-0.021,2.359,4.306,2.6,5.032
			C405.037,84.297,405.45,86.056,405.764,87.82z"/>
		<path style="fill:#231815;" d="M360.379,122.402c-1.188-3.676-3.047-7.098-4.229-10.781c-1.331-4.149-1.855-8.484-1.351-12.822
			c0.48-4.137,1.823-8.159,3.737-11.849c0.366-0.706,3.571-6.855,4.601-6.623c-0.426-0.096-4.116,10.713-4.413,11.612
			c-1.63,4.925-2.266,10.133-1.015,15.226c0.868,3.537,1.952,6.997,3.352,10.358c0.973,2.338,2.045,4.684,2.437,7.207
			c0.175,1.13,0.461,6.154-1.295,6.421c0.069-0.01-0.108-4.045-0.198-4.498C361.704,125.15,361.084,123.757,360.379,122.402z"/>
		<path style="fill:#231815;" d="M367.672,82.353c2.365,1.962,4.182,4.497,5.304,7.357c0.465,1.185,2.178,6.025,0.929,7.208
			c0.146-0.138-1.111-3.144-1.179-3.375c-0.608-2.045-1.2-3.985-2.417-5.766c-0.719-1.053-1.403-2.194-2.282-3.126
			c-0.731-0.775-3.586-2.178-3.781-3.28C364.188,81.038,367.456,82.25,367.672,82.353z"/>
		<path style="fill:#231815;" d="M381.091,183.498c-4.006-2.629-8.726-4.59-13.489-5.238c-2.154-0.293-4.338-0.255-6.437,0.356
			c-0.352,0.102-4.194,1.79-4.193,1.792c-0.262-0.434,2.2-2.706,2.638-3.02c1.62-1.161,3.661-1.514,5.611-1.571
			c3.681-0.108,8.055,0.587,11.332,2.316c2.968,1.566,6.238,3.129,8.736,5.39c0.797,0.721,2.23,1.911,0.514,1.784
			C384.376,185.202,382.527,183.929,381.091,183.498z"/>
		<path style="fill:#231815;" d="M357.502,185.48c-2.233-0.292-1.585,3.05-2.859,3.618c-1.129,0.503-0.566-2.103-0.303-2.776
			c0.551-1.41,1.451-2.451,3.141-2.295C359.115,184.179,358.867,185.645,357.502,185.48z"/>
		<path style="fill:#231815;" d="M356.787,192.224c-1.341,2.037,0.037,3.688,1.676,4.709c1.582,0.985,3.127,1.575,4.994,1.769
			c0.769,0.08,3.312-0.336,3.923,0.094c-0.129-0.091-1.622,0.773-1.91,0.863c-1.346,0.419-2.764,0.357-4.129,0.063
			c-1.592-0.342-3.065-1.117-4.371-1.943c-1.603-1.014-2.288-2.187-2.105-4.204c0.108-1.196,0.625-2.519,1.689-3.17
			c0.547-0.335,2.245-0.831,2.573,0.13C358.977,190.092,356.939,191.53,356.787,192.224z"/>
		<path style="fill:#231815;" d="M266.516,165.875c-3.139-1.072-6.104,0.49-7.361,3.451c-1.355,3.194-0.72,6.986,0.338,10.168
			c1.091,3.282,2.728,6.446,4.697,9.285c0.319,0.46,4.482,5.706,4.89,5.357c-0.537,0.458-3.909-1.916-4.358-2.265
			c-1.961-1.526-3.464-3.552-4.696-5.689c-2.553-4.426-4.604-9.665-4.131-14.865c0.363-3.989,3.339-7.568,7.424-8.124
			c2.4-0.327,4.82,0.411,6.81,1.741c0.802,0.536,4.399,3.273,3.807,4.586c-0.051,0.114-3.312-2.204-3.655-2.391
			C269.112,166.494,267.845,166.019,266.516,165.875z"/>
		<path style="fill:#231815;" d="M270.154,170.888c2.012,0.759,3.787,2.431,4.416,4.517c0.422,1.4,0.318,4.128-1.491,4.639
			c0.183-0.051,0.363-2.18,0.367-2.348c0.041-1.58-0.439-2.473-1.446-3.632c-0.414-0.477-0.827-0.981-1.36-1.339
			c-0.343-0.231-2.921-0.785-2.923-1.229C267.714,170.983,269.755,170.889,270.154,170.888z"/>
		<path style="fill:#231815;" d="M269.558,179.121c2.185,0.544,3.559,2.587,3.612,4.775c0.042,1.727-1.175,4.784-3.376,4.655
			c0.201,0.012,1.245-1.975,1.326-2.138c0.55-1.105,0.834-2.223,0.408-3.422c-0.236-0.666-0.797-1.646-1.359-2.063
			c-0.377-0.281-3.085-0.537-3.106-0.972C267.045,179.553,269.481,178.95,269.558,179.121z"/>
		<path style="fill:#231815;" d="M291.955,144.542c3.524,0.311,7.049,0.622,10.577,0.881c1.29,0.095,3.044-0.301,3.374,1.184
			c0.344,1.55-0.181,1.773-1.246,2.171c-3.405,1.273-7.982,2.055-11.606,1.985c-4.026-0.077-3.926-5.096-3.975-8.251
			C290.038,143.189,290.997,143.866,291.955,144.542z"/>
		<path style="fill:#231815;" d="M292.014,156.113c2.461-0.267,5.063-0.017,7.534,0.018c1.596,0.022,5.272-0.693,3.902,2.345
			c-0.824,1.827-6.119,2.857-7.904,3.087C292.201,161.995,289.667,159.163,292.014,156.113z"/>
		<path style="fill:#231815;" d="M290.746,169.352c2,2.368,14.37-4.893,14.592-4.384c0.226,0.516-1.572,2.086-1.919,2.442
			c1.4-0.748,2.801-1.497,4.201-2.245c-3.825,3.977-7.913,8.176-12.613,11.112c-2.948,1.841-4.74,1.414-6.323-1.989
			C287.634,172.032,286.762,165.799,290.746,169.352z"/>
		<path style="fill:#231815;" d="M294.927,148.591c0.832,0.757,0.865,2.678,0.98,3.681c0.244,2.132,0.307,4.287,0.34,6.431
			c0.06,3.844-0.514,7.774-0.37,11.588c0.053,1.411,0.984,1.49,2.351,0.793c1.804-0.92,1.735-2.525,1.684-4.277
			c-0.134-4.644-0.489-9.283-0.733-13.923c-0.069-1.303,0.366-4.1-0.188-5.293C298.257,146.011,295.92,147.858,294.927,148.591z"/>
		<path style="fill:#231815;" d="M307.988,143.08c0.656,0.884,0.47,2.75,0.506,3.766c0.079,2.264,0.03,4.535-0.043,6.798
			c-0.071,2.197-0.175,4.396-0.344,6.588c-0.06,0.778-0.613,2.541-0.398,3.292c0.452,1.577,3.487,2.019,4.611,1.085
			c1.224-1.017,1.089-3.549,1.195-4.974c0.344-4.625,0.342-9.27,0.424-13.905c0.012-0.679,0.155-1.519-0.199-2.126
			c-0.69-1.183-2.983-1.957-4.069-2.667C307.593,139.576,307.585,141.261,307.988,143.08z"/>
		<path style="fill:#231815;" d="M316.414,143.929c2.987,0.274,6,0.783,9.007,0.753c1.528-0.015,1.515-0.455,2.612-1.266
			c1.499-1.108,3.347,0.026,4.584,1.173c3.234,3.001,1.796,6.913,1.394,10.684c-0.404,3.788-0.58,7.599-0.828,11.399
			c-0.124,1.891,0.415,4.963-1.85,5.555c-1.182,0.309-2.795,0.103-3.781-0.634c-1.276-0.953-1.141-2.231-1.119-3.656
			c0.051-3.392,0.013-6.784-0.032-10.175c-0.022-1.657-0.048-3.314-0.077-4.971c-0.015-0.872,0.305-2.727-0.067-3.537
			c-0.58-1.264-4.854-1.11-6.371-1.326c-1.388-0.197-3.376-0.152-4.655-0.762C313.432,146.309,314.512,143.756,316.414,143.929z"/>
		<path style="fill:#231815;" d="M315.189,151.941c1.996-0.077,4.072,0.092,6.044,0.377c0.894,0.129,2.21,0.197,2.981,0.736
			c0.646,0.452,1.651,1.897,1.37,2.738c-0.341,1.02-5.787-0.037-6.832-0.18C316.812,155.345,313.546,154.591,315.189,151.941z"/>
		<path style="fill:#231815;" d="M315.656,158.451c2.373,0.688,4.962,0.885,7.406,1.188c0.932,0.116,3.089,0.936,2.149,2.494
			c-0.753,1.249-5.619-0.07-6.871-0.324C317.082,161.554,312.416,159.955,315.656,158.451z"/>
		<path style="fill:#231815;" d="M311.253,165.541c1.967,0.147,20.272,1.136,18.358,5.203c-0.538,1.144-4.605,0.351-5.613,0.311
			c-3.318-0.134-6.691-0.209-9.972-0.757c-2.239-0.374-4.316-1.103-5.016-3.51C308.397,164.684,309.645,164.153,311.253,165.541z"/>
		<path style="fill:#231815;" d="M317.72,172.993c0.542,6.826-5.818,9.875-11.802,9.727c2.301-1.5,4.667-3.562,5.565-6.251
			c0.301-0.9,0.44-1.851,0.273-2.793c-0.092-0.522-0.853-1.604-0.616-2.085C311.842,170.169,316.7,172.551,317.72,172.993z"/>
		<path style="fill:#231815;" d="M320.563,172.623c0.506,2.701-0.871,5.702-0.949,8.423c-0.12,4.175,2.071,5.775,5.725,7.154
			c2.925,1.104,8.018,3.424,11.208,2.16c1.73-0.686,1.718-2.639,1.458-4.268c-0.149-0.932-1.392-3.199-0.993-4.085
			c-0.774,1.718-0.673,3.803-2.966,4.322c-2.726,0.616-7.174-0.756-8.329-3.429c-1.338-3.096,0.923-6.318,0.138-9.315
			C325.299,171.457,322.205,172.236,320.563,172.623z"/>
		<path style="fill:#231815;" d="M288.268,196.329c2.867,1.558,0.789,7.611,1.077,9.97c0.349,2.869,4.755,3.302,5.871,0.825
			c0.948-2.103,2.05-6.957,0.889-9.115C294.966,195.891,290.361,196.315,288.268,196.329z"/>
		<path style="fill:#231815;" d="M298.558,200.108c8.456,1.249,17.115,3.767,25.676,4.014c1.41,0.041,1.5-0.253,2.647-1.116
			c2.126-1.599,4.079,0.473,5.81,1.89c0.85,0.696,2.465,1.58,2.542,2.67c0.12,1.714-1.696,3.863-2.896,4.956
			c-1.574,1.434-7.367,6.155-9.635,4.145c-2.122-1.881,2.436-5.805,0.587-6.963c-0.548-0.343-1.884-0.246-2.538-0.343
			c-1.67-0.246-3.338-0.512-5.004-0.785c-4.025-0.658-8.046-1.356-12.048-2.143c-2.801-0.551-6.289-0.85-8.86-2.197
			c-0.936-0.49-2.458-1.745-2.105-2.998C293.299,199.235,297.197,199.907,298.558,200.108z"/>
		<path style="fill:#231815;" d="M305.784,193.039c1.661,0.482,1.51,3.024,1.576,4.349c0.042,0.84,0.206,1.77,0.118,2.602
			c-0.064,0.603-0.574,1.367-0.256,1.957c0.508,0.941,3.95,1.759,4.947,2.057c1.717,0.513,2.205,0.534,2.307-1.2
			c0.105-1.782,0.643-3.94,0.061-5.677c-0.49-1.464-2.152-3.013-3.235-4.126C309.687,191.344,305.619,189.045,305.784,193.039z"/>
		<path style="fill:#231815;" d="M307.227,209.652c0.723,3.089-0.279,6.708-0.684,9.781c-0.424,3.216-0.666,6.067-2.293,8.953
			c-1.631,2.894-4.045,5.46-6.985,7.041c-0.846,0.455-5.963,2.329-3.171,3.217c2.901,0.923,7.442-1.285,9.886-2.613
			c2.869-1.559,5.643-3.778,7.123-6.755c1.16-2.334,1.068-5.077,1.272-7.623c0.219-2.732,0.438-5.465,0.657-8.198
			c0.132-1.642,0.696-2.399-0.68-3.135C311.82,210.036,306.99,208.188,307.227,209.652z"/>
		<path style="fill:#231815;" d="M309.594,223.679c5.761,7.031,12.051,15.391,20.256,19.62c0.627,0.323,6.617,2.691,6.208,3.763
			c-0.524,1.371-5.818,0.711-6.827,0.595c-6.652-0.769-10.322-5.74-14.222-10.681C313.844,235.5,304.461,224.415,309.594,223.679z"
			/>
		<path style="fill:#231815;" d="M301.046,210.532c4.65,2.157,10.431,2.746,15.445,3.595c1.53,0.259,4.191,0.119,5.295,1.358
			c1.69,1.896,0.026,2.559-1.732,2.316c-5.107-0.706-10.225-1.622-15.255-2.749c-1.495-0.335-3.513-0.548-4.674-1.65
			C298.682,212.03,298.291,208.418,301.046,210.532z"/>
		<path style="fill:#231815;" d="M300.505,217.275c4.65,2.157,10.431,2.746,15.446,3.595c1.53,0.259,4.191,0.119,5.295,1.358
			c1.69,1.897,0.025,2.559-1.732,2.316c-5.107-0.706-10.225-1.622-15.255-2.75c-1.495-0.335-3.513-0.548-4.674-1.65
			C298.141,218.773,297.751,215.162,300.505,217.275z"/>
		<path style="fill:#231815;" d="M294.258,221.158c5.229,2.573,11.404,3.763,17.015,5.193c2.878,0.733,5.764,1.443,8.665,2.081
			c1.818,0.4,4.055,0.422,5.324,1.946c0.571,0.685,1.426,2.157,0.479,2.901c-0.596,0.469-1.738,0.05-2.413-0.077
			c-2.37-0.446-4.723-1.026-7.072-1.572c-6.05-1.405-12.113-2.841-18.073-4.597c-2.025-0.597-4.43-1.063-5.846-2.761
			C290.32,221.851,290.796,218.518,294.258,221.158z"/>
		<path style="fill:#231815;" d="M382.645,94.421c0.659-1.386,1.406-3.696,2.805-4.532c1.894-1.13,3.173,1.312,4.187,2.591
			c0.147,0.186,0.764,1.265,1.036,1.306c0.689,0.105,3.089-1.517,3.899-1.738c0.644-0.175,3.328-1.284,3.832-0.76
			c0.78,0.811-2.183,3.27-1.556,4.332c0.599,1.016,3.192-0.096,4.273,0.984c0.865,0.864,0.148,3.027,1.387,3.559
			c2.71,1.163,2.859-7.389,2.819-8.577c-0.147-4.421-0.932-9.462-2.942-13.447c-2.879-5.709-10.87,1.697-13.616,4.357
			c-2.88,2.79-5.625,5.9-7.872,9.229c-0.503,0.745-1.736,2.133-0.729,2.875C380.74,95.022,382.038,94.605,382.645,94.421z"/>
		<path style="fill:#231815;" d="M357.478,93.147c0.688-3.273,2.5-14.627,8.214-11.321c2.433,1.408,3.925,4.32,5.025,6.785
			c0.707,1.582,2.229,4.314,2.141,6.122c-0.043,0.887,0.3,0.202-0.22,0.78c-1.054,1.172-3.096-0.261-4.171-0.076
			c-0.699,0.121-0.987,0.801-1.618,0.883c-1.591,0.206-1.967-2.123-2.602-2.885c-0.07-0.084,0.094-0.538-0.078-0.608
			c-0.353-0.142-1.593,0.715-1.838,0.874c-0.708,0.458-1.258,1.055-1.975,1.499C358.296,96.474,357.354,95.252,357.478,93.147z"/>
		<path style="fill:#231815;" d="M396.337,140.702c0.694,3.764,1.909,7.427,3.018,11.083c0.556,1.835,1.11,3.67,1.601,5.523
			c0.207,0.779,1.143,3.001,0.8,3.739c0.047-0.101-1.516-1.809-1.622-1.966c-1.176-1.734-1.739-3.776-2.414-5.735
			c-0.798-2.317-1.926-4.627-2.392-7.034c-0.256-1.325-0.486-2.644-0.792-3.961c-0.299-1.288-1.197-3.768-0.657-5.105
			c0.317-0.784,0.154-0.734,0.711-0.277C395.335,137.581,395.849,139.778,396.337,140.702z"/>
		<path style="fill:#231815;" d="M391.685,188.839c2.271,2.481,5.217,4.217,7.58,6.604c0.909,0.918,4.752,4.85,4.136,6.505
			c0.06-0.16-2.772-2.552-2.991-2.791c-1.732-1.89-3.435-3.499-5.517-4.993c-1.556-1.117-7.115-5.291-6.53-7.273
			C388.413,186.716,391.462,188.714,391.685,188.839z"/>
		<path style="fill:#231815;" d="M378.608,199.729c7.289,6.387,10.846,16.106,18.311,22.273c3.337,2.757,7.168,3.738,11.401,2.642
			c2.02-0.523,3.921-1.414,5.752-2.395c0.43-0.23,4.003-1.901,4.009-2.198c-0.007,0.35-1.753,1.539-2.082,1.823
			c-0.994,0.855-2.043,1.65-3.149,2.351c-2.475,1.569-5.313,2.663-8.274,2.668c-6.925,0.012-11.73-5.753-15.622-10.759
			c-2.982-3.835-5.321-8.142-8.525-11.807c-1.938-2.217-4.172-4.251-6.754-5.695c-0.527-0.295-5.835-2.72-6.077-2.423
			c0.782-0.96,5.091,0.529,5.926,0.825C375.361,197.687,376.987,198.668,378.608,199.729z"/>
		<path style="fill:#231815;" d="M417.39,174.429c10.483,10.162,18.285,21.844,23.641,35.429c2.606,6.609,4.707,13.422,7.625,19.906
			c1.041,2.313,2.171,4.593,3.457,6.781c0.953,1.619,2.92,3.519,3.345,5.316c-0.142-0.603-1.984-1.921-2.46-2.41
			c-1.259-1.293-2.439-2.659-3.499-4.121c-2.264-3.123-4.042-6.587-5.536-10.135c-3.571-8.48-6.293-17.252-10.825-25.309
			c-3.467-6.164-7.433-12.385-12.172-17.645c-3.176-3.524-6.68-6.716-10.224-9.862c-0.744-0.661-7.993-6.156-7.496-7.089
			C403.601,164.627,416.151,173.51,417.39,174.429z"/>
		<path style="fill:#231815;" d="M400.803,296.948c-7.14,2.65-14.913,5.289-20.235,11.002c-5.575,5.985-7.779,14.064-11.779,21.028
			c-3.857,6.715-9.443,12.491-17.133,14.53c-7.617,2.02-15.666,0.803-23.099-1.386c-4.13-1.216-8.16-2.741-12.28-3.989
			c-1.692-0.513-3.4-0.974-5.128-1.347c-1.298-0.28-2.912-0.262-4.14-0.781c0.855,0.362,2.996,0.025,4.011,0.099
			c2.373,0.173,4.729,0.525,7.058,1.01c4.647,0.967,9.19,2.374,13.827,3.385c9.785,2.133,20.574,2.294,28.311-5.003
			c7.008-6.61,8.714-16.199,13.725-24.05c4.85-7.599,12.076-11.758,20.247-15.074c5.372-2.18,10.469-3.804,16.278-4.278
			c2.537-0.207,5.08-0.378,7.575-0.91c1.063-0.226,2.109-0.521,3.143-0.852c0.517-0.165,2.189-1.082,2.813-0.814
			c0.236,0.102-2.955,2.009-3.173,2.107c-2.387,1.07-4.934,1.679-7.498,2.142C409.015,294.549,404.846,295.183,400.803,296.948z"/>
		<path style="fill:#231815;" d="M364.059,286.725c-3.975,10.048-6.448,21.529-13.273,30.164c-3.215,4.068-7.329,6.571-12.624,6.365
			c-4.777-0.186-9.26-1.91-13.754-3.358c-4.644-1.497-9.594-2.634-14.253-0.493c-1.936,0.889-3.67,2.332-4.522,4.323
			c-0.692,1.619-0.855,5.397,1.626,3.474c1.789-1.387,2.291-2.755,4.649-3.506c2.382-0.758,4.89-0.699,7.33-0.297
			c4.325,0.712,8.599,1.739,12.932,2.402c4.845,0.742,9.909,0.886,14.286-1.634c4.514-2.599,7.529-7.224,9.825-11.768
			c4.71-9.324,6.738-19.757,11.52-29.028c4.899-9.495,11.882-17.833,20.926-23.626c3.831-2.454,7.879-4.238,12.111-5.855
			c1.788-0.683,3.622-1.537,4.521-3.344c0.637-1.279,0.837-4.804-1.054-5.394c-1.564-0.488-0.757,2.051-1.117,3.046
			c-0.522,1.438-1.958,2.078-3.285,2.645c-5.354,2.285-10.357,4.952-15.007,8.489C375.664,266.348,368.358,275.954,364.059,286.725z
			"/>
		<path style="fill:#231815;" d="M366.772,221.583c2.097,0.608,4.456,0.262,6.388-0.702c1.012-0.505,1.872-1.207,2.753-1.904
			c0.185-0.146,1.631-1.03,1.62-1.013c-0.223,0.268-0.189,0.849-0.291,1.168c-0.273,0.859-0.798,1.564-1.458,2.171
			c-1.189,1.093-2.883,2.015-4.443,2.418c-1.071,0.276-8.364-0.322-7.432-1.869C364.105,221.527,366.248,221.689,366.772,221.583z"
			/>
		<path style="fill:#231815;" d="M377.105,213.241c4.474,6.737,8.304,13.957,11.051,21.573c1.325,3.675,2.421,7.454,3.02,11.319
			c0.127,0.818,1.221,7.188,0.257,7.592c0.023-0.01-4.133-12.797-4.318-13.376c-1.805-5.65-4.722-10.501-7.084-15.858
			c-2.128-4.827-5.004-9.051-8.023-13.369c-0.532-0.761-1.098-1.513-1.568-2.315c-0.478-0.814-1.151-1.732,0.092-1.407
			c1.11,0.291,2.454,2.027,3.328,2.803C374.968,211.188,376.033,212.216,377.105,213.241z"/>
		<path style="fill:#231815;" d="M374.307,157.466c-2.132-1.468-3.24-6.154-0.981-7.979c0.503-0.406,1.211-0.633,1.859-0.549
			c1.38,0.178,1.326,1.183,1.234,2.494c-0.114,1.623-2.252,7.111-4.064,4.082"/>
		<path style="fill:#231815;" d="M372.718,154.445c0.188,0.574,1.728,2.932,1.349,3.015c-1.788,0.393-2.449-4.694-2.359-5.56
			c0.2-1.926,1.572-3.969,3.808-3.458c0.208,0.048,0.845,0.073,1.007,0.237c0.089,0.09,0.424,1.774,0.041,1.649
			c-0.348-0.114-0.399-0.745-0.754-0.82c-0.68-0.142-1.574,0.023-2.124,0.436C372.427,150.89,372.435,153.055,372.718,154.445z"/>
		<path style="fill:#231815;" d="M375.544,153.245c0.049-0.377,0.226-0.652,0.532-0.825c1.099,0.232-1.4,3.775-1.929,3.996
			c-0.526,0.22-1.979,0.244-1.815-0.874c-0.057,0.256,1.17,0.619,1.457,0.505C374.521,155.756,375.322,153.842,375.544,153.245z"/>
		<path style="fill:#231815;" d="M376.08,164.399c1.058,0.499,6.912,1.655,6.732,3.371c-0.035,0.334-4.982-1.052-5.581-1.263
			c-0.475-0.168-2.801-0.941-2.865-1.567C374.283,164.136,375.435,164.493,376.08,164.399z"/>
		<path style="fill:#231815;" d="M384.749,161.94c0.934,0.796,3.698,0.604,4.263,1.643c0.518,0.954-1.554,0.726-2.153,0.674
			C385.378,164.126,381.461,162.12,384.749,161.94z"/>
		<path style="fill:#231815;" d="M390.195,160.869c0.051,0.645,1.571,0.295,1.641,1.084c0.075,0.848-1.778,0.854-2.169,0.637
			C388.024,161.677,389.754,159.986,390.195,160.869z"/>
		<path style="fill:#231815;" d="M430.355,304.05c12.839,8.009,27.51,10.298,41.374,3.397c6.306-3.139,11.839-7.669,16.401-13.017
			c1.659-1.945,3.165-4.007,4.594-6.126c0.419-0.622,3.504-4.715,3.326-5.061c0.149,0.291-0.662,1.663-0.791,1.994
			c-0.606,1.558-1.178,3.12-1.909,4.627c-1.223,2.52-2.701,4.926-4.417,7.14c-4.274,5.516-10.009,10.003-16.234,13.126
			c-6.228,3.124-13.426,5.188-20.449,4.912c-6.776-0.266-13.734-3.244-19.666-6.353c-3.711-1.945-7.224-4.251-10.431-6.95
			c-0.548-0.461-7.028-5.971-6.224-6.981c0.17-0.213,6.439,4.685,7.073,5.106C425.351,301.424,427.815,302.826,430.355,304.05z"/>
		<path style="fill:#231815;" d="M463.147,282.131c1.53,2.313,3.684,5.263,6.745,5.177c3.353-0.094,5.987-2.926,7.936-5.35
			c2.357-2.933,4.223-6.238,6.667-9.103c2.512-2.945,5.673-5.611,8.984-7.617c3.123-1.891,7.006-3.376,10.63-2.081
			c3.088,1.103,5.158,3.691,6.278,6.692c1.323,3.545,1.347,7.506,1.074,11.237c-0.115,1.573-0.299,3.144-0.517,4.706
			c-0.038,0.272-0.531,2.382-0.465,2.44c-0.275-0.241-0.076-1.743-0.093-2.121c-0.075-1.641-0.207-3.281-0.336-4.918
			c-0.275-3.481-0.587-7.11-1.938-10.364c-2.619-6.312-8.181-6.38-13.443-2.992c-3.039,1.956-5.959,4.516-8.179,7.368
			c-2.131,2.739-3.685,5.894-5.905,8.564c-3.898,4.69-10.43,9.052-16.062,4.404c-3.29-2.714-5.489-6.796-7.231-10.617
			c-0.336-0.737-4.201-9.218-3.043-9.843C453.984,267.856,462.08,280.859,463.147,282.131z"/>
		<path style="fill:#231815;" d="M452.9,258.314c-0.692,3.381-0.944,6.841-2.15,10.102c-0.448,1.211-2.774,6.528-4.755,6.253
			c0.312,0.043,2.96-6.778,3.075-7.151c0.576-1.854,0.645-3.777,1.142-5.636c0.439-1.644,0.294-6.236,1.816-7.241
			C452.993,254.003,452.797,257.568,452.9,258.314z"/>
		<path style="fill:#231815;" d="M441.14,278.293c-2.291,2.487-4.182,5.31-6.678,7.613c-0.928,0.857-5.104,4.601-6.722,3.762
			c0.129,0.067,5.298-4.982,5.63-5.322c1.308-1.339,2.277-2.928,3.564-4.268c1.086-1.131,3.682-5.432,5.363-5.344
			C443.382,274.791,441.448,277.569,441.14,278.293z"/>
		<path style="fill:#231815;" d="M450.365,245.971c1.741,0.83,4.223,1.382,5.768,2.522c1.747,1.29-1.249,1.277-2.22,1.045
			c-1.42-0.338-2.428-0.731-3.633-1.46C448.391,246.938,447.977,246.501,450.365,245.971z"/>
		<path style="fill:#231815;" d="M308.571,331.202c-1.294,0.173-2.644,2.418-3.971,2.071c-1.366-0.357,0.377-2.05,0.916-2.574
			C306.732,329.518,310.251,328.275,308.571,331.202z"/>
		<path style="fill:#231815;" d="M309.598,335.348c-1.294,0.173-2.643,2.419-3.971,2.072c-1.365-0.357,0.377-2.05,0.916-2.574
			C307.759,333.664,311.281,332.422,309.598,335.348z"/>
		<path style="fill:#231815;" d="M499.159,300.949c-2.675-1.107-3.239-4.382-3.325-6.937c-0.043-1.254-0.192-6.344,1.279-7.073
			c0.242-0.12,0.647,7.206,0.747,7.786c0.167,0.966,0.37,2.328,0.783,3.201c0.512,1.084,3.807,1.487,3.835,2.046
			C502.515,300.762,499.538,300.985,499.159,300.949z"/>
		<path style="fill:#231815;" d="M504.254,295.588c-0.232,1.615,1.752,1.178,2.037,2.198c0.387,1.382-2.247,0.82-2.704,0.566
			C501.832,297.378,501.732,293.569,504.254,295.588z"/>
		<path style="fill:#231815;" d="M508.266,295.283c0.056,1.271,2.624,0.78,2.619,1.969c-0.005,1.226-2.643,0.84-3.192,0.509
			c-0.578-0.349-1.488-1.321-1.321-2.178C506.533,294.756,508.028,294.402,508.266,295.283z"/>
		<path style="fill:#231815;" d="M400.351,190.451c0.01,2.237,3.413,6.643,1.158,8.622c0.218-0.191-2.353-5.514-2.574-6.293
			c-0.226-0.795-0.74-2.895-0.115-3.63C399.704,188.111,399.819,189.779,400.351,190.451z"/>
		<path style="fill:#231815;" d="M126.533,271.66c-4.677-4.38-11.668-6.908-17.563-9.071c-8.332-3.057-16.837-4.873-25.566-6.332
			c-7.794-1.302-15.586-2.553-23.487-2.977c-2.169-0.117-4.716,0.17-6.752-0.63c-3.715-1.459-3.313-4.93-0.795-7.31
			c2.836-2.681,6.116-4.946,9.55-6.785c1.681-0.9,6.834-4.084,8.788-2.883c2.583,1.588-2.149,3.212-3.086,3.545
			c-3.086,1.096-6.115,2.333-8.943,3.999c-1.881,1.108-8.989,4.883-5.691,7.469c1.321,1.036,3.213,0.813,4.775,0.835
			c2.349,0.032,4.697,0.144,7.04,0.313c9.294,0.67,18.687,2.034,27.844,3.751c9.065,1.7,18.101,4.455,26.495,8.292
			c3.276,1.497,6.562,3.168,9.496,5.277c0.965,0.693,3.538,2.427,2.909,3.913C130.711,275.045,127.364,272.366,126.533,271.66z"/>
		<path style="fill:#231815;" d="M74.85,229.122c2.604-4.661,5.599-12.044,12.365-9.991c2.971,0.901,4.738,3.757,6.074,6.362
			c0.867,1.692,1.592,3.453,2.39,5.177c0.22,0.475,1.408,3.526,1.553,3.554c-1.086-0.209-2.876-2.386-3.552-3.207
			c-1.426-1.732-2.338-3.775-3.549-5.646c-2.447-3.78-5.621-4.528-8.865-1.249c-2.662,2.691-3.358,6.692-5.838,9.515
			c-0.606,0.69-3.594,3.108-2.914,1.053c0.299-0.906,1.201-1.811,1.558-2.786C74.402,231.001,74.64,230.059,74.85,229.122z"/>
		<path style="fill:#231815;" d="M111.339,228.08c1.362-2.86,2.73-6.559,6.134-7.452c3.54-0.929,7.525,1.583,10.052,3.81
			c2.787,2.457,4.949,5.524,7.141,8.497c0.851,1.155,1.694,2.317,2.571,3.453c0.52,0.674,1.894,1.834,1.965,2.656
			c-0.027-0.318-3.618-2.079-4.158-2.506c-1.891-1.494-3.384-3.349-4.91-5.196c-2.763-3.344-6.709-7.822-11.531-7.673
			c-3.991,0.123-4.805,7.588-7.201,9.979c-0.558,0.557-1.592,1.487-2.466,1.32c-1.176-0.224-0.451-0.384,0.058-1.012
			C110.419,232.198,110.913,230.305,111.339,228.08z"/>
		<path style="fill:#231815;" d="M85.309,274.04c6.276,4.512,12.516,9.251,17.077,15.587c2.166,3.01,3.949,6.419,4.688,10.078
			c0.141,0.698,0.903,6.803-0.482,6.902c0.456-0.033-1.132-5.147-1.315-5.626c-1.042-2.74-2.296-5.44-3.901-7.896
			c-2.897-4.435-6.972-7.484-10.688-11.135c-3.777-3.712-8.743-5.874-12.578-9.458c-2.661-2.487,1.268-0.809,2.549-0.3
			C82.209,272.808,83.759,273.424,85.309,274.04z"/>
		<path style="fill:#231815;" d="M152.749,240.101c11.092,4.056,22.029,8.847,31.94,15.324c4.74,3.098,9.299,6.591,13.14,10.772
			c1.417,1.542,2.738,3.176,3.914,4.91c0.496,0.732,2.519,3.225,2.214,4.109c0.289-0.838-4.92-5.036-5.71-5.747
			c-2.848-2.563-5.8-5.085-8.864-7.385c-5.618-4.217-11.706-7.819-18.122-10.68c-4.178-1.863-8.167-4.096-12.4-5.843
			c-3.5-1.445-7.079-2.682-10.656-3.921c-1.178-0.408-8.782-2.168-8.865-3.553C139.319,237.729,151.479,239.831,152.749,240.101z"/>
		<path style="fill:#231815;" d="M135.949,293.736c-11.371,12.888-29.316,18.902-46.166,16.865
			c-9.048-1.094-17.948-3.181-27.006-4.209c-4.065-0.461-8.226-0.77-12.306-0.313c-1.59,0.178-3.181,0.466-4.707,0.954
			c-1.563,0.5-2.971,1.655-4.507,2.086c0.912-0.256,2.242-1.843,3.183-2.389c1.748-1.014,3.648-1.7,5.613-2.158
			c3.932-0.918,8.025-0.977,12.038-0.726c9.043,0.566,17.918,2.686,26.904,3.751c14.781,1.752,31.64-2.622,42.425-13.341
			c3.194-3.174,5.928-6.823,7.997-10.825c0.802-1.551,1.488-3.146,2.034-4.805c0.14-0.425,1.512-5.041,1.365-5.152
			c0.869,0.646,0.322,3.495,0.208,4.318c-0.28,2.03-0.862,4.011-1.578,5.924C140.091,287.337,138.139,290.568,135.949,293.736z"/>
		<path style="fill:#231815;" d="M147.003,316.344c-13.092,6.53-27.727,12.552-42.483,13.498
			c-7.435,0.477-14.675-0.855-21.865-2.618c-3.102-0.761-6.198-1.543-9.307-2.274c-0.771-0.181-6.394-2.041-6.744-1.716
			c0.295-0.273,2.141,0.127,2.521,0.145c1.595,0.074,3.189,0.13,4.78,0.263c3.454,0.288,6.876,0.826,10.283,1.451
			c7.421,1.359,14.635,2.6,22.2,1.697c6.679-0.797,12.932-3.093,19.344-4.977c6.013-1.767,11.764-4.035,17.388-6.804
			c3.487-1.717,6.916-3.548,10.361-5.347c0.654-0.341,7.413-4.344,8.024-3.591C161.858,306.501,148.373,315.471,147.003,316.344z"/>
		<path style="fill:#231815;" d="M118.098,334.177c2.069,3.255,5.08,5.859,8.037,8.281c3.126,2.56,6.301,5.194,9.664,7.438
			c3.482,2.323,7.286,4.005,11.137,5.61c0.94,0.392,8.369,2.885,8.31,4.052c0.01-0.191-5.337-0.944-5.845-1.047
			c-2.997-0.611-5.888-1.549-8.687-2.784c-5.802-2.56-11.909-6.411-16.575-10.73c-4.201-3.888-8.818-8.174-10.799-13.673
			c-0.435-1.208-0.857-2.571-0.864-3.873c-0.008-1.522,0.15-1.529,0.9-0.485c0.854,1.188,1.279,2.811,2.117,4.06
			C116.244,332.145,117.119,333.244,118.098,334.177z"/>
		<path style="fill:#231815;" d="M173.469,360.233c5.043,8.651,9.278,17.857,16.509,24.986c3.372,3.325,7.298,6.026,11.672,7.858
			c0.795,0.333,9.14,3.389,9.436,2.909c-0.135,0.218-2.583,0.104-2.88,0.111c-1.465,0.034-2.93-0.018-4.38-0.24
			c-2.919-0.446-5.714-1.474-8.279-2.927c-5.658-3.205-10.201-8.005-14.134-13.113c-3.112-4.043-5.159-8.494-7.56-12.968
			c-1.53-2.851-3.081-5.8-5.089-8.351c-0.819-1.041-1.776-2.127-3.037-2.627c-0.299-0.118-2.756-0.44-2.748-0.547
			c0.187-2.191,5.289-0.032,5.977,0.432C170.715,356.943,172.121,358.616,173.469,360.233z"/>
		<path style="fill:#231815;" d="M213.238,284.423c6.18,9.525,10.792,20.281,12.372,31.577c0.762,5.453,0.896,11.091-0.22,16.506
			c-0.405,1.964-0.958,3.918-1.791,5.747c-0.255,0.559-2.889,4.235-2.924,4.15c-0.083-0.203,1.354-3.192,1.46-3.604
			c0.372-1.444,0.606-2.933,0.803-4.409c0.459-3.439,0.648-6.943,0.573-10.411c-0.161-7.445-1.935-14.646-4.75-21.509
			c-1.847-4.504-3.366-8.862-5.868-13.091c-1.785-3.018-3.823-5.892-5.859-8.745c-0.448-0.628-3.775-4.455-3.283-5.264
			C204.017,274.933,212.417,283.451,213.238,284.423z"/>
		<path style="fill:#231815;" d="M103.83,341.957c-8.802,3.363-17.39,8.175-23.876,15.112c-3.113,3.329-5.641,7.137-7.495,11.302
			c-0.914,2.053-1.66,4.175-2.299,6.329c-0.119,0.401-1.327,4.214-1.32,4.218c-0.232-0.158-0.002-2.938,0.002-3.199
			c0.018-1.382,0.113-2.755,0.336-4.119c0.511-3.12,1.656-6.105,3.187-8.862c3.384-6.093,8.464-11.165,13.993-15.337
			c3.691-2.785,8.236-4.617,12.439-6.486c3.174-1.411,6.396-2.731,9.733-3.708c0.334-0.098,5.741-1.455,5.662-0.825
			c-0.115,0.919-4.913,2.6-5.76,3.039C106.877,340.225,105.341,341.07,103.83,341.957z"/>
		<path style="fill:#231815;" d="M156.212,367.222c-9.891,2.352-19.911,4.113-29.931,5.808c-4.792,0.81-9.603,1.552-14.365,2.526
			c-0.43,0.088-9.384,2.658-8.757,3.287c-1.158-1.163,5.793-4.615,6.721-4.964c3.98-1.501,8.209-2.159,12.368-2.959
			c7.008-1.347,14.001-3.182,21.071-4.105c6.486-0.847,12.805-2.573,19.108-4.276c1.059-0.286,6.574-1.79,3.181,0.263
			C162.669,364.578,159.38,365.919,156.212,367.222z"/>
		<path style="fill:#231815;" d="M69.77,390.293c-1.084,5.448-2.322,11.105-5.063,15.996c-2.939,5.244-7.007,7.081-12.834,7.453
			c-5.396,0.344-10.816,0.132-16.218,0.35c-2.369,0.096-4.733,0.252-7.089,0.528c-0.772,0.09-5.085,0.157-5.504,0.658
			c0.553-0.661,2.769-1.201,3.531-1.496c1.226-0.475,2.474-0.881,3.749-1.205c3.333-0.848,6.758-1.144,10.186-1.269
			c3.739-0.137,7.493-0.123,11.224-0.44c2.815-0.239,5.501-0.527,7.582-2.614c3.957-3.97,5.861-10.21,6.976-15.536
			c0.691-3.302,1.198-6.643,1.768-9.967c0.116-0.674,0.53-5.193,1.388-5.381C69.903,377.274,69.819,389.139,69.77,390.293z"/>
		<path style="fill:#231815;" d="M45.063,419.536c-4.187,0.148-8.388,0.723-12.473,1.649c-0.742,0.168-10.197,2.776-10.191,2.815
			c-0.035-0.212,2.275-1.759,2.41-1.848c1.938-1.267,4.201-1.924,6.409-2.548c2.603-0.735,5.33-1.582,8.045-1.702
			c1.613-0.071,3.219-0.149,4.83-0.261c1.18-0.083,4.202-0.658,5.342,0.069c0.662,0.422,0.567,0.217,0.012,0.642
			C48.538,419.05,46.202,419.197,45.063,419.536z"/>
		<path style="fill:#231815;" d="M50.094,425.277c-4.294,0.375-8.489,1.854-12.572,3.149c-0.546,0.173-8.097,2.746-8.333,2.042
			c-0.084-0.25,3.348-2.082,3.57-2.189c2.718-1.312,5.721-2.134,8.555-3.168c1.798-0.656,3.476-0.969,5.354-1.269
			c1.416-0.227,6.682-1.723,7.868-0.161C54.593,423.757,50.637,425.079,50.094,425.277z"/>
		<path style="fill:#231815;" d="M97.456,393.698c-3.625,6.107-7.644,11.989-11.997,17.6c-3.419,4.408-6.894,8.894-11.283,12.382
			c-5.242,4.166-11.465,6.692-17.865,8.482c-1.419,0.397-15.968,4.494-16.333,3.645c-0.222-0.518,19.548-7.355,21.258-8.024
			c8.222-3.213,14.094-8.488,19.348-15.478c4.364-5.806,9.028-11.261,12.799-17.501c2.067-3.419,4.009-6.912,5.944-10.407
			c0.319-0.577,2.831-5.847,3.621-5.617C103.64,378.982,98.068,392.323,97.456,393.698z"/>
		<path style="fill:#231815;" d="M221.057,391.428c8.522-4.389,15.186-11.983,21.971-18.569c3.366-3.267,6.798-6.553,10.679-9.212
			c1.71-1.172,3.539-2.271,5.508-2.947c0.273-0.094,4.279-0.724,4.152-0.445c-0.104,0.228-2.612,0.934-3.019,1.175
			c-1.036,0.614-2.004,1.349-2.943,2.1c-2.232,1.783-4.356,3.714-6.472,5.631c-4.727,4.284-9.077,8.967-13.488,13.57
			c-3.253,3.395-7.134,6.198-11.025,8.828c-2.619,1.77-5.368,3.389-8.394,4.358c-0.48,0.154-7.367,1.22-6.932,0.226
			c0.302-0.69,4.285-1.366,5.092-1.733C217.934,393.616,219.509,392.555,221.057,391.428z"/>
		<path style="fill:#231815;" d="M262.29,364.563c-0.751,2.785-1.259,5.637-2.311,8.335c-0.35,0.899-2.877,6.475-4.639,5.465
			c1.164,0.667,5.652-17.511,6.439-17.253C262.211,361.251,262.228,364.056,262.29,364.563z"/>
		<path style="fill:#231815;" d="M268.479,366.543c-0.193,3.434-1.218,6.827-2.329,10.06c-0.523,1.524-1.094,3.03-1.699,4.523
			c-0.228,0.563-0.84,2.788-1.431,3.08c0.072-0.036-0.153-1.606-0.155-1.764c-0.018-1.379,0.304-2.643,0.711-3.95
			c0.77-2.471,1.285-4.969,1.973-7.448c0.651-2.345,0.894-4.193,0.936-6.654c0.014-0.827-0.369-1.902,0.614-1.273
			C267.895,363.625,268.249,365.626,268.479,366.543z"/>
		<path style="fill:#231815;" d="M274.609,365.166c0.57,3.389,0.23,6.932-0.816,10.195c-0.371,1.156-2.051,6.223-3.766,6.305
			c0.037-0.002,1.152-4.375,1.26-4.676c0.888-2.479,1.114-4.749,1.409-7.322c0.123-1.075,0.274-2.017,0.15-3.114
			c-0.128-1.126-0.671-2.284-0.706-3.404C272.06,360.612,274.107,364.204,274.609,365.166z"/>
		<path style="fill:#231815;" d="M232.826,353.573c3.897,0.191,7.334-2.282,10.225-4.597c3.252-2.604,6.149-5.586,9.119-8.497
			c5.282-5.177,11.044-9.119,18.464-5.531c-0.023-0.015-0.049-0.023-0.078-0.026c8.797,2.246,12.539,13.757,13.308,21.71
			c0.464,4.795,0.055,9.675-1.34,14.292c-0.963,3.187-2.831,8.733-5.763,10.713c0.914-0.617,1.71-3.408,2.108-4.447
			c0.688-1.792,1.221-3.639,1.642-5.511c0.921-4.092,1.239-8.329,0.957-12.513c-0.506-7.508-3.195-18.342-11.137-21.27
			c-3.115-1.148-6.04-2.117-9.23-0.524c-3.202,1.599-5.806,4.64-8.42,7.034c-5.01,4.591-10.872,11.058-17.97,12.031
			c-4.634,0.635-8.824-1.822-11.472-5.499c-0.354-0.492-4.97-9.301-3.462-9.676c0.145-0.036,4.227,7.553,4.723,8.136
			C226.531,351.785,229.54,353.904,232.826,353.573z"/>
		<path style="fill:#231815;" d="M47.38,313.514c-2.978,0.398-5.811,1.799-8.409,3.237c-1.232,0.682-2.432,1.418-3.63,2.157
			c-0.537,0.331-2.179,1.715-2.839,1.597c-0.243-0.043,2.927-3.688,3.129-3.839c1.998-1.493,4.612-3.299,7.021-4.044
			c1.948-0.603,4.281-1.288,6.309-1.17c0.507,0.029,1.835,0.051,1.75,0.758C50.696,312.333,47.655,313.368,47.38,313.514z"/>
		<path style="fill:#231815;" d="M54.617,317.522c-3.308,0.102-6.625,1.307-9.617,2.633c-1.469,0.65-2.906,1.381-4.29,2.196
			c-0.55,0.323-2.282,1.816-2.92,1.796c0.112,0.004,1.095-2.037,1.239-2.217c0.831-1.041,1.967-1.747,3.104-2.4
			c1.912-1.098,3.998-2.173,6.079-2.919c1.839-0.659,9.398-2.414,10.338-0.205C58.589,316.497,55.156,317.32,54.617,317.522z"/>
		<path style="fill:#231815;" d="M63.181,324.867c-3.276-0.004-6.549,0.283-9.826,0.122c-1.063-0.052-5.731-0.021-6.369-1.32
			c-0.106-0.216,5.745-0.542,5.954-0.539c2.035,0.029,4.057-0.352,6.071-0.298c1.794,0.048,5.343-0.615,6.843,0.27
			C67.606,324.135,64.197,324.487,63.181,324.867z"/>
		<path style="fill:#231815;" d="M67.531,278.53c-5.518-0.402-11.023-1.122-16.419-2.362c-5.778-1.328-11.187-3.79-16.947-5.158
			c-5.416-1.286-11.089-1.693-16.563-0.524c-2.608,0.557-5.071,1.456-7.493,2.557c-1.046,0.475-3.618,2.545-4.739,2.35
			c0.477,0.082,2.132-1.798,2.588-2.158c1.333-1.054,2.783-2.002,4.294-2.777c3.366-1.726,7.031-2.663,10.805-2.86
			c8.067-0.422,15.261,2.195,22.857,4.43c5.93,1.745,11.96,3.197,18.123,3.784c3.667,0.349,7.36,0.498,11.043,0.424
			c0.683-0.014,5.927-0.713,6.329-0.091c0.245,0.379-6.561,1.715-7.147,1.795C72.032,278.248,69.78,278.441,67.531,278.53z"/>
		<path style="fill:#231815;" d="M22.017,275.39c-1.323,0.334-2.782,0.902-3.852,1.756c0.817,0.055,10.053,0.811,9.864,1.952
			c-0.071,0.427-5.231,0.225-5.409,0.211c-3.167-0.242-6.203-0.218-9.373-0.002c1.19-2.253,3.038-3.618,5.301-4.659
			c1.105-0.508,6.493-2.927,7.453-0.886C25.956,273.667,22.539,275.069,22.017,275.39z"/>
		<path style="fill:#231815;" d="M68.336,295.276c7.463,0.909,14.914,1.895,22.446,1.326c2.618-0.198,6.993-0.071,8.536-2.697
			c2.088-3.552-4.643-1.607-5.939-1.07c-5.735,2.375-12.42,1.986-18.508,1.668c-6.263-0.327-12.699-1.101-18.87-2.217
			c-4.553-0.823-8.596-2.338-12.754-4.308c-3.036-1.438-8.207-4.581-11.654-3.1c-6.5,0.772-14.486,0.508-20.708,4.351
			c-0.642,0.396-3.892,3.052-1.905,3.779c1.135,0.415,2.853-1.448,3.605-2.009c2.739-2.045,6.054-3.04,9.401-3.531
			c3.543-0.519,7.337-1.014,10.878-1.301c4.311-0.349,9.042,2.941,12.807,4.615C52.781,293.944,60.703,294.414,68.336,295.276z"/>
		<path style="fill:#231815;" d="M14.473,284.045c-2.196,0.428-4.387,1.099-6.429,2.02c-1.674,0.755-3.318,2.435-5.054,2.908
			c-0.074,0.02,0.412-1.486,0.531-1.699c0.52-0.93,1.334-1.502,2.209-2.068c1.231-0.797,2.755-1.724,4.16-2.182
			c1.026-0.334,6.825-1.802,6.999-0.833C16.973,282.661,14.857,283.769,14.473,284.045z"/>
		<path style="fill:#231815;" d="M8.805,280.454c-1.259,0.293-7.677,5.478-8.617,4.659c-0.859-0.749,4.751-5.218,5.349-5.538
			c0.928-0.497,3.078-1.478,4.074-1.148C11.361,279.008,9.578,279.587,8.805,280.454z"/>
		<path style="fill:#231815;" d="M79.517,255.767c2.642,2.192,4.486,4.805,3.734,8.422c-0.24,1.154-2.562,6.469-4.603,5.629
			c-0.148-0.061,1.894-4.587,1.947-4.741c0.646-1.852,0.322-3.539-0.57-5.233c-0.785-1.492-2.253-2.009-3.375-3.16
			C74.558,254.54,78.294,255.543,79.517,255.767z"/>
		<path style="fill:#231815;" d="M117.191,275.666c-8.756,1.029-17.64,1.136-26.439,0.606c-3.884-0.234-8.011-0.705-11.492-2.57
			c-0.647-0.347-3.454-1.81-3.476-2.57c-0.022-0.759,2.587-1.169,2.64-1.591c-0.044,0.354-1.218,1.148-1.518,1.494
			c8.098,4.397,18.709,2.89,27.544,2.78c3.214-0.04,6.335,0.1,9.552-0.229c2.512-0.257,5.014-0.634,7.499-1.074
			c0.715-0.126,3.728-1.124,4.36-0.627C126.225,272.17,117.942,275.432,117.191,275.666z"/>
		<path style="fill:#231815;" d="M87.069,236.513c-4.933-3.836,1.301-10.084,2.927-7.482
			C91.623,231.633,89.996,238.79,87.069,236.513z"/>
		<path style="fill:#231815;" d="M124.478,239.116c-4.242-4.242-2.277-11.711,1.627-8.783
			C130.008,233.26,126.104,240.742,124.478,239.116z"/>
		<path style="fill:#231815;" d="M79.586,250.176c-2.156-0.924-0.325-3.903,2.277-2.277
			C84.466,249.525,81.864,251.152,79.586,250.176z"/>
		<path style="fill:#231815;" d="M98.129,253.428c-3.253-0.976,0.651-4.228,2.927-3.253
			C103.334,251.152,98.129,253.428,98.129,253.428z"/>
		<path style="fill:#231815;" d="M144.972,280.428c3.93,2.689,3.705,6.755,1.416,10.474c-1.461,2.374-5.204,7.119-8.45,4.416
			c-2.337-1.947,1.148-7.484,2.043-9.514C140.94,283.627,141.681,278.5,144.972,280.428z"/>
		<path style="fill:#231815;" d="M133.261,296.368c0.76,2.659,1.678,6.508-0.776,8.6c-2.432,2.073-4.314,1.326-6.449-0.305
			c-1.499-1.145-2.103-1.689-0.723-3.266c0.706-0.807,1.622-1.379,2.519-1.946C129.588,298.339,131.424,297.341,133.261,296.368z"/>
		<path style="fill:#231815;" d="M78.61,278.151c3.484,1.741,6.818,5.617,11.095,5.053c1.2-0.158,4.254-1.382,2.853-2.817
			c-0.505-0.518-1.717-0.583-2.383-0.934c-2.031-1.07-3.532-3.359-5.918-3.155c-1.463,0.125-2.972,0.265-4.401,0.612
			C79.36,277.031,77.32,277.506,78.61,278.151z"/>
		<path style="fill:#231815;" d="M68.201,278.151c0,2.221,0.599,6.811,3.686,6.647c1.023-0.054,2.087-0.274,3.126-0.329
			c1.142-0.061,1.533-0.242,2.114-1.403c1.228-2.454,0.1-5.228-2.675-5.676C72.416,277.061,70.156,277.578,68.201,278.151z"/>
		<path style="fill:#231815;" d="M103.659,342.56c3.351,1.676,6.203,4.016,8.822,6.668c1.907,1.932,3.744,4.33,6.142,5.693
			c2.427,1.38,5.306,0.521,6.107-2.298c0.649-2.285-0.948-4.086-2.252-5.778c-1.675-2.172-3.474-4.26-5.349-6.262
			c-0.951-1.015-2.363-2.943-3.789-3.358c-1.618-0.471-4.723,0.758-6.142,1.456C105.603,339.467,104.218,340.845,103.659,342.56z"/>
		<path style="fill:#231815;" d="M96.502,344.187c4.576,1.634,8.515,5.982,7.588,10.983c-0.312,1.681-0.484,3.106-2.45,2.184
			c-1.986-0.931-3.426-2.781-5.497-3.593c-2.247-0.881-4.79-0.906-7.154-1.228c-1.72-0.234-3.883-0.553-2.416-2.604
			C88.673,346.996,93.193,345.273,96.502,344.187z"/>
		<path style="fill:#231815;" d="M173.923,360.777c3.991,0.799,8.005-0.275,11.538-2.146c2.989-1.583,5.757-4.685,9.237-5.069
			c3.749-0.414,5.387,3.03,5.491,6.316c0.1,3.179-2.036,5.345-4.497,7.025c-3.77,2.574-12.332,7.69-16.761,4.209
			C176.01,368.815,174.684,364.275,173.923,360.777z"/>
		<path style="fill:#231815;" d="M186.285,381.922c3.583,0.422,7.164-0.16,10.402-1.758c2.516-1.242,5.335-4.635,8.29-4.503
			c2.238,0.1,3.774,2.905,3.361,4.949c-0.574,2.836-3.632,4.964-4.759,7.635c-0.794,1.884-0.997,2.528-3.256,2.728
			c-2.16,0.191-3.946-0.702-5.727-1.855C191.534,387.135,188.784,384.569,186.285,381.922z"/>
		<path style="fill:#231815;" d="M159.935,247.248c-8.05,2.511,4.222,12.573,10.266,10.93
			C179.782,255.574,164.568,248.835,159.935,247.248z"/>
		<path style="fill:#231815;" d="M185.959,262.862c-1.479,0.846-3.474,3.126-3.138,5.024c0.172,0.976,0.259,0.854,1.265,1.084
			c0.704,0.161,1.415,0.238,2.134,0.31c1.282,0.128,2.568,0.163,3.825,0.477c4.111,1.026,6.363,5.585,10.65,6.047
			C202.107,266.995,193.799,262.188,185.959,262.862z"/>
		<path style="fill:#231815;" d="M210.031,284.332c1.627,2.288,8.949,16.768,1.306,13.624c-2.463-1.013-6.27-3.435-6.709-6.338
			c-0.095-0.626-0.03-1.19,0.288-1.747c0.715-1.25,1.149-0.646,0.887-2.307c-0.046-0.293-0.419-1.746-0.242-1.991
			c0.254-0.352,1.79-0.345,2.167-0.372C208.434,285.151,210.086,285.496,210.031,284.332z"/>
		<path style="fill:#231815;" d="M210.031,312.308c1.184,2.881,2.719,6.88,1.98,10.06c-0.287,1.236-0.171,0.876-1.314,0.994
			c-0.452,0.047-1.1-0.109-1.523-0.262c-0.894-0.323-1.609-0.934-2.168-1.692c-1.222-1.655-1.596-3.88-1.854-5.869
			c-0.127-0.98-0.475-2.119,0.209-2.557C206.627,312.172,208.685,313.231,210.031,312.308z"/>
		<path style="fill:#231815;" d="M190.513,281.079c1.648,0.285,3.641,1.487,4.046,3.231c0.191,0.823,0.004,1.577-0.52,2.234
			c-0.204,0.255-1.263,1.201-1.607,1.132c-0.25-0.05-0.844-1.055-1.027-1.252c-1.314-1.409-3.232-2.498-3.896-4.404
			c-0.141-0.404-0.346-1.065-0.243-1.481c0.21-0.853-0.029-0.505,0.819-0.631C188.853,279.793,190.253,280.288,190.513,281.079z"/>
		<path style="fill:#231815;" d="M150.709,223.938c1.849-1.823,4.528-3.961,7.304-3.709c2.051,0.186,4.911,2.353,4.218,4.688
			c-0.637,2.146-3.744,2.864-5.613,3.26c-0.242,0.051-6.039,0.733-5.996,0.474c0.116-0.687,5.557-1.871,6.206-2.072
			c0.952-0.295,2.849-0.698,3.47-1.627c0.767-1.147-0.5-2.31-1.617-2.694c-1.913-0.657-4.14,0.585-5.548,1.754
			c-0.297,0.247-4.311,5.08-4.281,5.092C147.85,228.661,150.317,224.519,150.709,223.938z"/>
		<path style="fill:#231815;" d="M136.689,204.432c1.706-2.471,4.199-5.505,7.482-5.609c2.483-0.079,6.621,2.443,5.235,5.381
			c-1.226,2.597-5.513,3.448-7.975,3.992c-1.16,0.257-2.331,0.447-3.509,0.594c-0.36,0.045-2.499,0.02-2.648,0.18
			c0.673-0.722,2.579-1.177,3.52-1.539c1.699-0.655,3.462-1.124,5.164-1.767c0.93-0.352,3.6-1.152,3.75-2.364
			c0.133-1.072-1.497-1.971-2.387-2.2c-2.409-0.621-4.545,1.199-5.937,2.932c-0.301,0.374-4.103,6.82-4.197,6.773
			C134.225,210.301,136.368,205.178,136.689,204.432z"/>
		<path style="fill:#231815;" d="M168.802,200.303c2.361-1.43,7.083-4.371,9.649-1.903c1.03,0.99,1.702,4.778,0.529,6.017
			c-0.759,0.802-3.867,1.028-4.649,1.125c-0.301,0.037-9.359,0.037-9.182-0.451c0.105-0.29,3.281-0.652,3.581-0.7
			c1.573-0.25,3.165-0.338,4.743-0.551c0.881-0.119,2.908-0.127,3.629-0.789c0.558-0.512,0.654-1.996,0.154-2.706
			c-2.515-3.574-11.569,5.377-12.135,4.591C164.575,204.18,168.214,200.857,168.802,200.303z"/>
		<path style="fill:#231815;" d="M172.745,232.732c2.266-0.967,5.321-0.737,6.54,1.676c0.364,0.72,0.886,2.526,0.401,3.149
			c-1.384,1.779-9.25,1.733-8.872-1.223c-0.09,0.598,8.675,1.743,6.428-1.195c-1.304-1.706-3.454-0.899-4.921,0.112
			c-0.616,0.425-1.241,1.457-1.443,0.383C170.701,234.688,172.094,233.287,172.745,232.732z"/>
	</g>
</g>
</svg>
