<?xml version="1.0" encoding="iso-8859-1"?>
<!-- Generator: Adobe Illustrator 18.1.1, SVG Export Plug-In . SVG Version: 6.00 Build 0)  -->
<svg version="1.1" id="_x31_2" xmlns="http://www.w3.org/2000/svg" xmlns:xlink="http://www.w3.org/1999/xlink" x="0px" y="0px"
	 viewBox="0 0 512 512" style="enable-background:new 0 0 512 512;" xml:space="preserve">
<g>
	<path style="fill:#FFFFFF;" d="M256.735,320.526c9.497,1.52,89.766,2.404,89.766,2.404s8.499,20.863,18.434,44.082
		c9.717,22.71,20.856,47.737,22.441,52.096c3.206,8.816,7.213,12.022-4.007,12.022c-5.069,0-140.259,0.802-150.679,1.603
		c-10.419,0.802-69.729,2.404-73.736,2.404c-4.007,0-4.809,9.618-4.007,0c0.801-9.618,22.442-56.905,23.243-62.516
		c0.801-5.61,12.824-44.883,12.824-44.883S236.698,317.32,256.735,320.526z"/>
	<path style="fill:#8FBF5C;" d="M151.741,178.664c4.809-28.052,21.64-64.119,25.648-68.927c4.007-4.809,8.015-1.603,11.221-11.221
		c3.206-9.618,10.419-24.846,17.633-22.441c7.213,2.404,7.213,2.404,7.213,2.404l2.805,4.408c0,0,4.007-1.603,18.033-5.61
		c14.026-4.007,42.078-0.801,50.093,2.004c11.221-6.011,14.827-10.419,21.64,4.007c5.61,8.015,5.61,8.015,5.61,8.015
		s17.232-4.408,26.449,9.618c9.217,14.026,32.46,49.291,36.468,71.332c0.801,6.011,14.427,7.614,17.232,8.816
		c2.805,1.202,47.287,28.453,53.298,40.475c6.011,12.022,10.019,40.876,2.405,49.291c-7.614,8.416-24.045,18.835-30.456,20.438
		c-6.412,1.603-28.853,9.217-32.46,15.228c-3.607,6.011-7.213,12.022-6.813,20.438c0.401,8.416,1.202,14.026,1.202,14.026
		s-6.412-0.401-9.618-8.816c-3.206-8.415-1.603-26.85,1.202-31.258c2.805-4.408-9.217,4.408-14.827,11.621
		c-5.61,7.213-15.228,22.442-16.43,28.453c-1.202,6.011-5.61,8.015-5.61,8.015s-4.809-8.415-2.404-20.037
		c2.404-11.621,9.618-21.64,11.221-23.243c1.603-1.603-3.206-2.805-6.813,1.202c-3.607,4.007-17.232,22.041-18.033,26.449
		c-0.801,4.408-3.206,2.805,0-10.419c3.206-13.224,5.61-22.842,11.221-27.25c5.61-4.408,1.202-5.21-2.805-4.408
		c-4.007,0.801-55.703,0.401-58.909,0.401c-3.206,0-16.831-1.603-16.831-1.603s10.82,20.037,6.412,30.456
		c-4.408,10.419,0,14.427-4.408,10.419c-4.408-4.008-13.224-20.438-15.228-24.045c-2.004-3.607-8.015-15.228-8.816-12.423
		c-0.801,2.805-1.202,20.037,4.408,28.453c5.61,8.416,4.408,10.019,2.805,12.022c-1.603,2.004-2.805,4.809-8.416,1.202
		c-5.61-3.607-5.61-3.607-5.61-3.607s-4.408,1.202-10.019,1.603c-5.61,0.401-18.033-9.618-20.438-11.621
		c-2.404-2.004-4.809-1.202-9.618-4.408c-4.809-3.206-9.217-6.412-24.044-4.408c-14.827,2.004-40.074,2.805-49.291,0.401
		c-9.217-2.405-20.438-2.004-27.651-12.824c-7.213-10.82-12.824-30.857-4.809-45.685c8.015-14.827,15.228-29.254,23.644-35.265
		c8.416-6.011,18.835-14.827,24.445-20.037c5.61-5.21,24.846-16.831,24.846-16.831L151.741,178.664z"/>
	<path style="fill:#070416;" d="M258.338,357.795c0,0-1.603-18.033-3.206-18.033c-1.603,0,2.404-3.607-1.603,0
		c-4.007,3.607-1.603-0.802-4.007,3.607c-2.404,4.408,0,7.213,0,7.213L258.338,357.795z"/>
	<path style="fill:#FFFFFF;" d="M258.939,176.86c-10.498,0-56.505-21.039-61.915-21.039s-14.427,7.814-9.017,19.236
		c5.41,11.421-3.607,49.892-16.23,61.914c-12.623,12.022-12.623,39.072-9.017,40.274c3.607,1.202,22.842,9.017,30.657,5.41
		c7.814-3.607,12.231-10.636,27.154-10.427c14.923,0.208,27.747,10.227,29.751,17.841c6.813,2.805,9.417,1.603,16.831,1.603
		c7.414,0,65.722-1.803,65.722-1.803s21.64-7.814,24.645-7.814c3.006,0,7.815-6.612,7.815-6.612s-1.202-24.044-13.826-37.269
		c-12.623-13.225-23.443-21.64-24.044-34.263c-0.601-12.623,10.219-22.842,10.82-36.067c0.601-13.224,3.607-16.831-5.41-17.432
		c-9.017-0.601-23.443,3.607-37.87,12.022C280.579,170.849,263.147,176.86,258.939,176.86z"/>
	<g>
		<path style="fill:#070416;" d="M220.573,272.229c-1.301-3.125-2.206-5.572-2.309-6.604c-0.401-4.008-8.015-21.64-8.415-24.044
			c-0.401-2.404-2.805-6.813-2.805-6.813l-9.618,3.607c0.798,1.862,8.302,22.253,13.846,37.284
			C213.981,274.567,217.378,273.266,220.573,272.229z"/>
		<path style="fill:#070416;" d="M255.132,339.762c-0.801-3.206-21.64-36.868-22.842-40.876c-0.351-1.17-1.663-4.16-3.35-7.897
			c-0.221,1.128-0.441,2.282-0.658,3.489c-1.557,8.693,0.58,17.031,2.391,22.495c4.78,8.636,9.093,16.282,9.631,17.179
			c1.202,2.004,8.415,15.228,9.217,16.43C250.323,351.784,255.934,342.967,255.132,339.762z"/>
	</g>
	<g>
		<path style="fill:#221714;" d="M194.874,84.359c-0.646,1.014-1.322,2.029-1.998,3.006c-0.942,1.385-2.756,4.054-4.457,6.554
			c-1.707,2.505-3.329,4.841-4.147,5.383c-2.241,1.463-3.366,4.835,1.503,6.87c3.973,1.667,5.493-1.289,5.039-3.271
			c-0.153-0.649,0.65-3.277,1.723-6.098c1.061-2.825,2.402-5.834,3.03-7.334c0.656-1.583,1.423-2.998,2.142-3.831
			c0.274-0.294,1.077-1.561,2.361-3.183c1.278-1.57,3.188-3.66,5.734-4.117c1.264-0.254,2.608-0.021,3.884,0.553
			c1.267,0.619,2.467,1.548,3.509,2.64c2.107,2.167,3.65,4.805,4.978,6.987c2.55,4.292,3.738,6.879,4.444,8.489
			c0.694,1.618,0.867,2.286,1.063,2.928c0.74,2.558,8.14,0.734,5.022-2.719c-0.759-0.821-1.338-1.405-2.319-2.851
			c-0.995-1.438-2.363-3.757-5.016-7.852c-0.72-1.101-1.486-2.263-2.402-3.564c-0.922-1.288-1.986-2.618-3.25-3.879
			c-1.254-1.262-2.772-2.444-4.575-3.286c-1.811-0.814-4-1.171-5.962-0.742c-1.993,0.376-3.631,1.41-4.861,2.444
			c-1.232,1.057-2.146,2.148-2.876,3.104C195.993,82.529,195.196,83.894,194.874,84.359z"/>
		<path style="fill:#221714;" d="M241.624,74.687c-0.883,0.168-1.781,0.317-2.657,0.455c-1.22,0.254-3.595,0.662-5.792,1.206
			c-1.109,0.23-2.173,0.493-3.042,0.708c-0.873,0.201-1.562,0.325-1.907,0.316c-1.86-0.002-4.234,1.227-3,3.559
			c1.008,1.92,3.282,1.03,4.13-0.003c0.291-0.299,2.079-1.255,4.154-2.075c2.059-0.867,4.393-1.587,5.531-1.985
			c1.205-0.394,2.375-0.647,3.185-0.73c0.589-0.064,4.365-0.662,8.97-0.913c4.603-0.269,10.025-0.005,13.745,0.643
			c3.663,0.615,5.651,1.321,6.845,1.79c1.173,0.522,1.637,0.707,2.03,0.987c1.543,0.993,4.464-1.738,0.995-2.686
			c-0.826-0.183-1.441-0.244-2.715-0.618c-0.646-0.143-1.465-0.321-2.564-0.595c-0.552-0.123-1.181-0.219-1.894-0.358
			c-0.711-0.148-1.511-0.281-2.417-0.385c-3.855-0.566-9.376-0.777-14.107-0.454C246.383,73.861,242.444,74.505,241.624,74.687z"/>
		<path style="fill:#221714;" d="M286.556,77.376c-1.033,1.063-2.018,2.244-2.889,3.287c-1.269,1.485-3.633,4.421-5.767,7.255
			c-2.15,2.82-4.099,5.519-5.006,6.167c-2.501,1.741-3.945,5.695,0.939,7.713c3.975,1.654,5.73-1.679,5.462-3.868
			c-0.093-0.716,0.989-3.67,2.484-6.8c1.478-3.136,3.38-6.425,4.311-8.05c0.971-1.74,2.046-3.179,3.032-3.932
			c0.363-0.237,1.543-1.483,3.553-2.51c1-0.484,2.218-0.887,3.496-0.745c1.295,0.082,2.569,0.759,3.715,1.878
			c1.15,1.127,2.142,2.63,3.166,4.235c1.031,1.605,2.073,3.226,3.094,4.814c2.032,3.181,3.979,6.229,5.586,8.744
			c6.284,9.919,6.924,11.451,7.605,12.88c1.374,2.883,8.477,0.093,4.619-3.361c-1.865-1.672-2.805-2.399-9.075-11.595
			c-1.657-2.463-3.665-5.446-5.768-8.57c-1.043-1.567-2.109-3.169-3.167-4.758c-1.052-1.585-2.176-3.308-3.72-4.794
			c-1.508-1.486-3.694-2.666-5.834-2.752c-2.156-0.177-3.985,0.534-5.334,1.233c-1.364,0.727-2.335,1.525-3.061,2.155
			C287.269,76.636,286.799,77.124,286.556,77.376z"/>
		<path style="fill:#221714;" d="M179.314,109.651c-2.397,4.573-5.804,11.53-8.9,18.528c-3.106,6.993-5.902,14.016-7.88,18.398
			c-3.918,8.789-5.59,15.011-7.113,21.22c-0.78,3.105-1.478,7.466-2.174,12.205c-0.664,4.649-0.976,9.564-0.124,13.318
			c0.438,1.854,0.836,2.989,0.996,3.832c0.188,0.814,0.094,1.348-0.243,1.603c-0.605,0.511-2.502-0.176-3.798-2.308
			c-1.329-2.056-2.318-5.581-2.481-9.041c-0.189-3.458,0.183-6.789,0.573-8.792c0.405-1.996,1.619-8.198,3.168-14.218
			c1.513-6.029,3.286-11.881,3.774-13.436c0.46-1.564,1.67-6.097,3.079-10.796c1.429-4.69,3.062-9.544,4.014-11.807
			c1.841-4.589,6.892-11.186,6.884-17.568c0.033-6.427,1.782-5.588,5.451-6.393C178.214,103.586,181.915,104.758,179.314,109.651z"
			/>
		<path style="fill:#221714;" d="M338.231,108.996c-3.364-6.036-9.276-10.349-12.372-14.335c-1.517-2.062-0.6-2.625,1.025-2.353
			c1.612,0.274,3.982,1.37,5.119,2.546c1.104,1.199,2.687,2.845,4.316,4.665c1.565,1.87,3.318,3.802,4.708,5.602
			c1.429,1.768,6.951,8.808,11.66,16.299c4.82,7.424,8.721,15.289,9.617,17.014c0.483,0.846,1.506,3.285,2.948,6.494
			c0.734,1.6,1.402,3.471,2.198,5.418c0.814,1.94,1.527,4.053,2.275,6.178c3.03,8.498,5.124,17.709,6.104,21.196
			c0.598,1.721,0.615,3.269,0.562,4.492c-0.083,1.23-0.37,2.166-0.738,2.774c-0.736,1.214-1.798,1.135-2.21-0.411
			c-0.206-0.774-0.463-2.137-0.735-3.775c-0.115-0.821-0.3-1.702-0.511-2.61c-0.195-0.909-0.395-1.848-0.594-2.775
			c-0.346-1.866-0.846-3.661-1.228-5.117c-0.376-1.456-0.663-2.568-0.781-3.028c-0.113-0.463-0.498-2.045-1.03-4.227
			c-0.475-2.203-1.286-4.954-2.137-7.789c-0.397-1.428-0.9-2.839-1.39-4.207c-0.496-1.367-0.977-2.69-1.417-3.903
			c-0.984-2.386-1.871-4.317-2.435-5.289c-0.546-0.982-1.351-2.413-2.246-4.1c-0.895-1.687-1.855-3.644-2.945-5.555
			c-2.058-3.89-4.377-7.727-5.713-9.914c-0.697-1.075-1.729-2.315-2.869-3.617c-0.573-0.649-1.171-1.316-1.787-1.973
			c-0.639-0.638-1.283-1.28-1.912-1.907C341.231,112.259,338.853,110.116,338.231,108.996z"/>
		<path style="fill:#221714;" d="M137.614,196.868c-5.418,4.166-12.227,9.217-19.409,14.924c-3.583,2.857-7.266,5.88-10.791,9.08
			c-0.883,0.799-1.764,1.604-2.598,2.433c-0.867,0.816-1.685,1.652-2.479,2.498c-1.623,1.693-3.304,3.613-4.905,5.431
			c-6.428,7.375-12.098,15.118-15.757,22.716c-1.85,3.785-3.225,7.504-4.145,10.999c-0.916,3.449-1.314,6.663-1.473,9.518
			c-0.161,2.853,0.062,5.597,0.411,8.212c0.443,2.595,1.037,5.07,1.902,7.341c1.659,4.578,4.228,8.343,7.204,11.257
			c2.989,2.94,6.481,4.824,10.265,6.148c3.769,1.327,7.762,2.143,11.809,2.91c8.062,1.529,19.342,2.724,31.627,2.534
			c3.07-0.055,6.201-0.157,9.357-0.369c3.179-0.209,6.279-0.498,9.578-0.838c3.281-0.301,6.632-0.669,10.426-0.453
			c1.905,0.133,3.922,0.522,5.791,1.168c1.897,0.632,3.535,1.526,5.057,2.412c2.981,1.822,5.111,3.512,6.862,4.936
			c0.428,0.343,0.903,0.746,1.212,1.016c0.258,0.217,0.502,0.423,0.733,0.617c0.17,0.138,0.252,0.2,0.277,0.244
			c0.008,0.052,0.024-0.024-0.006,0.121l-0.011,0.081c0.067-0.294-0.596,2.591-0.311,1.367l0.009-0.006l0.018-0.011l0.035-0.022
			l0.07-0.044l0.139-0.087l-0.043-0.103c-0.137-0.123-0.089-0.225-0.121-0.298l-0.032-0.119c0,0,0.04,0.098,0.15,0.248
			c0.218,0.306,0.593,0.578,0.761,0.629l0.165,0.046l-0.018,0.001l-0.078,0.012c-0.048-0.018,0.25,0.008-0.014-0.04
			c-0.265-0.124-0.008-0.011-0.059,0.166c-0.018,0.171-0.158,0.401-0.391,0.588c-0.322,0.398-1.393,0.452-2.497-0.101
			c-0.563-0.258-1.153-0.625-1.786-1.013c-0.626-0.385-1.276-0.785-1.947-1.199c-1.338-0.831-2.819-1.745-4.44-2.633
			c-1.613-0.896-3.397-1.731-5.306-2.284c-3.827-1.158-8.141-0.603-12.392-0.112c-4.248,0.541-8.522,1.071-12.367,1.324
			c-3.847,0.274-7.279,0.359-9.917,0.317c-2.637-0.025-8.048-0.16-14.781-0.776c-6.735-0.637-14.759-1.784-22.641-3.564
			c-3.951-0.908-7.921-2.115-11.477-3.926c-3.536-1.857-6.591-4.217-8.902-6.712c-4.585-5.068-6.579-10.001-7.35-12.008
			c-0.826-2.013-2.225-6.039-2.919-11.309c-0.676-5.244-0.597-11.783,1.015-18.151c1.509-6.357,4.197-12.495,7.03-17.537
			c2.814-5.069,5.742-9.075,7.673-11.623c1.946-2.543,4.416-5.332,7.155-8.245c2.694-2.896,5.841-6.031,9.117-8.919
			c6.536-5.834,13.428-11.476,18.324-17.176c9.828-11.329,11.008-9.631,17.804-11.089c3.387-0.727,6.138-0.709,6.622,0.707
			C145.33,189.501,143.47,192.398,137.614,196.868z"/>
		<path style="fill:#221714;" d="M150.313,273.212c-4.936-3.334-10.199-6.207-15.326-8.302c-5.114-2.145-10.072-3.446-14.14-4.898
			c-4.088-1.388-3.391-2.366-0.88-2.817c2.508-0.517,6.824-0.213,9.518,0.686c2.671,0.917,6.382,2.337,10.172,4.181
			c3.8,1.825,7.676,3.984,11.04,5.807c1.693,0.905,5.791,3.201,11.255,5.725c2.755,1.257,5.789,2.532,9.147,3.837
			c3.311,1.306,6.743,2.595,10.194,3.502c3.445,0.888,6.918,1.371,10.119,1.101c3.186-0.24,6.137-1.235,8.768-2.351
			c2.628-1.124,4.917-2.332,6.778-3.289c1.854-0.959,3.266-1.671,4.032-2.035c0.76-0.366,2.178-1.055,4.226-1.828
			c2.036-0.759,4.73-1.688,8.069-1.925c0.834-0.024,1.699-0.029,2.583-0.022c0.884,0.106,1.794,0.186,2.716,0.339
			c1.844,0.362,3.666,1.016,5.401,1.856c1.74,0.868,3.39,1.803,4.988,3.029c1.66,1.15,3.132,2.547,4.558,3.984
			c2.813,2.925,5.01,6.356,6.817,9.794c0.938,1.709,1.642,3.485,2.366,5.193c0.333,0.865,0.607,1.736,0.906,2.582
			c0.146,0.424,0.291,0.845,0.434,1.262c0.115,0.424,0.229,0.845,0.342,1.262c1.887,6.65,2.179,12.426,2.278,15.598
			c0.023,0.796,0.027,1.563,0.014,2.297c-0.049,0.732-0.15,1.431-0.242,2.094c-0.096,0.663-0.205,1.292-0.321,1.883
			c-0.162,0.585-0.34,1.133-0.516,1.643c-0.647,2.057-1.609,3.432-2.356,4.221c-1.499,1.572-2.422,0.828-1.824-1.749
			c0.081-0.322,0.177-0.705,0.287-1.139c0.078-0.443,0.166-0.938,0.262-1.479c0.2-1.078,0.458-2.327,0.554-3.724
			c0.387-2.763,0.306-6.039,0.122-9.22c-0.349-3.175-0.836-6.275-1.541-8.709c-0.162-0.611-0.314-1.186-0.455-1.718
			c-0.149-0.528-0.334-0.998-0.473-1.425c-0.29-0.85-0.51-1.496-0.638-1.874c-0.299-0.738-1.149-3.338-2.807-6.732
			c-1.73-3.325-4.338-7.487-8.106-10.727c-3.737-3.214-8.469-5.798-12.862-6.01c-4.388-0.224-7.909,1.093-9.622,1.869
			c-1.748,0.778-4.25,2.024-7.145,3.559c-2.901,1.514-6.233,3.283-9.829,4.579c-1.788,0.671-3.666,1.129-5.517,1.449
			c-1.862,0.284-3.702,0.314-5.424,0.224c-3.455-0.196-6.421-0.958-8.544-1.542c-4.272-1.172-10.611-2.979-16.486-4.784
			C157.352,276.601,152.159,274.443,150.313,273.212z"/>
		<path style="fill:#221714;" d="M228.746,307.616c-0.057-0.661-0.071-1.341-0.016-2.012c0.057-0.949,0.366-2.782,0.612-4.681
			c0.248-1.893,0.189-3.83,0.267-4.456c0.098-0.43,0.101-0.906-0.021-1.348c-0.113-0.442-0.284-0.872-0.604-1.159
			c-0.615-0.601-1.508-0.734-2.723-0.027c-0.994,0.578-1.33,1.27-1.303,1.837c-0.024,0.585,0.349,1.09,0.75,1.42
			c0.293,0.198,0.832,1.563,0.987,3.315c0.17,1.733,0.118,3.798,0.239,4.81c0.106,1.069,0.211,2.066,0.229,2.761
			c0.008,0.252,0.086,1.202,0.508,2.52c0.118,0.325,0.244,0.674,0.379,1.046c0.173,0.353,0.355,0.727,0.546,1.118
			c0.392,0.72,0.666,1.442,0.901,2.348c0.505,1.754,0.681,3.879,1.877,5.824c1.071,1.64,2.011,3.234,2.676,4.594
			c1.307,2.68,1.539,4.322,1.553,5.247c-0.027,0.931-0.186,1.223-0.296,1.51c-0.153,0.262-0.007,0.574,0.152,0.906
			c0.188,0.339,0.481,0.746,0.816,1.038c0.335,0.291,0.73,0.453,1.145,0.267c0.203-0.093,0.419-0.27,0.594-0.547
			c0.139-0.282,0.255-0.666,0.286-1.122c-0.033-0.865-0.083-1.478-0.332-2.654c-0.255-1.166-0.723-2.893-2.136-5.56
			c-0.755-1.418-1.775-3.06-2.888-4.697c-0.892-1.317-1.193-3.379-1.727-5.271c-0.133-0.48-0.289-0.96-0.471-1.429
			c-0.1-0.235-0.192-0.468-0.312-0.696c-0.106-0.206-0.211-0.409-0.314-0.608c-0.175-0.348-0.343-0.681-0.503-0.998
			c-0.124-0.328-0.242-0.639-0.352-0.929C228.883,308.806,228.798,307.919,228.746,307.616z"/>
		<path style="fill:#221714;" d="M216.006,320.053c-0.074-0.727-0.138-1.456-0.156-2.191c-0.04-1.019-0.062-3.018-0.188-4.969
			c-0.115-1.945-0.457-3.877-0.535-4.564c0.042-0.913-0.494-2.039-1.3-2.557c-0.884-0.505-1.803-0.354-2.659,0.764
			c-0.703,0.914-0.844,1.651-0.708,2.079c0.067,0.532,0.506,0.857,0.96,1.13c0.338,0.105,1.079,1.436,1.569,3.209
			c0.5,1.754,0.822,3.813,1.045,4.814c0.222,1.055,0.378,2.063,0.389,2.762c0.007,0.257,0.084,1.199,0.361,2.578
			c0.325,1.346,0.865,3.254,2.4,4.826c2.749,2.646,5.385,6.489,8.205,8.506c1.363,0.978,2.648,1.627,3.82,1.756
			c1.142,0.183,2.046,0.052,2.675-0.132c0.674-0.121,1.051-0.358,1.381-0.489c0.321-0.143,0.566-0.234,0.787-0.344
			c0.839-0.535,0.758-1.694,0.193-2.355c-0.568-0.664-1.412-1.017-2.017-0.079c-0.341,0.338-0.58,0.764-1.323,1.027
			c-0.181,0.111-0.401,0.142-0.661,0.166c-0.131,0.019-0.271,0.038-0.421,0.06c-0.153,0-0.319-0.039-0.497-0.056
			c-0.711-0.043-1.65-0.423-2.775-1.189c-1.208-0.821-2.547-2.134-3.888-3.617c-1.328-1.461-2.761-3.169-4.219-4.517
			c-1.17-1.149-1.698-2.764-2.007-4.026C216.152,321.359,216.059,320.383,216.006,320.053z"/>
		<path style="fill:#221714;" d="M200.056,329.161c-0.525-0.398-1.032-0.838-1.506-1.287c-0.667-0.632-1.909-1.904-2.966-3.204
			c-1.063-1.293-1.952-2.6-2.075-3.121c-0.324-1.417-1.758-2.728-3.799-0.807c-1.67,1.571-0.394,3.113,0.746,3.342
			c0.375,0.073,1.618,1.106,3.011,2.217c1.388,1.115,2.928,2.287,3.738,2.791c0.842,0.544,1.602,1.086,2.071,1.525
			c0.328,0.316,2.692,2.264,6.149,3.623c1.718,0.666,3.694,1.195,5.675,1.25c1.957,0.099,3.957-0.376,5.332-1.053
			c1.352-0.604,2.477-1.133,3.287-2.032c0.855-0.919,0.914-2.043,0.883-2.651c-0.115-1.267-0.267-1.648-0.345-2.082
			c-0.478-1.72-4.289-0.515-2.789,1.193c0.308,0.395,0.601,0.755,0.727,1.327c0.038,0.278,0.08,0.494-0.231,0.903
			c-0.358,0.416-1.165,0.959-2.37,1.52c-1.227,0.649-2.7,1.03-4.433,1.003c-1.703-0.008-3.504-0.452-5.098-1.044
			C202.861,331.384,200.54,329.525,200.056,329.161z"/>
		<path style="fill:#221714;" d="M202.096,251.096c-0.23-0.625-0.44-1.267-0.624-1.898c-0.538-1.771-1.955-6.855-1.731-7.905
			c0.279-1.418-0.497-3.155-3.14-2.217c-2.157,0.766-1.62,2.656-0.678,3.3c0.602,0.432,2.9,5.596,3.775,7.216
			c0.449,0.861,0.811,1.694,0.948,2.301c0.098,0.444,1.043,3.189,2.286,6.476c1.238,3.289,2.793,7.112,3.912,9.788
			c2.21,5.259,2.447,6.028,2.657,6.771c0.451,1.497,4.35,0.46,2.687-1.412c-0.797-0.913-1.246-1.301-3.51-6.167
			c-1.201-2.599-2.795-6.349-4.081-9.619C203.305,254.464,202.308,251.682,202.096,251.096z"/>
		<path style="fill:#221714;" d="M210.147,239.131c-0.306-0.799-0.443-1.582-0.98-2.601c-0.207-0.364-0.543-0.819-1.054-1.164
			c-0.509-0.357-1.217-0.575-1.805-0.646c-1.214-0.14-2.313-0.077-3.499,0.054c-2.321,0.257-4.395,1.058-5.106,1.159
			c-0.974,0.113-2.055,0.68-2.568,1.496c-0.523,0.82-0.44,1.81,0.582,2.76c1.693,1.514,3.156,0.352,3.729-0.689
			c0.16-0.354,1.6-1.428,3.506-2.049c0.931-0.312,2.007-0.523,2.889-0.6c0.871-0.074,1.354,0.132,1.673,0.452
			c0.32,0.306,0.566,0.838,0.756,1.328c0.196,0.5,0.347,0.958,0.437,1.339c0.262,1.118,4.612,13.93,6.89,20.892
			c2.242,6.848,2.413,7.847,2.617,8.795c0.412,1.911,4.479,1.535,2.814-1.142c-0.805-1.296-1.223-1.881-3.537-8.307
			C215.024,253.352,210.665,240.63,210.147,239.131z"/>
		<path style="fill:#221714;" d="M242.956,336.672c-0.18-0.349-0.347-0.71-0.492-1.07c-0.407-1.014-1.595-3.894-1.388-4.621
			c0.28-0.986-0.441-1.877-2.896-0.529c-2.008,1.102-1.526,2.132-0.664,2.277c0.564,0.096,2.563,2.758,3.287,3.584
			c0.381,0.436,0.676,0.88,0.77,1.239c0.137,0.524,2.941,6.12,4.387,9.187c1.423,3.016,1.488,3.503,1.589,3.952
			c0.203,0.905,3.936-0.511,2.662-1.454c-0.615-0.457-0.943-0.647-2.469-3.415C246.112,342.87,243.292,337.324,242.956,336.672z"/>
		<path style="fill:#221714;" d="M255.216,338.453c-0.181-0.492-0.364-0.991-0.543-1.477c-0.416-1.401-2.079-5.232-2.057-6.126
			c0.102-1.241-0.941-2.444-3.229-0.836c-1.885,1.317-1.182,2.507-0.254,2.733c0.297,0.076,1.108,0.935,1.878,1.972
			c0.787,1.027,1.553,2.22,1.936,2.806c0.42,0.611,0.731,1.23,0.814,1.699c0.069,0.339,0.821,2.407,1.464,4.983
			c0.659,2.572,1.15,5.652,1.307,7.829c0.171,2.14,0.117,3.363,0.07,4.118c-0.039,0.755-0.133,1.045-0.188,1.328
			c-0.242,1.117,3.719,1.867,3.033-0.087c-0.163-0.467-0.296-0.806-0.429-1.557c-0.127-0.75-0.227-1.915-0.494-4.015
			c-0.272-2.24-0.839-5.402-1.576-8.069C256.231,341.083,255.392,338.91,255.216,338.453z"/>
		<path style="fill:#221714;" d="M386.254,172.998c-1.619,1.75-1.638,5.487-0.215,9.177c1.425,3.729,4.248,7.447,8.754,9.495
			c4.518,2.04,12.908,6.691,20.963,12.064c4.037,2.672,7.982,5.517,11.394,8.176c3.423,2.652,6.318,5.111,8.481,6.837
			c4.349,3.496,8.515,9.854,10.599,16.508c2.245,6.642,2.306,13.291,1.989,17.297c-0.073,1.01-0.268,2.219-0.458,3.604
			c-0.351,1.35-0.594,2.915-1.218,4.514c-0.275,0.81-0.531,1.667-0.951,2.491c-0.409,0.828-0.715,1.736-1.229,2.582
			c-0.489,0.857-0.952,1.76-1.56,2.611c-0.289,0.433-0.582,0.872-0.877,1.316c-0.326,0.424-0.655,0.853-0.988,1.286
			c-2.655,3.475-6.266,6.674-10.26,9.576c-4.047,2.848-8.499,5.398-12.984,7.622c-4.476,2.25-8.199,3.642-11.494,4.883
			c-3.292,1.236-6.149,2.285-9.024,3.572c-2.863,1.292-5.804,2.786-8.928,5.266c-3.072,2.508-6.337,6.073-8.745,11.516
			c-2.374,5.469-2.529,10.038-2.234,12.984c0.323,2.984,1.089,4.472,1.518,4.752c0.476,0.277,0.721-0.635,0.891-2.539
			c0.186-1.906,0.427-4.853,1.415-8.659c1.066-3.787,2.45-6.625,3.889-8.929c1.44-2.307,2.913-4.124,4.589-5.738
			c3.391-3.199,7.675-5.698,15.957-8.036c4.138-1.175,8.454-2.344,12.602-3.891c4.142-1.534,8.142-3.352,11.844-5.488
			c3.701-2.132,7.101-4.588,10.007-7.31c2.909-2.716,5.306-5.701,7.087-8.706c3.631-5.958,6.062-13.554,6.225-21.033
			c0.103-3.728-0.159-7.429-0.885-10.855c-0.266-1.739-0.808-3.361-1.202-4.967c-0.549-1.552-0.989-3.092-1.61-4.48
			c-1.125-2.826-2.649-5.989-4.423-9.199c-1.849-3.162-3.969-6.354-6.286-9.189c-4.602-5.593-9.352-9.893-11.674-11.786
			c-2.333-1.882-7.604-6.057-12.494-9.459c-4.873-3.426-9.287-6.192-9.287-6.192s-3.455-2.928-7.661-5.781
			C393.588,176.009,388.626,173.242,386.254,172.998z"/>
		<path style="fill:#221714;" d="M367.168,315.605c0.125-0.717,0.28-1.44,0.485-2.128c0.278-0.968,0.883-2.828,1.746-4.369
			c0.842-1.561,1.929-2.728,2.416-2.907c0.66-0.269,1.218-0.688,1.436-1.301c0.204-0.613,0.141-1.475-0.719-2.592
			c-0.696-0.902-1.596-0.987-2.355-0.589c-0.751,0.395-1.286,1.227-1.369,1.892c-0.072,0.433-1.061,2.143-1.687,4.091
			c-0.671,1.938-1.047,4.068-1.164,5.112c-0.134,1.103-0.26,2.129-0.447,2.814c-0.136,0.492-0.736,3.802-0.428,7.84
			c0.138,2.012,0.518,4.193,1.051,6.218c0.543,2.04,1.117,3.888,1.682,5.499c0.572,1.574,1.386,2.87,2.423,3.593
			c0.472,0.356,1.091,0.622,1.606,0.697c0.52,0.095,0.953,0.049,1.327,0.004c0.739-0.129,1.229-0.349,1.599-0.568
			c0.372-0.214,0.625-0.428,0.863-0.667c0.494-0.5,0.514-1.323,0.184-1.74c-0.303-0.445-0.848-0.51-1.252-0.427
			c-0.42,0.083-0.835,0.287-1.086,0.317l-0.017,0.001l-0.055-0.013l-0.197-0.089l0.024,0.086c0.026,0.22-0.171,0.578-0.756,0.754
			c-0.141,0.026-0.317,0.062-0.478,0.032c-0.135-0.009-0.378-0.095-0.655-0.285c-0.534-0.353-1.137-1.114-1.664-2.428
			c-0.549-1.411-1.193-3.326-1.734-5.233c-0.544-1.932-0.929-3.966-1.086-5.884C366.517,319.493,367.056,316.268,367.168,315.605z"
			/>
		<path style="fill:#221714;" d="M359.552,309.858c0.761-0.719,1.513-1.468,2.31-2.123c0.563-0.457,1.387-1.125,2.324-1.885
			c0.971-0.716,2.065-1.509,3.138-2.247c1.108-0.693,2.172-1.362,3.069-1.855c0.916-0.464,1.639-0.79,2.013-0.875
			c2.014-0.477,4.461-2.025,2.984-4.438c-1.189-1.929-4.065-0.443-4.908,0.962c-0.286,0.448-2.288,1.986-4.361,3.803
			c-1.049,0.891-2.077,1.9-3.021,2.75c-0.911,0.889-1.678,1.696-2.186,2.22c-1.067,1.109-2.026,2.196-2.805,2.81
			c-0.546,0.465-3.891,3.702-7.282,8.188c-3.458,4.437-6.699,10.228-8.588,14.467c-1.892,4.16-2.665,6.659-3.221,8.177
			c-0.558,1.506-0.753,2.197-0.901,2.878c-0.147,0.699,0.083,1.403,0.49,1.807c0.403,0.416,0.938,0.518,1.36,0.417
			c0.431-0.1,0.778-0.362,0.987-0.646c0.211-0.299,0.267-0.606,0.194-1.372c-0.052-0.754-0.015-1.423,0.348-2.879
			c0.351-1.446,0.93-3.701,2.578-7.577c1.731-4.142,4.814-9.793,8.167-14.188C355.54,313.815,358.845,310.528,359.552,309.858z"/>
		<path style="fill:#221714;" d="M340.851,309.381c0.703-0.838,1.505-1.616,2.286-2.363c1.112-1.043,3.363-2.947,5.639-4.529
			c2.269-1.591,4.504-2.916,5.295-3.149c2.129-0.638,4.658-2.602,2.926-4.815c-1.414-1.809-4.168-0.015-5.016,1.437
			c-0.276,0.474-2.296,2.172-4.45,4.126c-2.159,1.947-4.401,4.191-5.394,5.39c-1.075,1.235-2.065,2.41-2.805,3.158
			c-0.49,0.542-3.975,4.245-6.113,9.949c-1.057,2.834-1.693,6.045-2.154,9.101c-0.457,3.051-0.844,5.987-1.013,8.452
			c-0.173,2.42-0.151,4.346-0.062,5.875c0.108,1.514,0.197,2.67,0.537,3.668c0.315,0.981,0.9,1.69,1.445,2.082
			c0.296,0.177,0.149,0.12,0.435,0.255c0.208,0.097,0.381,0.151,0.513,0.182c0.292,0.078,0.554,0.1,0.813,0.1
			c1.043,0.005,1.878-0.781,1.965-1.57c0.087-0.833-0.541-1.136-0.942-1.073c-0.216,0.014-0.427,0.079-0.624,0.099l0.032,0.004
			l-0.002-0.005c-0.026-0.001-0.264-0.117-0.461-0.404l-0.103-0.173l-0.015,0.009l-0.064,0.087l-0.027,0.096l0.028,0.132
			l-0.058,0.089l-0.095-0.006l-0.048-0.004l-0.024-0.001l-0.003-0.001h-0.002c-0.199,0.128,0.27-0.174,0.222-0.143l-0.002-0.001
			l-0.004-0.001l-0.061-0.01l-0.13-0.049c-0.182-0.092-0.43-0.344-0.648-0.947c-0.211-0.584-0.382-1.598-0.522-2.923
			c-0.134-1.332-0.204-3.035-0.095-5.25c0.108-2.361,0.444-5.249,0.86-8.265c0.416-3.003,1-6.091,1.974-8.777
			C336.849,313.818,340.21,310.14,340.851,309.381z"/>
		<path style="fill:#221714;" d="M329.565,313.773c0.438-0.48,0.93-0.918,1.423-1.326c0.676-0.592,2.042-1.664,3.406-2.529
			c1.358-0.878,2.724-1.514,3.234-1.54c1.38-0.067,2.801-1.101,1.384-3.533c-1.152-1.964-3.007-0.99-3.406,0.116
			c-0.124,0.374-1.358,1.416-2.589,2.67c-1.255,1.225-2.537,2.616-3.103,3.352c-0.622,0.752-1.221,1.434-1.698,1.837
			c-0.356,0.282-2.434,2.35-4.506,5.225c-2.098,2.855-4.07,6.544-5.178,9.257c-1.119,2.658-1.576,4.247-1.908,5.215
			c-0.34,0.969-0.472,1.346-0.602,1.716c-0.555,1.531,3.216,2.878,2.992,0.509c-0.059-0.584-0.108-1.018,0.042-1.93
			c0.136-0.913,0.421-2.328,1.339-4.771c0.956-2.614,2.778-6.166,4.765-8.959C327.118,316.27,329.145,314.207,329.565,313.773z"/>
		<path style="fill:#221714;" d="M335.612,292.145c0.901-0.669,1.858-1.292,2.823-1.83c1.336-0.792,4.029-2.14,6.697-2.947
			c2.658-0.842,5.222-1.179,6.019-1.036c1.084,0.144,2.348,0.117,3.323-0.291c0.97-0.373,1.693-1.173,1.557-2.567
			c-0.112-1.139-1.06-1.676-2.202-1.817c-1.134-0.089-2.424,0.224-3.158,0.733c-0.492,0.289-3.197,1.078-5.97,2.314
			c-2.793,1.208-5.592,2.924-6.877,3.875c-1.379,0.968-2.629,1.932-3.537,2.515c-0.647,0.411-4.836,3.421-8.542,8.359
			c-1.858,2.444-3.622,5.299-4.981,8.2c-1.378,2.893-2.404,5.795-3.096,8.23c-1.348,4.8-1.641,7.648-1.913,9.386
			c-0.227,1.738-0.343,2.44-0.367,3.2c-0.033,0.761,0.324,1.48,0.812,1.846c0.486,0.381,1.052,0.389,1.443,0.204
			c0.403-0.188,0.678-0.521,0.827-0.846c0.155-0.346,0.138-0.663-0.057-1.511c-0.183-0.825-0.225-1.617-0.193-3.216
			c0.105-1.601,0.24-4.127,1.381-8.534c0.613-2.346,1.555-5.141,2.844-7.932c1.271-2.8,2.936-5.562,4.712-7.939
			C330.693,295.742,334.771,292.745,335.612,292.145z"/>
		<path style="fill:#221714;" d="M371.21,275.51c-3.947,2.232-6.073,6.632-9.018,8.3c-2.946,1.667-2.54-3.728-1.089-5.164
			c1.451-1.436,4.063-4.02,6.094-6.03c2.031-2.01,15.959-15.794,17.701-17.517c0.894-0.838,4.847-4.542,8.985-8.418
			c2.07-1.963,4.245-3.971,6.187-5.631c1.933-1.67,3.647-2.972,4.536-3.802c1.807-1.664,3.714-1.714,4.764-1.148
			c1.06,0.549,1.37,1.627,0.585,2.235c-0.797,0.61-2.898,1.838-4.776,3.276c-1.895,1.405-3.623,2.911-4.07,3.311
			c-0.947,0.618-11.449,8.593-13.175,10.919c-1.72,2.326-7.835,7.753-10.157,10.051C375.452,268.191,372.683,274.677,371.21,275.51z
			"/>
		<path style="fill:#221714;" d="M238.618,170.685c-2.531-0.861-5.074-1.797-7.512-2.795c-3.439-1.38-9.997-4.227-15.899-7.351
			c-2.969-1.553-5.726-3.144-8.015-4.532c-2.305-1.415-4.38-2.452-5.379-2.959c-1.323-0.704-3.064-1.308-4.99-1.368
			c-1.88-0.079-3.807,0.366-5.308,1.258c-1.511,0.873-2.508,2.193-2.714,3.301c-0.226,1.125,0.263,1.931,1.188,2.422
			c0.772,0.416,1.542,0.443,2.26,0.451c0.716-0.008,1.415-0.082,2.205-0.179c0.786-0.096,1.668-0.191,2.537-0.246
			c0.959-0.033,1.856-0.064,2.561-0.088c0.516-0.035,2.077,0.275,4.349,1.246c2.264,0.972,5.332,2.423,8.492,3.77
			c6.344,2.767,13.408,5.364,16.915,6.494c3.69,1.213,7.17,2.336,9.496,3.238c0.862,0.314,4.022,1.472,8.796,2.823
			c2.394,0.653,5.225,1.322,8.427,1.573c3.206,0.244,6.736-0.062,10.25-0.936c7.082-1.726,13.961-5.464,20.438-8.961
			c6.473-3.557,12.564-7.09,17.735-9.659c5.074-2.551,9.174-4.251,12.499-5.329c3.313-1.125,5.831-1.676,7.759-2.025
			c3.866-0.646,5.378-0.622,6.845-0.609c0.74,0.012,1.427-0.13,2.056-0.237c0.628-0.109,1.197-0.294,1.693-0.527
			c0.99-0.467,1.695-1.129,1.907-1.78c0.212-0.652-0.079-1.298-1.104-1.733c-1.017-0.418-2.791-0.74-5.357-0.247
			c-0.62,0.106-1.198,0.19-1.773,0.303c-0.57,0.135-1.143,0.271-1.764,0.419c-0.619,0.135-1.286,0.279-2.044,0.444
			c-0.744,0.202-1.578,0.429-2.545,0.692c-3.822,1.091-9.813,2.851-19.547,7.944c-5.208,2.68-11.267,6.268-17.648,9.836
			c-6.389,3.52-13.11,7.194-19.744,8.851c-3.307,0.845-6.545,1.142-9.52,0.928c-2.989-0.218-5.741-0.855-8.139-1.499
			C243.218,172.272,239.794,171.079,238.618,170.685z"/>
		<path style="fill:#221714;" d="M235.683,311.629c-0.069-2.38-2.598-3.375-2.651-5.151c-0.052-1.777,3.98-1.999,4.485-1.179
			c0.505,0.82,1.413,2.295,2.12,3.443c0.707,1.148,5.552,9.017,6.158,10.001c0.606,0.984,4.595,9.156,6.461,10.493
			c1.866,1.338-1.13,4.087-2.013,3.5c-0.883-0.587-2.901-3.865-3.204-4.357c-0.303-0.492-2.023-6.668-3.106-7.584
			c-1.085-0.916-2.726-4.427-3.534-5.739C239.591,313.744,235.709,312.518,235.683,311.629z"/>
		<path style="fill:#221714;" d="M245.46,160.219c-3.455-0.384-5.656-3.77-2.64-4.902
			C245.836,154.186,248.853,160.596,245.46,160.219z"/>
		<path style="fill:#221714;" d="M266.952,159.088c-1.81,1.357-1.131-5.279,1.508-6.033
			C271.099,152.301,268.46,157.957,266.952,159.088z"/>
		<path style="fill:#221714;" d="M207.754,111.376c-5.279-1.131-4.147-6.787-0.754-7.164c3.394-0.377,3.394,3.017,6.033,3.77
			c2.64,0.754,5.656,0,6.41,2.64c1.347,4.713-1.508,6.41-4.525,4.525C211.901,113.261,207.754,111.376,207.754,111.376z"/>
		<path style="fill:#221714;" d="M289.783,106.966c-2.367-0.474-4.734,5.918-0.473,5.918c4.26,0,5.444-3.314,7.101-3.787
			c1.657-0.474,6.628-0.71,6.391-3.314c-0.237-2.604-3.077-6.155-5.208-3.787c-2.13,2.367-3.314,3.314-4.261,3.55
			C292.387,105.783,289.783,106.966,289.783,106.966z"/>
		<path style="fill:#221714;" d="M188.27,342.999c-1.604,9.306-8.394,26.001-8.394,26.001s-5.253,13.454-8.533,21.853
			c-3.327,8.383-6.883,18.654-9.224,25.512l-6.069,17.905l16.539-0.5l17.934-0.438c12.683-0.315,46.301-1.11,54.407-1.177
			c27.181-0.28,36.286-0.712,36.286-0.712s25.411-0.546,36.28-0.779c10.869-0.139,25.326-0.073,32.606-0.59
			c7.279-0.505,5.393,0.218,16.259-0.06c10.869-0.327,21.638,0.364,12.545,1.012c-4.552,0.325-12.254,0.576-18.818,0.69
			c-6.564,0.142-11.99,0.157-11.99,0.157l-23.643,1.145c0,0-8.901-1.258-19.855-0.428c-10.956,0.845-32.7,1.049-41.799,1.49
			c-9.108,0.441-20.015,0.893-32.699,1.053c-12.679,0.16-27.172,0.376-39.845,0.662c-5.859,0.113-12.885,0.378-19.369,0.632
			c-7.542,0.319-14.455,0.612-18.747,0.794c0.744-2.256,1.065-3.229,1.353-4.103c0.629-1.87,1.887-5.611,3.46-10.288
			c1.467-4.289,3.227-9.435,4.987-14.582c3.589-10.269,7.178-20.538,8.373-23.96c1.211-3.418,3.174-9.985,4.861-15.69
			c1.666-5.712,3.079-10.555,3.079-10.555s1.858-1.061,7.196-14.502C190.815,330.117,188.27,342.999,188.27,342.999z"/>
		<path style="fill:#221714;" d="M358.147,359.635c-0.826-5.442-4.322-10.184-4.821-14.28c-0.51-4.07,4.521-0.532,5.353,1.799
			c0.848,2.339,2.407,6.538,3.658,9.789c0.632,1.622,3.096,8.007,5.738,14.252c2.617,6.256,5.389,12.377,6.007,13.736
			c0.61,1.362,3.157,7.451,6.104,13.702c2.932,6.258,6.285,12.661,7.963,14.867c3.363,4.394,0.822,8.067-0.76,6.078
			c-1.617-1.972-6.269-10.861-6.933-12.211c-0.34-0.672-1.938-4.783-3.606-9.12c-1.683-4.332-3.429-8.895-4.361-10.393
			c-1.888-2.991-5.516-12.333-7.036-16.032C363.888,368.155,358.456,361.683,358.147,359.635z"/>
		<path style="fill:#221714;" d="M276.548,322.013c-0.857-0.028-1.725-0.073-2.569-0.136c-2.374-0.18-9.151-0.665-10.34-1.221
			c-1.612-0.753-4.073-0.601-4.001,2.203c0.058,2.292,2.539,2.417,3.707,1.756c0.765-0.433,7.957-0.756,10.296-0.945
			c1.232-0.099,2.394-0.12,3.181-0.013c1.151,0.155,14.83,0.673,22.232,1.035c7.281,0.354,8.287,0.552,9.256,0.7
			c1.955,0.298,3.067-3.634-0.063-3.036c-1.515,0.288-2.219,0.47-9.127,0.333C291.748,322.543,278.152,322.066,276.548,322.013z"/>
		<path style="fill:#221714;" d="M20.372,295.473c-1.043,0.045-2.099,0.09-3.127,0.134c-2.896,0.05-11.155,0.461-12.669,0.11
			c-2.054-0.514-5.017,0.032-4.52,2.792c0.405,2.263,3.382,1.996,4.694,1.174c0.853-0.565,9.462-1.843,12.27-2.255
			c1.476-0.238,2.878-0.378,3.839-0.345c0.702-0.019,5.195-0.142,10.637-0.29c5.442-0.115,11.833-0.103,16.319,0.016
			c8.824,0.246,10.04,0.535,11.212,0.678c2.358,0.328,3.739-3.588-0.08-3.038c-1.845,0.28-2.701,0.396-11.109,0.356
			c-4.486-0.011-10.867,0.039-16.368,0.206C25.967,295.168,21.346,295.42,20.372,295.473z"/>
		<path style="fill:#221714;" d="M455.722,286.878c-1.438-0.057-2.894-0.133-4.31-0.224c-3.982-0.277-15.371-0.941-17.413-1.455
			c-2.742-0.777-6.975-0.48-6.618,2.309c0.284,2.289,4.342,2.292,6.276,1.652c1.244-0.488,13.291-0.634,17.213-0.723
			c2.066-0.058,4.014-0.038,5.336,0.096c1.931,0.18,24.888,1.276,37.373,1.078c6.138-0.095,9.643-0.262,11.822-0.415
			c2.181-0.177,3.028-0.141,3.864-0.252c3.449-0.349,4.078-4.478-0.704-2.955c-2.404,0.567-3.487,1.213-15.02,1.618
			C481.225,288.017,458.411,286.974,455.722,286.878z"/>
		<path style="fill:#221714;" d="M286.112,290.609c-1.072,0.012-2.159,0.006-3.217-0.009c-2.974-0.085-11.484-0.096-13.036-0.487
			c-2.094-0.612-5.2-0.139-4.769,2.628c0.35,2.281,3.38,2.094,4.767,1.343c0.891-0.55,9.806-1.398,12.717-1.675
			c1.53-0.169,2.978-0.239,3.965-0.171c1.442,0.062,18.531,0.124,27.807,0.027c9.121-0.13,10.405-0.123,11.633-0.07
			c2.495,0.069,3.385-3.965-0.393-3.013c-1.839,0.437-2.686,0.757-11.286,1.08C305.124,290.574,288.122,290.546,286.112,290.609z"/>
		<path style="fill:#221714;" d="M250.065,404.34c-1.803,0.074-3.63,0.122-5.408,0.147c-5.004,0.108-19.282,0.176-21.819-0.35
			c-3.442-0.653-8.581-0.419-8.243,2.386c0.276,2.282,5.534,2.319,7.943,1.584c1.585-0.439,16.699-1.322,21.592-1.798
			c2.581-0.225,5.021-0.376,6.686-0.364c1.218,0.015,9.029-0.254,18.48-0.649c9.451-0.393,20.544-0.871,28.336-1.118
			c15.328-0.477,17.461-0.292,19.509-0.24c4.127,0.139,6.129-3.876-0.415-3.024c-3.163,0.423-4.633,0.616-19.174,1.262
			C282.038,402.908,253.439,404.274,250.065,404.34z"/>
		<path style="fill:#221714;" d="M258.345,377.724c-1.678,0.224-3.379,0.451-5.033,0.672c-2.326,0.282-6.802,0.864-10.979,1.142
			c-4.179,0.285-8.047,0.217-9.193-0.094c-1.57-0.328-3.476-0.559-5.008-0.36c-1.52,0.156-2.721,0.789-2.762,2.192
			c-0.034,1.147,1.219,1.872,2.804,2.254c1.581,0.299,3.461,0.257,4.62-0.121c0.768-0.2,4.768-0.49,9.063-1.152
			c4.3-0.642,8.912-1.537,11.169-1.997c2.377-0.49,4.631-0.874,6.183-1.007c0.568-0.039,2.66-0.328,5.71-0.627
			c3.05-0.299,7.061-0.63,11.451-0.554c4.391,0.085,9.18,0.504,13.78,0.902c4.601,0.407,9.022,0.788,12.686,0.994
			c7.207,0.443,11.368,0.227,13.946,0.073c1.294-0.121,2.19-0.205,2.887-0.271c0.699-0.1,1.197-0.172,1.689-0.243
			c1.001-0.115,1.81-0.584,2.332-1.092c0.526-0.504,0.77-1.05,0.714-1.489c-0.055-0.44-0.402-0.776-1.04-0.865
			c-0.648-0.098-1.539,0.12-2.942,0.544c-0.667,0.231-1.252,0.43-1.975,0.576c-0.72,0.147-1.539,0.374-2.719,0.489
			c-2.335,0.318-6.03,0.578-12.793,0.277c-3.608-0.149-7.983-0.482-12.577-0.853c-4.596-0.362-9.411-0.759-13.93-0.823
			c-4.524-0.055-8.666,0.308-11.853,0.652C261.384,377.287,259.131,377.619,258.345,377.724z"/>
		<path style="fill:#221714;" d="M285.518,354.631c-0.398,0-0.8-0.016-1.192-0.052c-1.103-0.102-4.25-0.364-4.81-0.88
			c-0.758-0.7-1.896-0.467-1.82,2.333c0.062,2.289,1.213,2.333,1.744,1.633c0.348-0.458,3.675-1.017,4.756-1.282
			c0.569-0.14,1.107-0.198,1.473-0.117c0.536,0.117,6.881,0.185,10.316,0.304c3.379,0.115,3.848,0.279,4.299,0.396
			c0.91,0.234,1.366-3.733-0.075-3.033c-0.697,0.338-1.021,0.542-4.224,0.633C292.569,354.661,286.262,354.631,285.518,354.631z"/>
		<path style="fill:#221714;" d="M128.236,205.448c1.32,4.662,14.998,28.902,1.324,22.284c-0.95-0.46-0.788-2.751-1.88-3.53
			c-1.002-0.713-2.576-0.872-3.635-1.472c-2.528-1.429-5.343-1.638-6.642-4.628C114.989,212.549,122.876,205.708,128.236,205.448z"
			/>
		<path style="fill:#221714;" d="M92.17,238.509c-2.02-9.622,13.217-10.838,14.449-0.924
			C108.213,250.413,98.901,241.779,92.17,238.509z"/>
		<path style="fill:#221714;" d="M401.742,194.628c-5.222-1.021-4.319,4.632-5.41,7.814c-1.291,3.766-2.106,4.612-4.809,7.817
			c-2.644,3.135-6.124,6.807-1.183,9.175c3.812,1.827,6.871-1.917,10.202-3.044c7.124-2.41,16.346,2.348,15.627-9.152
			c-0.312-4.979-2.124-5.422-6.025-7.667C407.518,198.059,403.101,194.111,401.742,194.628z"/>
		<path style="fill:#221714;" d="M433,216.869c-3.412-1.603-16.824,13.136-3.306,11.699c3.416-0.363,9.694-1.909,10.56-5.557
			C441.226,218.919,437.09,214.753,433,216.869z"/>
		<path style="fill:#221714;" d="M170.802,141.743c0.286-3.949,3.597-10.758,7.831-11.848c0.935,4.616-3.123,6.481-2.274,10.617
			C174.684,141.578,172.772,141.885,170.802,141.743z"/>
		<path style="fill:#221714;" d="M348.396,117.989c-4.203-1.838-4.554,0.388-4.426,3.364c0.002,0.043,2.921,9.064,3.215,9.381
			C353.632,137.698,353.404,123.003,348.396,117.989z"/>
		<path style="fill:#221714;" d="M240.369,133.825c-2.748-1.727-4.261-10.523,0.155-8.084c1.832,1.011,4.31,10.922,3.842,12.563
			C242.924,137.517,241.555,136.063,240.369,133.825z"/>
		<path style="fill:#221714;" d="M263.558,135.522c-1.003-2.034,0.197-16.22,5.129-11.918c0.202,0.177,0.656,7.678,0.578,7.958
			C268.564,134.104,266.083,137.597,263.558,135.522z"/>
		<path style="fill:#221714;" d="M179.146,156.225c0.084-0.191,0.214-0.369,0.33-0.536c0.2-0.218,0.603-0.625,1.116-0.847
			c0.479-0.248,1.048-0.303,1.259-0.177c0.669,0.438,1.039,0.026,0.161-2.457c-0.731-2.027-1.732-1.646-1.824-0.88
			c-0.028,0.263-0.587,0.834-1.086,1.499c-0.518,0.669-0.897,1.484-1.023,1.887c-0.085,0.463-0.254,0.813-0.395,1.058
			c-0.098,0.149-0.673,1.468-0.253,3.067c0.35,1.597,1.62,3.096,2.695,3.812c2.147,1.368,2.572,1.353,2.851,1.594
			c0.696,0.392,1.503-3.244,0.624-2.784c-0.224,0.098-0.417,0.222-0.752,0.192c-0.337-0.025-0.864-0.119-1.681-0.574
			c-0.877-0.474-1.842-1.568-2.116-2.671C178.712,157.303,179.109,156.403,179.146,156.225z"/>
		<path style="fill:#221714;" d="M345.983,146.405c-0.037-0.403-0.108-0.818-0.207-1.226c-0.102-0.579-0.621-1.684-1.384-2.462
			c-0.737-0.806-1.546-1.333-1.718-1.676c-0.495-0.93-1.748-1.025-2.265,1.56c-0.434,2.116,0.211,2.335,0.772,1.863
			c0.187-0.158,0.856-0.143,1.506,0.092c0.656,0.217,1.218,0.746,1.449,1.081c0.275,0.331,0.38,0.751,0.332,1.029
			c-0.029,0.199-0.044,1.528-0.717,3.085c-0.624,1.556-1.71,3.27-2.544,4.42c-1.667,2.254-2.074,2.453-2.375,2.698
			c-0.633,0.481,2.126,3.026,2.328,1.652c0.089-0.677,0.134-0.975,1.619-3.308c0.779-1.255,1.874-3.077,2.539-4.863
			c0.334-0.889,0.556-1.768,0.641-2.489C346.036,147.136,346.008,146.593,345.983,146.405z"/>
		<path style="fill:#221714;" d="M248.123,204.291c-1.016-0.132-2.038-0.3-3.025-0.495c-1.381-0.287-4.05-0.876-6.374-1.782
			c-2.341-0.886-4.229-2.119-4.609-2.689c-0.584-0.736-1.256-1.446-2.024-1.787c-0.711-0.356-1.666-0.433-2.709,0.376
			c-0.831,0.638-0.749,1.769-0.077,2.704c0.653,0.957,1.807,1.602,2.626,1.746c0.542,0.113,2.915,1.243,5.577,1.874
			c2.653,0.688,5.548,1.061,6.97,1.17c1.498,0.128,2.899,0.264,3.842,0.458c0.684,0.1,5.142,0.879,10.65,0.837
			c5.493-0.018,11.874-0.993,16.277-1.981c4.331-0.979,6.757-1.709,8.27-2.125c1.51-0.43,2.101-0.579,2.682-0.718
			c2.348-0.638,2.076-4.512-1.145-2.622c-0.794,0.432-1.362,0.797-2.728,1.326c-1.359,0.545-3.507,1.299-7.507,2.303
			c-4.267,1.057-10.473,2.073-15.856,2.14c-2.693,0.055-5.146-0.116-7.065-0.303C249.963,204.525,248.6,204.351,248.123,204.291z"/>
	</g>
</g>
</svg>
