<?xml version="1.0" encoding="iso-8859-1"?>
<!-- Generator: Adobe Illustrator 21.1.0, SVG Export Plug-In . SVG Version: 6.00 Build 0)  -->
<svg version="1.1" id="_x39_" xmlns="http://www.w3.org/2000/svg" xmlns:xlink="http://www.w3.org/1999/xlink" x="0px" y="0px"
	 viewBox="0 0 512 512" style="enable-background:new 0 0 512 512;" xml:space="preserve">
<g>
	<path style="fill:#FF7F14;" d="M179.705,47.633c0,0-18.993-4.317-19.857-0.863c-0.863,3.453,4.317,10.36,4.317,19.857
		c0,9.497,0.863,18.993,11.223,20.72c10.36,1.727,3.237,9.804-0.863,18.994c-4.1,9.19-1.727,21.584,1.727,27.627
		c3.453,6.043,11.223,20.72,4.317,34.534c-6.907,13.813,17.267,33.67,27.627,44.031c10.36,10.36,32.807,74.248-6.043,91.514
		c-38.85,17.267-60.434,17.267-63.024,18.994c-2.59,1.727-30.217,21.584-6.907,37.124c23.31,15.54,61.297,62.161,67.341,72.521
		c6.043,10.36,3.453,21.584-1.727,25.037c-5.18,3.453-33.67-4.317-36.26,1.727c-1.727,6.043-6.043,7.77-6.043,7.77
		s-8.633,3.453-4.317,6.907c4.317,3.453,4.317,3.453,4.317,3.453l-6.907,7.77c0,0,3.421,7.526,12.087,4.317
		c8.666-3.209,23.31-4.317,23.31-4.317s2.59,0-1.727,4.317c-4.317,4.317-9.409,3.517-6.043,12.087c3.366,8.57,0.863,7.77,7.77,5.18
		c6.907-2.59,12.95-6.907,12.95-6.907s7.77-4.317,14.677-9.497c6.907-5.18,4.618-11.451,16.404-12.087
		c11.786-0.636,17.322-3.255,25.037-6.907c7.715-3.652,9.497-8.633,3.453-18.994c-6.043-10.36-9.497-24.174-22.447-33.67
		c-12.95-9.497-36.26-37.124-36.26-37.124l-7.77-44.894c0,0,48.347-30.217,68.204-32.807l81.154,12.95l4.317,47.484
		c0,0-12.087,40.577-20.72,53.527c-8.634,12.95-18.13,21.584-25.037,32.807c-6.907,11.224-4.317,24.174,6.043,31.08
		c10.36,6.907,18.994,4.317,32.807,9.497c13.813,5.18,6.043,10.36,17.267,16.404c11.224,6.043,10.92,3.286,8.634-4.317
		c-2.287-7.603-10.36-13.814-0.863-9.497c9.497,4.317,12.95,7.77,20.72,8.633c7.77,0.863,5.18-6.043,5.18-6.043
		s3.826-10.32-6.043-15.54c10.36,4.317,6.907-2.59,0-6.907c-6.907-4.317,1.727-6.043-9.497-8.633
		c-11.223-2.59-22.447-1.727-27.627-7.77c-5.18-6.043,0-20.72,3.453-24.174c3.453-3.453,23.31-49.211,23.31-49.211
		s6.043-27.627,1.727-37.124c-4.317-9.497-16.221-28.953-31.944-41.44s-31.944-34.534-31.944-34.534l-13.814-106.191
		c0,0-6.043-38.85-7.77-46.62c-1.727-7.77,4.317-22.447,12.95-27.627c8.634-5.18,6.043-18.13,6.043-18.13s10.36-12.95,11.223-17.267
		c0.863-4.317,5.18-22.447-0.863-24.174s-13.814,3.453-17.267,10.36c-3.453,6.907-14.677,25.037-24.174,15.54
		c-9.497-9.497-11.223-24.174-24.174-26.764C238.413,27.776,179.705,47.633,179.705,47.633z"/>
	<path style="fill:#EC9A51;" d="M423.168,304.046c-11.223-9.497-31.08-10.36-46.621-7.77c-15.54,2.59-22.447,6.043-28.49,2.59
		s-10.36-7.77-4.317-22.447c6.043-14.677,5.18-38.85,5.18-38.85l3.453-3.453c0,0,6.907,6.043,16.404,10.36s17.267,2.59,30.217-1.727
		c12.95-4.317,18.994-9.497,19.857-26.764c0.863-17.267-8.633-30.217-16.404-40.577c-7.77-10.36-16.404-23.31-26.764-37.124
		c-10.36-13.814-35.397-21.584-35.397-21.584s-15.54-2.59-24.174-6.043c-8.633-3.453-20.72-12.087-21.584-15.54
		c-0.863-3.453-6.043-8.633-5.18-11.224c0.863-2.59-2.59-7.77-2.59-7.77l3.453-8.633l-1.727-8.633c0,0,2.59-4.317,5.18-12.087
		c-2.59-11.223-14.947-34.856-35.011-40.962c-20.065-6.107-41.002-2.617-53.214,2.617c-12.213,5.234-24.426,12.213-33.15,13.085
		c-8.724,0.873-5.234,8.724-5.234,8.724l4.362,15.702l3.49,17.447c0,0,5.234,14.83,4.362,20.937c0,0,0.144,5.137-0.014,11.783
		c1.224-1.443,2.077-2.835,2.176-4.009c0.432-5.091,5.612-21.584,8.202-22.879s4.748,2.158,4.748,2.158s3.022-8.633,7.338-9.065
		c4.317-0.432,5.18,2.59,5.18,2.59s-0.432-2.59,1.295-2.59s6.475,6.475,5.612,11.223c3.885-7.338,5.612-3.885,5.612-3.885
		l2.59,12.087c0,0,1.295,8.202,2.158,10.792c0.863,2.59,1.295,15.54,0.863,22.447c-0.432,6.907-2.59,24.605-2.59,24.605
		l-2.158,11.655c0,0-7.338,10.36-7.77,9.065c-0.432-1.295-3.885-5.18-3.885-5.18l-4.317-0.432l-2.59,6.043
		c0,0-1.727-4.748-3.453-6.043s-3.885-5.18-5.612-4.317c-1.727,0.863-3.885,5.18-3.885,5.18l-5.612,2.158
		c0,0-3.453-9.497-5.18-15.972c-1.304-4.892-3.835-8.796-4.998-12.276c-2.866,5.281-6.405,9.002-9.679,12.276
		c-5.18,5.18-24.256,30.533-31.944,35.397c-7.688,4.864-16.403,19.857-19.857,33.67c-3.453,13.813,6.043,35.397,24.174,37.987
		c18.13,2.59,37.987-6.043,46.621-7.77c8.633-1.727,10.36,4.317,16.404,17.267c6.043,12.95,1.727,25.037,1.727,25.037
		l-18.994,13.813c0,0-25.9-1.727-45.757-7.77s-21.584-5.18-34.534-1.727c-12.95,3.453-27.627,19.857-26.764,33.67
		c0.863,13.814,5.18,25.037,16.403,36.26c11.224,11.223,25.9,21.584,44.894,31.08s49.211,29.354,49.211,29.354l8.633,12.087
		c0,0,6.043,9.497,7.77,17.267c1.727,7.77,3.453-1.727,3.453-1.727l3.453-6.043l3.453-3.453l6.043,2.59l7.77-3.453l15.54,4.317
		c0,0,3.969-2.077,2.59-4.317c-1.379-2.239,1.727-5.18,1.727-5.18s8.633,1.727,6.043-1.727c-2.59-3.453-1.727-12.95-8.633-17.267
		c-6.907-4.317-12.087-15.54-12.087-15.54s-18.994-12.95-28.49-22.447c-9.497-9.497-1.727-12.087,3.453-20.72
		c5.18-8.634,20.72-6.043,34.534-5.18c13.814,0.863,42.304,2.59,56.981,9.497c14.677,6.907,25.9,21.584,25.9,21.584l-0.863,15.54
		c0,0-3.254,15.915-7.77,25.9c-4.516,9.985-2.59,5.18-12.087,9.497c-9.497,4.317,4.317,6.907,4.317,6.907l9.497,1.727l6.043,6.907
		l4.317-6.043c0,0,5.18,0.863,5.18,6.043c0,5.18,4.317-0.863,5.18-3.453c0.863-2.59,6.907,2.59,6.907,2.59l6.907,7.77
		c0,0,3.453-12.087,10.36-18.994c6.907-6.907,39.714-32.807,47.484-39.714c7.77-6.907,21.584-12.95,27.627-39.714
		C442.162,326.493,434.392,313.542,423.168,304.046z M287.192,126.629l-0.863,9.065l-4.317-3.022l-1.295,6.043
		c0,0,0,6.043-2.158,4.317c-2.158-1.727-8.633-5.18-8.633-5.18s0.863,6.043,1.295,9.065c0.432,3.022-5.18-3.885-5.18-3.885
		s-3.022,3.885-8.202,0c-5.18-3.885-20.72-17.699-24.174-27.195c-3.453-9.497-6.889-35.496-5.612-42.736
		c1.295-7.338,1.727-6.475,7.77-3.453c-0.432-3.453,0.432-8.202,5.612-6.907c0.432-3.453,6.043-2.59,12.518,3.453
		c3.022-3.885,10.792,5.18,10.792,5.18s0.863,4.748,6.043,10.792c10.792,8.202,13.814,28.922,13.814,28.922l3.022,7.339
		L287.192,126.629z"/>
	<path style="fill:#FF7F14;" d="M186.9,70.655c-1.727-2.878-6.331-15.54,1.727-18.994c8.058-3.453,16.691,1.151,22.447,1.727
		c5.756,0.576,16.116-4.604,16.116-4.604s17.267-7.482,24.174-5.18c6.907,2.302,10.36,9.785,10.36,16.116s0.576,9.209,0.576,9.209
		s-2.699-8.117-7.482-4.604c-2.878-2.878-8.633-5.18-10.36-4.029c-1.727,1.151-3.337-2.001-5.18,1.151
		c-1.843,3.152-3.453,8.202-3.453,8.202s-2.878-4.748-5.18-1.295c-2.302,3.453-1.151,7.482-1.727,10.36
		c-0.576,2.878,2.302,36.836,6.331,41.441s9.209,12.087,9.785,13.813c0.576,1.727,5.764,5.946,0,7.482
		c-5.764,1.536-8.058-1.151-11.511,0c-3.453,1.151-5.18-1.151-5.18-1.151l-4.604-5.756c0,0,2.014-8.058,1.295-19.569
		c-0.719-11.511-3.022-42.879-5.612-45.325c-2.59-2.446-5.468,1.007-5.468,1.007s-2.59-10.936-7.051-5.756
		c-1.583-4.029-6.763-3.022-9.641,1.727C194.382,71.374,188.051,66.051,186.9,70.655z"/>
	<g>
		<path style="fill:#231815;" d="M195.994,501.483c-2.197,0.784-5.797,5.194-8.44,3.836c-2.323-1.194,1.998-4.682,2.95-5.386
			C192.801,498.236,198.592,496.293,195.994,501.483z"/>
		<path style="fill:#231815;" d="M360.448,495.875c2.908,4.087,9.467,10.557,3.517,15.146c-3.644,2.811-12.44-0.806-9.349-6.101
			c-0.032,0.055,7.622,7.411,7.129,0.29c-0.153-2.209-8.63-10.791-6.32-11.877C356.535,492.813,359.179,495.293,360.448,495.875z"/>
		<path style="fill:#231815;" d="M359.377,503.224"/>
		<path style="fill:#231815;" d="M381.571,498.419c0.568-3.499,5.414-6.488,3.368-1.607
			C384.514,497.827,381.056,500.672,381.571,498.419z"/>
		<path style="fill:#231815;" d="M181.027,499.772c0.422,0.452,6.227,0.58,6.445,0.463c-1.691,0.512-5.706,5.215-7.958,1.524
			C178.604,500.267,179.197,499.84,181.027,499.772z"/>
		<path style="fill:#231815;" d="M338.615,453.424c3.251,4.156,9.022,4.128,12.385,7.485c2.523,2.519,2.717,2.436-1.868,2.579
			c-1.713,0.053-19.782-7.992-14.766-11.435C334.87,451.708,338.169,453.132,338.615,453.424z"/>
		<path style="fill:#231815;" d="M197.652,248.515c5.607,9.436,11.435,19.095,8.402,30.529
			c-1.217,4.589-10.582,21.809-17.407,20.487c0.317,0.061,7.289-12.222,8.071-13.549c3.328-5.646,4.919-10.707,3.551-17.265
			c-0.828-3.969-13.246-27.408-12.551-27.751C189.159,240.256,196.58,247.638,197.652,248.515z"/>
		<path style="fill:#231815;" d="M201.564,288.968c-4.206,5.506-20.003,15.173-26.755,8.557c0.777,0.761,16.458-6.71,18.592-8.305
			C197.813,285.925,204.115,277.241,201.564,288.968z"/>
		<path style="fill:#231815;" d="M217.789,394.859c7.376,4.985,26.485,8.54,29.948,17.609c-0.179-0.469-11.232-3.533-12.765-4.192
			c-4.079-1.754-8.311-3.119-12.234-5.117c-2.994-1.525-11.364-5.216-11.997-8.879C210.109,390.622,215.258,394.463,217.789,394.859
			z"/>
		<path style="fill:#231815;" d="M232.675,418.229c5.068,4.571,18.345,9.277,20.861,15.756c0.524,1.351-29.324-16.914-25.857-18.484
			C228.354,415.195,231.807,417.853,232.675,418.229z"/>
		<path style="fill:#231815;" d="M258.513,343.769c9.893,0.811,19.827,3.59,28.871,7.64c6.021,2.696,18.278,8.153,19.628,15.711
			c-0.463-2.304-10.423-6.615-12.79-7.905c-5.716-3.115-11.449-5.418-17.69-7.199c-3.487-0.995-29.606-6.33-29.536-4.512
			C246.915,345.404,257.247,343.939,258.513,343.769z"/>
		<path style="fill:#231815;" d="M328.551,365.818c4.798,12.381-1.006,31.776-15.53,35.463c1.302-0.331,6.142-7.466,7.185-8.75
			c2.651-3.264,4.846-6.709,5.885-10.823c0.803-3.181-1.792-23.356-3.961-22.395C323.472,358.717,327.709,364.646,328.551,365.818z"
			/>
		<path style="fill:#231815;" d="M302.629,447.294c-2.974,4.603-6.049,10.159-5.676,15.788c0.276,4.169,3.704,8.117,3.529,12.176
			c-0.019,0.429-4.193-1.937-4.582-2.28c-2.107-1.858-3.394-4.339-4.155-7.023c-1.378-4.862-0.688-10.098,1.402-14.513
			c1.298-2.742,4.885-10.232,7.475-11.16C305.13,438.668,302.847,443.781,302.629,447.294z"/>
		<path style="fill:#231815;" d="M164.821,300.258c-21.404-3.976-42.959-21.008-64.845-9.91
			c-16.78,8.508-26.603,33.094-18.69,50.243c4.832,10.473,15.513,18.198,24.263,25.303c8.561,6.952,17.554,13.45,27.61,18.07
			c18.554,8.523,37.449,19.116,53.811,31.547c4.341,3.298,10.223,7.045,10.694,13.055c0.12,1.534-0.391,7.137-1.103,8.347
			c-2.982,5.071-8.854,2.881-9.689-1.992c-0.527-3.073,2.519-5.311,2.286-7.674c-0.321-3.267-4.29-5.609-6.605-7.239
			c-10.091-7.107-21.304-12.436-31.276-19.747c-5.84-4.282-11.751-6.757-18.423-9.587c-12.06-5.116-22.663-12.727-32.764-20.968
			c-17.871-14.581-34.535-31.296-25.808-56.414c8.1-23.313,31.173-36.766,55.225-30.073c10.515,2.926,18.93,6.444,29.959,7.748
			c4.777,0.565,11.112,1.021,13.829,5.937C177.068,303.73,169.236,302.652,164.821,300.258z"/>
		<path style="fill:#231815;" d="M325.428,293.285c9.022,6.976,27.288,2.792,37.619,1.736c11.966-1.223,24.137-3.301,36.197-2.63
			c12.615,0.701,23.929,7.227,32.013,16.846c8.437,10.039,9.752,20.623,8.384,33.212c-2.82,25.952-19.224,45.903-39.249,61.33
			c-10.67,8.22-20.745,17.062-31.569,25.096c-6.848,5.083-17.855,11.962-16.518,22.037c-1.232,0.836-0.796-7.714-0.873-7.357
			c1.219-5.592,5.805-10.2,9.757-14.089c10.112-9.95,21.246-19.96,32.574-28.492c19.466-14.661,38.621-33.343,41.303-58.977
			c2.864-27.375-18.072-45.615-44.667-42.852c-14.384,1.494-28.591,4.738-43.071,5.302c-5.795,0.226-11.941,0.242-17.378-2.084
			c-2.35-1.005-12.925-8.189-9.159-12.106C321.529,289.491,324.862,292.86,325.428,293.285z"/>
		<path style="fill:#231815;" d="M351.529,298.155c-4.747,0.565-14.743,2.504-12.817-3.694c0.52-1.672,2.965-2.725,3.091-4.718
			c0.042-0.672-1.883-2.395-2.057-3.425c-0.786-4.662,1.303-9.682,2.506-14.125c2.211-8.163,3.833-16.564,4.036-25.05
			c0.086-3.577-0.163-4.782-1.87-7.549c-1.69-2.737-5.365-4.612-2.712-8.232c5.642-7.698,8.399,7.16,8.895,10.565
			c1.13,7.757-1.499,17.398-2.868,25.058c-1.039,5.818-3.526,13.457-1.821,19.242c0.526,1.785,2.242,3.652,2.942,5.257
			c0.455,1.043-1.321,1.69-0.561,2.857C349.551,296.268,353.616,295.385,351.529,298.155z"/>
		<path style="fill:#231815;" d="M254.698,445.329c10.921,1.92,11.028,15.27,6.107,22.554c-5.108,7.559-12.424,9.76-20.967,9.922
			c-9.395,0.178-15.302,6.607-22.401,12.272c-5.563,4.439-16.741,13.622-24.306,9.135c-0.183,0.918,9.059-3.566,9.994-4.255
			c4.136-3.051,7.938-6.535,12.052-9.619c6.891-5.166,13.284-10.825,22.15-11.445c8.557-0.599,18.343-2.115,20.098-12.515
			C258.078,457.511,249.658,444.786,254.698,445.329z"/>
		<path style="fill:#231815;" d="M164.87,490.24c4.251-0.958,9.058-2.02,13.416-1.084c2.415,0.519,5.601,3.105,8.104,1.455
			c5.322-3.509-1.603-6.048-4.239-6.223c-4.058-0.27-8.866,1.25-12.773,2.068c-4.141,0.867-8.421,2.042-12.659,2.241
			c-1.798,0.085-8.153-1.394-9.287,0.604C144.153,495.076,163.358,490.569,164.87,490.24z"/>
		<path style="fill:#231815;" d="M176.552,478.172c-3.891-0.988-8.275-1.695-12.277-1.255c-3.708,0.407-5.952,2.479-9.287,3.502
			c-0.248,0.076,1.948-4.855,3.2-5.754c2.589-1.859,7.955-2.373,11.103-2.191c2.266,0.131,13.391,2.094,12.863,4.257
			C181.916,477.707,177.479,477.959,176.552,478.172z"/>
		<path style="fill:#231815;" d="M177.131,469.51c-4.289-0.833-9.054-2.101-13.469-1.968c-3.853,0.116-6.85,2.397-10.439,2.893
			c-0.185,0.026,2.37-4.377,3.013-4.868c2.871-2.194,7.731-2.196,11.185-1.958c2.57,0.177,16.007,1.999,15.616,4.136
			C182.843,468.797,178.094,469.277,177.131,469.51z"/>
		<path style="fill:#231815;" d="M183.747,459.165c-3.91-0.422-7.895-1.342-11.842-1.282c-2.616,0.04-5.626,1.386-8.154,1.096
			c-1.74-0.2,4.741-4.58,4.584-4.518c2.216-0.88,5.844-0.723,8.229-0.577c2.141,0.131,11.926,1.07,11.867,2.986
			C188.397,457.979,184.875,458.836,183.747,459.165z"/>
		<path style="fill:#231815;" d="M203.967,454.82c-0.977,4.03-2.321,5.332-6.279,5.312c-3.195-0.016-11.149-0.834-13.742-2.912
			c-1.441-1.155,14.242-1.575,14.184-1.556c1.592-0.539,2.796-5.793,4.062-5.546C203.25,450.326,203.718,453.694,203.967,454.82z"/>
		<path style="fill:#231815;" d="M205.97,428.521c1.75,5.699,5.3,16.474-3.54,19.105c2.843-0.846,3.118-9.862,2.813-12.068
			c-0.254-1.832-3.467-10.289-2.211-10.535C203.565,424.919,205.748,428.1,205.97,428.521z"/>
		<path style="fill:#231815;" d="M219.726,430.568c1.388,3.09,7.258,10.739,10.47,12.023c-3.549-2.074-7.27-2.384-10.206-6.192
			c-0.799-1.036-4.689-7.903-3.113-8.354C217.321,427.917,219.47,430.236,219.726,430.568z"/>
		<path style="fill:#231815;" d="M232.385,428.908c2.657,4.33,8.316,6.376,12.588,8.606c-1.983,2.623-8.872-1.287-10.832-2.809
			c-0.816-0.633-6.761-7.369-4.729-7.955C229.773,426.645,232.126,428.636,232.385,428.908z"/>
		<path style="fill:#231815;" d="M186.563,490.669c-3.59,1.932-14.455,9.466-9.835,14.977c2.642,3.152,6.761-0.739,10-0.233
			c-1.089-0.17-5,4.659-7.111,4.908c-7.39,0.871-8.224-7.486-6.482-12.526c1.169-3.382,17.366-16.896,18.948-13.281
			C192.538,485.553,187.491,489.694,186.563,490.669z"/>
		<path style="fill:#231815;" d="M151.994,482.698c1.102-1.065-2.674,2.727-2.539,3.416c-0.074-0.381,6.217,3.607,5.684,3.619
			c-3.642-0.57-12.287,1.875-10.342-4.626C145.935,481.306,155.703,474.803,151.994,482.698z"/>
		<path style="fill:#231815;" d="M156.564,470.315c-1.39,0.254-3.157,1.766-4.128,2.734c0.381-0.38,5.515,3.695,5.861,4.569
			c0.552,1.396-11.595-3.398-12.845-4.47c0.74-0.617,15.315-10.831,14.298-5.593C159.678,467.924,156.892,470.115,156.564,470.315z"
			/>
		<path style="fill:#231815;" d="M165.302,459.383c-2.202,0.977-9.66,7.549-5.408-0.329
			C161.432,456.203,166.224,454.368,165.302,459.383z"/>
		<path style="fill:#231815;" d="M308.777,481.71c8.963,4.852,20.221,1.226,29.086,5.801c7.608,3.927,11.558,13.613,18.1,18.991
			c0.403,0.276-4.668,0.256-5.215,0.086c-3.801-1.181-6.035-4.463-8.544-7.261c-5.615-6.26-8.258-7.211-16.41-7.713
			c-5.729-0.353-12.103-1.495-17.473-3.675c-2.493-1.012-13.39-7.886-8.512-11.979C299.255,476.424,306.918,481.6,308.777,481.71z"
			/>
		<path style="fill:#231815;" d="M379.79,504.217c4.681,2.787,10.221,3.192,10.583-3.743c0.399-7.662-11.078-13.763-16.833-16.68
			c-2.125-1.077-8.648-4.695-10.892-1.948c-2.117,2.592,0.743,4.358,2.755,5.607c6.13,3.805,14.089,2.619,19.575,8.286
			c3.904,4.033,3.069,8.189-2.49,6.908c-7.572-1.745-14.574-9.325-22.347-11.805c-6.501-2.074-11.023,1.167-3.075,3.522
			C365.269,496.793,372.398,499.781,379.79,504.217z"/>
		<path style="fill:#231815;" d="M371.858,475.811c5.528,2.012,11.476,2.784,15.477,7.408c1.935,2.236,6.711,10.531,1.225,12.279
			c2.56-0.816-4.348-10.178-4.902-10.617c-1.829-1.448-4.1-1.781-6.241-2.609c-2.262-0.876-10.035-2.653-10.993-4.538
			C364.852,474.641,368.82,476.108,371.858,475.811z"/>
		<path style="fill:#231815;" d="M367.149,467.893c5.289,2.017,11.243,2.315,16.355,4.791c2.536,1.228,9.782,7.409,4.093,9.852
			c3.055-1.312-5.877-6.438-6.097-6.52c-2.969-1.113-6.247-1.261-9.262-2.094c-2.137-0.59-10.05-2.325-10.965-4.733
			C360.356,466.777,365.575,468.043,367.149,467.893z"/>
		<path style="fill:#231815;" d="M356.897,460.689c1.963,0.27,32.954,2.779,25.017,11.071c2.717-2.729-16.5-5.856-18.596-6.08
			c-2.271-0.243-10.569-0.279-12.072-2.309C349.659,461.23,355.37,461.149,356.897,460.689z"/>
		<path style="fill:#231815;" d="M318.903,409.749c-3.936,6.361-10.437,19.543-19.343,20.056c0.167-0.01,6.635-7.861,7.217-8.531
			c2.181-2.512,3.972-5.434,5.787-8.192C315.967,407.909,320.869,397.947,318.903,409.749z"/>
		<path style="fill:#231815;" d="M300.326,207.624c-2.988,5.031-4.311,15.336-9.48,18.601c-2.294,1.45,8.211-26.43,10.121-23.253
			C301.438,203.755,300.46,206.652,300.326,207.624z"/>
		<path style="fill:#231815;" d="M282.502,231.31c-2.309,4.442-5.45,17.977-10.987,19.435c-0.526,0.139,8.512-26.069,11.212-24.519
			C283.381,226.601,282.613,230.561,282.502,231.31z"/>
		<path style="fill:#231815;" d="M267.1,241.527c-6.297,6.342-6.678,14.173-9.692,21.869c0.02-0.052-1.465-4.766-1.435-5.734
			c0.107-3.496,1.843-8.292,3.552-11.372c1.068-1.926,9.265-11.686,10.215-9.67C270.191,237.577,267.617,240.261,267.1,241.527z"/>
		<path style="fill:#231815;" d="M237.499,235.063c2.707,5.217,11.922,13.351,11.632,19.44c-0.113,2.366-19.132-22.888-15.47-22.762
			C234.667,231.775,236.704,234.352,237.499,235.063z"/>
		<path style="fill:#231815;" d="M223.686,227.948c0.982,2.268,5.462,12.293,7.146,13.633c-1.475-1.479-14.044-11.682-10.428-15.602
			C220.849,225.497,223.415,227.642,223.686,227.948z"/>
		<path style="fill:#231815;" d="M201.636,212.361c3.806,3.984,13.589,9.98,13.804,16.13c-0.011-0.317-20.946-15.756-18.332-17.877
			C197.676,210.154,200.968,212.032,201.636,212.361z"/>
		<path style="fill:#231815;" d="M300.368,351.239c8.836,6.23,22.606,14.214,23.102,26.693c-0.064-1.597-4.704-6.925-5.635-8.214
			c-2.784-3.859-5.887-6.733-9.6-9.648c-2.039-1.601-14.946-12.41-14.421-12.542C294.608,347.33,299.021,350.751,300.368,351.239z"
			/>
		<path style="fill:#231815;" d="M340.141,430.4c-0.154,2.809,1.432,11.733,2.941,14.001c0.166,0.323-10.323-18.208-4.344-17.135
			C339.163,427.341,340.057,430.022,340.141,430.4z"/>
		<path style="fill:#231815;" d="M329.57,435.991c-1.316,2.788-2.721,5.708-4.661,8.125c-1.016,1.265-3.634,2.885-4.207,3.88
			c0.536-0.845,6.606-16.285,8.516-15.535C329.73,432.662,329.622,435.562,329.57,435.991z"/>
		<path style="fill:#231815;" d="M318.736,433.322c-4.965,5.556-5.911,7.665-12.778,8.751c1.543-0.383,13.405-12.601,13.738-12.192
			C319.977,430.227,318.918,432.964,318.736,433.322z"/>
		<path style="fill:#231815;" d="M385.672,489.01c1.801-3.595,0.925-0.878,2.895-0.103
			C388.144,488.733,386.468,489.248,385.672,489.01z"/>
		<path style="fill:#231815;" d="M153.889,481.705c-0.115,0.385,1.891,4.581,1.879,4.576c-1.202-0.816-5.656-0.973-4.482-4.269
			C151.975,480.079,152.475,480.483,153.889,481.705z"/>
		<path style="fill:#231815;" d="M157.68,469.496c-0.349,0.446-1.645,7.71-2.842,1.882
			C154.363,469.063,156.055,466.842,157.68,469.496z"/>
		<path style="fill:#231815;" d="M166.818,460.723c-0.064,0.02-0.333,1.087-0.665,1.292c-1.307,0.809-1.482-0.752-1.989-0.689
			C164.735,461.255,164.141,458.205,166.818,460.723z"/>
		<path style="fill:#231815;" d="M194.207,48.909c-10.03-0.449-13.034,8.444-12.594,17.291c0.192,3.857,4.171,12.259,6.533,4.983
			c1.063-3.275-2.676-8.067-2.559-11.62c0.613-18.657,20.293,1.111,27.622-3.976c5.046-3.502-1.572-3.262-3.644-3.657
			C204.895,51.041,198.938,49.125,194.207,48.909z"/>
		<path style="fill:#231815;" d="M248.798,41.513c-5.376-0.987-10.504,1.018-15.398,2.971c-3.924,1.566-12.934,3.276-15.964,6.065
			c-6.98,6.428,3.956,5.012,7.743,2.747c4.632-2.77,8.835-6.274,14.032-8.065c5.438-1.874,10.834-2.155,15.364,1.936
			c3.273,2.956,3.174,13.263,5.568,14.606c5.125,2.875,1.569-9.339,0.658-11.109C258.339,45.876,254.197,42.429,248.798,41.513z"/>
		<path style="fill:#231815;" d="M179.082,47.412c-3.72-4.045-14.11-6.054-15.34-11.989c-0.36-1.738,22.398,13.304,18.851,14.284
			C182.261,49.798,179.37,47.668,179.082,47.412z"/>
		<path style="fill:#231815;" d="M192.388,43.723c-0.617-2.632-5.653-9.538-7.853-10.647c2.935,2.061,13.164,6.645,10.303,12.691
			C194.423,46.652,192.527,43.972,192.388,43.723z"/>
		<path style="fill:#231815;" d="M207.486,43.846c-1.356-4-3.042-8.538-4.222-12.156c0.588,1.482,9.474,11.711,6.669,14.055
			C209.548,46.067,207.701,44.096,207.486,43.846z"/>
		<path style="fill:#231815;" d="M238.059,38.611c0.279-3.523,2.331-6.83,2.713-9.591c-0.492,2.629,1.449,8.764-0.726,11.339
			C239.346,41.187,238.245,38.975,238.059,38.611z"/>
		<path style="fill:#231815;" d="M254.292,36.938c3.837-4.531,7.186-5.445,11.5-8.182c-3.819,2.639-7.027,9.688-11.475,11.464
			C253.153,40.688,254.196,37.172,254.292,36.938z"/>
		<path style="fill:#231815;" d="M267.331,50.366c2.942-1.094,11.097-8.283,14.27-3.435c-1.325-2.024-13.66,6.936-16.182,6.168
			C264.448,52.808,267.113,50.517,267.331,50.366z"/>
		<path style="fill:#231815;" d="M271.766,64.909c2.925,1.757,5.317,3.362,7.312,6.186c0.902,1.277,1.455,4.193,2.363,5.101
			c-1.132-1.226-13.191-9.777-13.19-11.167C268.253,64.469,271.471,64.833,271.766,64.909z"/>
		<path style="fill:#231815;" d="M168.012,20.449c8.255,15.356,19.339,3.323,29.811-3.399c11.1-7.125,23.143-11.639,36.473-11.722
			c14.025-0.086,29.257,3.76,40.858,11.861c6.045,4.221,11.208,9.973,13.202,17.218c0.395,1.436,1.077,14.662,4.843,11.766
			c3.645-2.803-1.176-12.562-2.408-15.043c-3.254-6.553-7.935-12.033-13.823-16.384c-9.498-7.019-21.478-11.778-33.109-13.664
			c-14.546-2.358-29.013-0.904-42.627,4.801C189.536,10.783,181.176,19.073,168.012,20.449z"/>
		<path style="fill:#231815;" d="M301.11,34.268c8.809-8.997,20.44-9.924,20.447,5.485c0.003,6.365-1.673,12.942-3.952,18.851
			c-1.794,4.65-5.135,7.322-7.696,11.38c-3.879,6.146,2.004,14.049-2.74,19.857c-2.893,3.541-11.756,5.373-15.418,2.395
			c-4.932-4.011,1.009-6.915-0.013-10.288c1.511,4.986-2.613,9.885,6.699,7.586c4.926-1.216,5.479-2.49,5.534-6.829
			c0.052-4.107-2.273-8.383-0.75-12.453c1.693-4.525,6.647-7.502,8.63-12.09c1.92-4.442,7.566-24.348,1.018-25.787
			c-8.447-1.857-14.282,19.857-24.237,19.116c-0.199-0.015,6.144-7.352,6.441-7.739C297.348,40.783,298.982,37.347,301.11,34.268z"
			/>
		<path style="fill:#231815;" d="M171.21,62.922c-0.443-0.711-6.677-5.331-0.416-4.043C173.54,59.444,174.273,62.056,171.21,62.922z
			"/>
		<path style="fill:#231815;" d="M175.132,77.672c-0.415-0.577-7.089-5.16-7.512-5.156c2.565,0.451,5.569-1.161,8.173,1.252
			C177.988,75.803,179.374,78.535,175.132,77.672z"/>
		<path style="fill:#231815;" d="M181.864,87.004c-3.039-0.597-16.12-3.438-5.798-3.93
			C178.391,82.963,187.816,84.369,181.864,87.004z"/>
		<path style="fill:#231815;" d="M165.078,55.005c1.28-7.315-2.251-4.658-5.868-6.811c0.197,4.301,3.111,9.225,4.409,13.537
			c1.795,5.966,1.807,14.49,5.705,19.66c2.017,2.675,11.758,5.067,4.903,8.54c-6.695,3.392-11.236-10.04-12.172-14.35
			c-1.489-6.856-0.324-13.293-3.236-19.881c-1.99-4.502-5.611-7.495-0.764-11.063c2.727-2.007,10.979-3.356,13.521-1.373
			c3.227,2.516-0.594,13.958-4.983,14.516C166.947,57.734,165.037,54.881,165.078,55.005z"/>
		<path style="fill:#231815;" d="M294.352,64.115c-0.309-2.754,2.413-8.87,5.636-7.441c3.633,1.61-1.494,7.212-2.677,8.471
			c-0.865-0.758-1.711-1.536-2.538-2.334C294.632,63.245,294.492,63.68,294.352,64.115z"/>
		<path style="fill:#231815;" d="M177.621,147.977c-1.824-11.143-7.863-20.807-7.196-32.447c0.257-4.476,2.638-19.658,7.844-21.611
			c-1.047,0.393-2.19,11.151-2.391,12.156c-1.63,8.153-1.723,14.529,0.613,22.526c1.319,4.514,2.769,8.987,3.968,13.549
			c0.14,0.534,3.249,17.803,0.826,17.045C180.174,158.848,178.419,149.8,177.621,147.977z"/>
		<path style="fill:#231815;" d="M179.898,106.585c1.11-10.515,0.533-20.578,3.826-30.778c0.83-2.571,2.023-7.802,5.333-8.538
			c2.23-0.496,5.338,1.142,4.411,3.955c0.172-0.564-1.744-2.772-2.767-2.337c-2.377,1.012-2.801,4.039-3.501,6.23
			c-1.878,5.883-2.321,11.601-2.68,17.685c-0.158,2.67-0.518,5.324-0.743,7.994c-0.038,0.454-2.006,16.961-3.704,15.332
			C179.382,115.464,180.141,108.282,179.898,106.585z"/>
		<path style="fill:#231815;" d="M198.537,103.578c0.781-9.733,0.671-19.063,3.513-28.509c1.044-3.468,4.545-19.161,9.435-9.955
			c-2.668-5.296-4.46,2.078-4.85,3.537c-1.624,6.073-3.406,11.941-3.968,18.229c-0.303,3.399-3.058,26.844-3.485,26.571
			C198.214,112.831,198.729,105.098,198.537,103.578z"/>
		<path style="fill:#231815;" d="M208.122,101.845c0.877-8.007-1.47-28.031,7.029-32.847c-1.302,0.738-5.52,40.334-5.997,40.124
			C208.369,108.777,208.328,103.04,208.122,101.845z"/>
		<path style="fill:#231815;" d="M223.289,80.666c1.542,11.176,3.546,22.395,3.099,33.725c-0.174,4.418-0.836,20.787-6.299,23.201
			c1.227-0.542,1.383-11.584,1.498-12.685c0.839-8.024,0.772-15.524-0.092-23.523c-0.428-3.959-3.156-32.383-2.716-32.318
			C220.205,69.282,222.803,79.372,223.289,80.666z"/>
		<path style="fill:#231815;" d="M190.27,103.265c-1.506-9.333-1.274-15.305,0.988-24.648c0.851-3.515,5.489-22.577,12.483-15.764
			c-5.241-5.896-10.898,22.68-11.232,24.627c-0.677,3.937-0.966,6.709-0.355,10.658c0.407,2.628,1.506,5.27,1.405,7.978
			c-0.013,0.363-1.546,7.571-2.469,6.538C190.403,111.884,191.062,105.256,190.27,103.265z"/>
		<path style="fill:#231815;" d="M187.117,74.565c-1.148,0.082,8.029-5.145,3.369,0.392
			C189.178,76.51,185.504,77.948,187.117,74.565z"/>
		<path style="fill:#231815;" d="M197.863,68.752c0.91-0.017,2.446-3.702,2.265-4.049c0.408,2.27,2.49,3.855-0.486,5.859
			C197.08,72.285,196.374,68.913,197.863,68.752z"/>
		<path style="fill:#231815;" d="M208.481,69.492c1.161,0.368,2.154-2.743,1.959-3.054c0.615,2.172,2.803,3.991-0.844,5.324
			C206.595,72.859,207.26,69.143,208.481,69.492z"/>
		<path style="fill:#231815;" d="M214.605,75.471c0.564-0.048,1.374-3.796,1.357-3.825c0.391,1.15,3.702,5.005-0.061,5.819
			C214.425,77.785,213.175,76.154,214.605,75.471z"/>
		<path style="fill:#231815;" d="M283.738,114.401c-1.741-7.43-2.836-15.078-6.534-21.845c-2.704-4.946-7.949-9.674-9.31-15.185
			c0.167,0.678,6.062,4.363,6.865,5.202c4.145,4.334,7.668,9.975,9.675,15.632c0.992,2.795,5.425,23.909,4.337,24.028
			C287.574,122.364,284.493,115.683,283.738,114.401z"/>
		<path style="fill:#231815;" d="M270.562,100.456c-1.929-7.806-3.719-15.729-6.647-23.229c-1.068-2.737-2.03-7.372-3.86-9.527
			c-0.72-0.848-4.617-4.474-4.36-0.728c-1.02-7.543,6.825-0.961,8.411,2.03c2.739,5.165,5.211,11.308,6.792,16.944
			c0.867,3.092,5.44,22.707,5.04,22.812C274.454,109.145,271.183,101.675,270.562,100.456z"/>
		<path style="fill:#231815;" d="M252.614,96.697c-2.258-8.295-5.053-15.377-8.574-23.183c-1.892-4.196-2.109-12.807-7.074-9.596
			c2.778-1.797,2.064-4.753,5.496-1c3.503,3.83,5.513,11.922,7.882,16.63c1.335,2.653,8.435,24.355,8.963,23.989
			C257.502,104.791,253.279,98.053,252.614,96.697z"/>
		<path style="fill:#231815;" d="M242.187,99.899c-4.098-9.061-2.441-24.279-9.149-31.531c1.86,2.158,3.965,2.152,5.453,5.857
			c1.735,4.318,2.43,9.688,3.48,14.237c0.499,2.163,5.382,16.834,5.922,16.499C246.783,105.65,242.922,100.831,242.187,99.899z"/>
		<path style="fill:#231815;" d="M231.135,84.509c-0.738,13.286,2.193,26.785,9.003,38.254c3.161,5.323,7.025,10.132,11.254,14.636
			c2.27,2.418,9.449,7.219,10.399,10.433c-0.608-2.059-10.824-6.464-12.737-8.134c-7.421-6.478-13.111-14.926-17.12-23.871
			c-3.529-7.876-4.589-15.545-4.9-24.125c-0.18-4.955-1.68-19.05,2.559-23.198C228.809,69.269,230.861,82.19,231.135,84.509z"/>
		<path style="fill:#231815;" d="M261.12,96.286c-1.352-6.174-8.742-37.74-16.896-35.545c3.926-1.267,4.969-1.725,8.046,2.522
			c3.302,4.557,4.997,11.42,7.214,16.585c1.221,2.845,7.201,24.571,6.95,24.626C264.835,104.822,261.742,97.717,261.12,96.286z"/>
		<path style="fill:#231815;" d="M261.339,72.11c-4.033-1.723-3.083-1.985-2.867-4.935C258.536,69.635,265.167,69.626,261.339,72.11
			z"/>
		<path style="fill:#231815;" d="M250.033,67.837c-4.494-1.316-3.196-3.464-2.625-6.338c-0.161,1.359,1.641,2.516,2.122,3.449
			C249.439,64.773,252.446,69.425,250.033,67.837z"/>
		<path style="fill:#231815;" d="M240.406,70.016c-5.002-0.065-3.824-2.687-2.973-5.418c-0.283,1.232,1.168,2.232,1.704,2.834
			C238.939,67.21,243.127,70.758,240.406,70.016z"/>
		<path style="fill:#231815;" d="M233.928,76.667c-3.866-1.821-2.452-3.973-1.258-6.151
			C232.67,70.515,236.367,78.529,233.928,76.667z"/>
		<path style="fill:#231815;" d="M237.752,347.186c-7.255-0.797-15.206-0.286-22.231,1.769c-8.327,2.436-8.775,5.322-4.754,12.044
			c-1.428-2.388-5.297-2.751-5.479-6.576c-0.308-6.46,10.573-8.35,15.163-9.286c4.035-0.823,7.879-0.937,11.978-0.802
			c0.737,0.024,15.545,2.322,14.553,3.256C246.282,348.248,239.405,347.069,237.752,347.186z"/>
		<path style="fill:#231815;" d="M177.734,348.371c8.328,9.516,18.864,12.132,29.332,17.744c-1.053-0.564-7.725,0.786-10.342-0.023
			c-4.09-1.264-8.785-3.894-12.308-6.323c-2.35-1.62-15.766-14.568-13.34-15.689C171.897,343.701,176.583,347.708,177.734,348.371z"
			/>
		<path style="fill:#231815;" d="M209.071,378.393c7.165,7.254,15.741,7.507,23.982,12.031c-0.567-0.311-5.336,0.47-6.414,0.329
			c-3.728-0.49-8.152-2.222-11.438-4.125c-1.838-1.064-12.915-10.659-11.333-11.459C204.48,374.858,208.184,377.903,209.071,378.393
			z"/>
		<path style="fill:#231815;" d="M172.465,171.012c0.596-2.956,3.529-17.366,4.686-6.583c0.276,2.572-1.039,7.102-1.74,9.313
			c-1.756,5.537-5.162,9.675-9.856,12.934c-2.6,1.805-16.124,5.483-16.746,6.659c2.041-3.856,10.625-7.579,14.148-10.273
			C167.212,179.808,170.646,176.169,172.465,171.012z"/>
		<path style="fill:#231815;" d="M127.382,250.27c-11.999-6.374-17.882-21.137-18.061-34.105
			c-0.201-14.561,8.201-24.399,16.734-35.284c9.072-11.572,18.63-22.787,28.428-33.751c2.02-2.261,6.033-8.352,9.235-9.039
			c8.398-1.803,2.993,6.277,0.24,8.65c-4.374,3.77-9.112,6.567-12.971,10.891c-4.161,4.663-7.973,9.8-11.942,14.64
			c-7.605,9.274-18.53,19.921-23.558,30.972c-5.406,11.88-2.483,27.46,7.027,36.313c3.005,2.797,13.525,6.938,14.452,11.167
			C138.165,256.191,129.987,252.491,127.382,250.27z"/>
		<path style="fill:#231815;" d="M319.729,118.401c5.817-20.295,24.833-2.082,35.764,2.339
			c14.696,5.944,25.615,22.204,34.104,34.773c15.214,22.523,52.219,63.971,16.226,86.081c-11.69,7.18-38.404,12.351-49.094,0.853
			c-1.881-2.023-3.498-4.798,0.422-5.658c1.887-0.414,5.054,2.589,6.683,3.344c7.793,3.615,17.425,4.434,25.858,3.193
			c17.42-2.564,30.564-15.866,27.399-34.358c-2.44-14.258-12.296-26.63-20.806-37.863c-10.849-14.322-20.836-31.711-36.265-41.687
			c-5.909-3.821-12.786-5.263-19.107-8.135c-3.632-1.65-5.577-2.986-9.756-2.798C326.957,118.674,323.812,120.695,319.729,118.401z"
			/>
		<path style="fill:#231815;" d="M279.336,167.252c-6.806-4.519-16.911-6.848-22.83-12.328c0.335,0.31,5.007,0.512,5.956,0.789
			c3.636,1.059,7.63,2.947,10.978,4.743c2.333,1.251,11.27,8.51,11.39,8.47C283.596,169.335,280.621,167.626,279.336,167.252z"/>
		<path style="fill:#231815;" d="M276.526,152.182c-4.297-3.214-14.184-8.17-15.045-14.144c0.116,0.807,20.908,13.808,19.553,15.292
			C280.608,153.798,277.038,152.369,276.526,152.182z"/>
		<path style="fill:#231815;" d="M291.766,154.551c-1.329-6.329-9.462-11.228-9.776-17.493c-0.18-3.588,17.961,21.982,11.982,21.429
			C293.541,158.446,291.911,154.967,291.766,154.551z"/>
		<path style="fill:#231815;" d="M303.45,143.869c-3.676-4.228-10.644-12.225-10.54-18.232
			c-0.014,0.787,15.938,19.293,14.911,20.223C307.162,146.459,304.314,144.443,303.45,143.869z"/>
		<path style="fill:#231815;" d="M326.826,162.39c-3.212-4.865-13.589-13.672-11.171-20.471c-0.384,1.079,9.499,11.283,10.93,13.128
			C329.881,159.299,335.74,167.895,326.826,162.39z"/>
		<path style="fill:#231815;" d="M348.319,175.676c-3.455-4.16-12.998-9.583-13.046-15.646c0.001,0.164,19.561,16.466,16.984,17.908
			C351.84,178.171,348.656,175.972,348.319,175.676z"/>
		<path style="fill:#231815;" d="M367.803,192.498c-1.232-2.615-7.891-9.181-10.308-10.531c2.815,1.785,6.787,2.303,9.421,4.892
			c0.699,0.687,5.575,7.543,3.47,7.9C370.023,194.82,368.023,192.781,367.803,192.498z"/>
		<path style="fill:#231815;" d="M157.805,247.304c-1.514,0.217-7.428,1.35-8.689-0.607c-1.879-2.917,9.061-3.048,9.73-3.129
			c2.375-0.286,23.77-1.785,24.135-4.328C181.757,247.761,163.161,247.305,157.805,247.304z"/>
		<path style="fill:#231815;" d="M184.749,232.215c-0.58,0.376-6.626,3.543-7.166,1.497c-0.59-2.233,6.08-4.476,7.504-5.466
			c1.683-1.169,14.059-11.183,13.527-12.569C201.087,222.119,189.061,230.117,184.749,232.215z"/>
		<path style="fill:#231815;" d="M204.221,203.698c-1.075,1.129-7.184,7.183-9.736,5.355c-1.355-0.971,7.741-7.631,8.725-8.687
			c3.884-4.173,7.467-9.166,10.182-14.161c0.889-1.636,5.697-10.607,4.695-12.143C223.992,183.108,210.151,198.601,204.221,203.698z
			"/>
		<path style="fill:#231815;" d="M217.971,164.022c-0.41,0.709-3.742,5.35-5.379,3.593c-1.941-2.083,1.285-3.748,2.279-5.447
			c1.839-3.142,3.747-15.62,6.961-16.629c1.037-0.326,0.952,8.345,0.911,8.603C222.179,157.719,220.275,161.252,217.971,164.022z"/>
		<path style="fill:#231815;" d="M203.727,164.553c-0.192,1.269-0.91,4.208-2.791,4.254c-3.09,0.077-0.794-4.576-0.519-5.996
			c0.421-2.167,1.832-12.429,4.575-13.422C207.974,148.311,204.176,163.503,203.727,164.553z"/>
		<path style="fill:#231815;" d="M191.425,162.993c-0.082,0.969-1.345,5.49-3.438,4.584c-2.362-1.022-0.276-4.309-0.052-6.049
			c0.312-2.421-1.082-13.158,1.504-14.798C192.21,144.972,191.874,161.54,191.425,162.993z"/>
		<path style="fill:#231815;" d="M346.518,225.503c1.192,0.467,10.068,3.767,9.583,6.578c-0.509,2.946-10.706-3.188-12.613-3.925
			c-5.768-2.23-11.759-4.161-17.717-5.795c-1.66-0.455-12.744-4.156-13.572-3.583C320.736,212.872,338.975,221.64,346.518,225.503z"
			/>
		<path style="fill:#231815;" d="M340.549,216.103c-4.291,5.51-2.733,2.326-6.253,0.693c-3.59-1.665-8.39-2.667-12.365-3.908
			c-3.561-1.112-7.196-2.15-10.843-2.938c-1.237-0.267-10.757-1.615-6.152-3.655c2.123-0.941,15.301,4.601,17.853,5.307
			C328.689,213.236,335.436,215.13,340.549,216.103z"/>
		<path style="fill:#231815;" d="M315.901,200.836c-6.313-2.947-12.87-5.49-19.565-7.419c-4.77-1.374-10.508-1.652-15.096-3.543
			c1.414,0.583,5.647-0.65,7.529-0.509c5.353,0.401,11.289,2.199,16.341,3.97c3.306,1.159,19.144,6.841,18.695,9.151
			C323.716,202.948,316.628,201.002,315.901,200.836z"/>
		<path style="fill:#231815;" d="M296.908,182.501c-4.733-1.678-25.554-1.784-27.557-6.985c-0.531-1.38,35.505,5.329,33.703,7.609
			C302.576,183.73,297.875,182.533,296.908,182.501z"/>
		<path style="fill:#231815;" d="M290.772,94.629c3.664,0.803,7.551,1.153,11.167,2.114c-0.364-0.097-3.733,1.392-3.347,2.146
			c-0.474-0.926,4.04,2.909,4.12,2.981c2.846,2.596,4.648,5.191,8.332,7.046c2.087,1.05,8.57,1.02,9.229,2.135
			c0.76,1.286-1.317,5.149-2.603,5.569c0.975-0.319-5.492-3.215-5.8-3.367c-4.03-1.984-7.877-5.009-11.35-7.846
			C297.911,103.275,288.609,97.12,290.772,94.629z"/>
		<path style="fill:#231815;" d="M228.125,146.775c0.224-0.909,3.614-10.057,3.054-11c0.228,0.384-0.07,3.971,0.54,3.983
			c0.507,0.01,0.346-2.117,1.771-1.712c0.887,0.253,1.929,1.15,2.825,1.22c2.529,0.198,6.086,1.637,4.85-2.412
			c0.443,1.451,3.281,2.862,4.19,4.235c0.228,0.344-5.292,1.804-6.088,1.897c-4.346,0.511-5.671-1.754-8.714,2.513
			c-0.333,0.442-0.49-1.067-0.787-0.734c-0.409,0.94-0.814,1.881-1.218,2.824C228.132,148.178,228.14,146.797,228.125,146.775z"/>
		<path style="fill:#231815;" d="M226.134,130.034c0.228-1.893,2.451-9.355,1.582-11.295c0.12,0.267,0.232,3.935,0.575,3.872
			c0.999-0.181-0.553-2.1,1.335-1.896c0.654,0.07,1.187,0.988,1.953,0.765c1.085-0.316,2.509-0.009,3.668-0.313
			c1.147-0.301,1.921-4.149,3.119-2.556c0.798,1.038,0.198,4.913-0.316,6.117c0.378-0.886-4.699-0.29-5.44,0
			c-2.081,0.813-5.276,2.936-5.37,3.099c-0.249,0.984-0.502,1.967-0.76,2.949C226.077,131.065,225.962,130.817,226.134,130.034z"/>
		<path style="fill:#231815;" d="M221.46,41.491c0.334-2.917,1-11.308-0.068-13.679c0.511,1.878,6.184,15.121,1.508,16.683
			C222.394,44.663,221.541,41.807,221.46,41.491z"/>
	</g>
</g>
</svg>
