<?xml version="1.0" encoding="iso-8859-1"?>
<!-- Generator: Adobe Illustrator 21.1.0, SVG Export Plug-In . SVG Version: 6.00 Build 0)  -->
<svg version="1.1" id="_x38_" xmlns="http://www.w3.org/2000/svg" xmlns:xlink="http://www.w3.org/1999/xlink" x="0px" y="0px"
	 viewBox="0 0 512 512" style="enable-background:new 0 0 512 512;" xml:space="preserve">
<g>
	<path style="fill:#F7B52C;" d="M381.861,286.9c-5.124,5.086-18.519,8.064-26.681,25.979c-8.162,17.914-12.879,36.091-9.128,40.021
		c3.752,3.93,20.362-3.511,31.596-2.106c11.234,1.404,36.192,5.109,43.532,7.021c7.34,1.912,22.959,3.895,25.979,3.511
		c3.02-0.384,5.617,0.702,4.915-5.617c-0.702-6.319,0.702-34.404,13.34-42.83c12.638-8.426,9.303-3.837,12.638-8.426
		s2.809-8.426,2.809-8.426s3.511-21.064,7.723-25.979c4.213-4.915,21.064-23.17,21.064-23.17s-37.915-4.213-41.426-4.213
		c-3.511,0-33.702-1.404-37.213-2.106c-3.511-0.702-13.34-4.213-15.447-2.809c-2.106,1.404-18.568,20.865-19.66,23.872
		c-1.091,3.007-7.021,20.362-7.021,20.362L381.861,286.9z"/>
	<path style="fill:#B49F92;" d="M301.467,232.134c5.968-11.936,8.074-21.064,4.564-27.734c-3.511-6.67-7.723-11.936-6.67-7.723
		c1.053,4.213-4.564,13.691-6.67,6.67c-2.106-7.021-9.83-18.606-15.096-21.766c-3.862-2.106-3.16,4.915-3.16,4.915
		s-1.755,4.915-6.319-1.053c-4.564-5.968-14.394-17.904-20.713-22.117c-6.319-4.213-6.319-0.702-6.319-0.702
		s-8.426-6.67-18.255-9.479c-9.83-2.808-10.532-3.16-7.372,0c3.16,3.16-5.968,7.723-9.479,5.266
		c-3.511-2.457-21.064-6.67-21.064-6.67v7.021c0,0-17.202-1.404-15.096,1.404s0.702,7.021-9.83,4.564
		c-10.532-2.457-17.904-0.351-14.393,0.702c3.511,1.053-0.702,9.128-5.266,7.723c-4.564-1.404-5.266,1.755-3.16,3.16
		c2.106,1.404-1.404,3.862-11.936,2.457c-10.532-1.404-15.447-1.404-9.83,1.053c5.617,2.457,1.755,7.372-5.266,7.021
		c-7.021-0.351-11.936,0.351-7.372,3.16c4.564,2.809-0.702,7.372-8.777,6.319c-8.074-1.053-13.691,0.351-8.074,4.915
		c5.617,4.564,5.266,6.67-0.351,6.67c-5.617,0-14.745,1.404-9.83,3.511c4.915,2.106-15.447,1.755-10.181,5.266
		c5.266,3.511,5.266,7.021,5.266,7.021s-14.745,2.106-9.83,4.213c4.915,2.106,4.915,4.564,4.915,4.564s-19.66,0.702-13.691,4.213
		c5.968,3.511,7.558,6.274,0,5.266c-7.559-1.008,0.351,10.181,0.351,10.181s1.404,7.723-3.511,8.777
		c-4.915,1.053-2.809,5.617,1.404,6.67c4.213,1.053,3.862,4.915,3.862,4.915s-13.34,5.617-4.564,7.372
		c8.777,1.755-18.255,13.34-4.564,18.255c13.692,4.915,128.138,11.936,180.446-8.425
		C277.946,269.347,301.467,232.134,301.467,232.134z"/>
	<path style="fill:#F6F4F1;" d="M6.109,310.815c0,0,0.34,0.389,1.168,1.011c4.622,3.476,23.163,15.252,83.904,6.319
		c13.691,6.319,99.211,18.578,160.085-7.372c16.353,13.573,53.713,27.383,72.67,24.223c6.687,6.84,20.216,12.076,16.851,6.319
		c3.054-1.994,12.488-4.304,7.372-9.479c8.22-5.215,14.723-0.758,11.585-6.319c-3.138-5.561-11.585-10.532-25.276-11.585
		c-13.691-1.053-33.702-1.053-51.606-17.904c11.523,5.111,24.223-4.213,31.596-9.479c7.372-5.266,14.745-8.426,14.745-8.426
		s41.586,7.868,52.659-0.351c-0.798-3.07-0.702-2.809,3.511-4.564c4.213-1.755,6.67-1.404,5.617-3.16
		c-1.053-1.755-1.053-1.755-1.053-1.755s-2.809-1.404,0.702-1.755c3.511-0.351,5.617,1.053,7.723-1.053
		c2.106-2.106,2.809-2.809,1.404-3.511c-1.404-0.702-5.266-2.457-10.532-1.755c-5.266,0.702-18.255,1.755-25.276,1.053
		c-7.021-0.702-20.154-2.962-15.096-3.511s16.5-17.553,18.255-20.713c1.755-3.16,0.702-3.16-6.319-0.702
		c-7.021,2.457-24.223,5.617-38.266,1.053c-14.043-4.564-13.692-5.617-20.011-9.83c-6.319-4.213-10.181-3.16-9.128-1.053
		c1.053,2.106-1.755,2.106-4.213,1.755c-2.457-0.351-4.564,0.702-4.564,0.702s-2.809,2.458-4.915,1.053
		c-2.106-1.404-7.372-10.532-14.745-10.181c-7.372,0.351-14.745,5.266-15.798,10.883c-1.053,5.617-8.074-1.755-13.691-1.404
		c-5.617,0.351-10.532,0.351-10.532,0.351s-6.67,1.755-12.638,2.458c-5.968,0.702-54.064,20.362-62.138,25.276
		c-8.074,4.915-15.096,7.021-20.713,10.883c-5.617,3.862-16.5,7.372-16.5,7.372l-15.798,3.511l-15.447,10.532
		c0,0-24.925,4.213-42.127,2.106c-17.202-2.106-15.798-1.755-22.117-3.16c-6.319-1.404-8.425-4.564-9.128-1.404
		c-0.702,3.16-0.78,6.741,1.053,7.372c1.833,0.632-1.755,1.755-1.755,1.755l4.213,6.67c0,0-6.67-0.702-9.479-0.351
		C-0.447,303.049,6.109,310.815,6.109,310.815z"/>
	<g>
		<path style="fill:#231815;" d="M8.19,285.919c0.887-0.38,1.454-0.363,1.894-0.341c0.441,0.038,0.747,0.15,1.011,0.301
			c0.509,0.301,0.822,0.767,0.982,1.265c0.157,0.497,0.135,1.022-0.08,1.406c-0.21,0.386-0.624,0.621-1.096,0.519
			c-0.469-0.1-0.912-0.129-1.244-0.084l-0.219,0.047L9.285,289.1l-0.052,0.068l-0.028,0.079c-0.03,0.116,0.05,0.171,0.016,0.38
			c0.031,0.084,0.105,0.07,0.1,0.075l-0.006,0.003l0.155,0.278c0.073,0.111,0.132,0.231,0.207,0.341
			c0.309,0.487,0.618,0.974,0.929,1.464c0.587,1.082,2.437,3.983,0.611,3.467c-0.908-0.277-1.65-0.364-2.428-0.615
			c-0.763-0.258-1.62-0.659-2.467-1.751c-0.207-0.272-0.408-0.57-0.583-0.885c-0.079-0.124-0.231-0.425-0.343-0.674
			c-0.121-0.256-0.243-0.511-0.345-0.77l-0.157-0.383l-0.078-0.189c-0.012-0.064,0.038-0.131,0.054-0.196
			c0.096-0.259,0.19-0.515,0.283-0.767c0.096-0.248,0.208-0.484,0.308-0.714c0.09-0.228,0.222-0.457,0.332-0.619
			c0.407-0.659,1.08-1.244,1.569-1.476C7.869,285.975,8.19,285.919,8.19,285.919z"/>
		<path style="fill:#231815;" d="M13.695,300.525c1.471,0.583,2.474,0.949,3.223,1.397c0.186,0.107,0.353,0.223,0.503,0.346
			c0.151,0.113,0.285,0.223,0.402,0.345c0.232,0.24,0.394,0.501,0.482,0.76c0.179,0.518,0.053,1.033-0.378,1.376
			c-0.214,0.169-0.503,0.306-0.847,0.358c-0.342,0.035-0.744,0.007-1.166-0.123c-1.674-0.563-3.289-1.166-4.757-1.95
			c-1.463-0.776-2.755-1.722-3.648-2.767c-0.331-0.364-0.611-0.76-0.913-1.143l-0.412-0.597l-0.203-0.3l-0.293-0.496l-0.584-1.004
			c-0.187-0.36-0.367-0.74-0.546-1.106c-0.359-0.731-0.695-1.476-1.012-2.186c1.263-0.465,2.411-0.911,3.665-1.162
			c0.267-0.061,0.565-0.092,0.864-0.127c0.15-0.017,0.3-0.035,0.455-0.043l0.235-0.01c0.069-0.001,0.107,0.004,0.163,0.005
			c0.411,0.023,0.839,0.074,1.257,0.156c0.835,0.161,1.625,0.44,2.193,0.75c0.571,0.31,0.923,0.64,0.953,0.87
			c0.029,0.241-0.254,0.368-0.972,0.414c-1.205,0.09-2.073,0.421-2.872,0.773l-0.149,0.07l-0.044,0.051L9.24,295.28
			c-0.028,0.061-0.038,0.12-0.036,0.17c0.005,0.102,0.058,0.173,0.126,0.213c0.067,0.035,0.095,0.036,0.095,0.036l-0.001,0
			l0.031,0.057l0.032,0.062l0.016,0.032c0.011,0.019-0.004,0.002,0.037,0.063c0.24,0.359,0.468,0.736,0.726,1.08
			c0.494,0.71,1.032,1.354,1.538,1.882c0.253,0.264,0.492,0.51,0.722,0.705c0.222,0.211,0.426,0.385,0.605,0.516
			c0.175,0.139,0.315,0.249,0.41,0.325C13.641,300.488,13.695,300.525,13.695,300.525z"/>
		<path style="fill:#231815;" d="M314.155,237.24c-2.591-0.692-4.763-1.596-6.537-2.532c-0.878-0.492-1.676-0.948-2.358-1.45
			c-0.344-0.244-0.67-0.477-0.972-0.71c-0.295-0.246-0.57-0.485-0.826-0.715c-0.256-0.231-0.494-0.451-0.711-0.668
			c-0.21-0.227-0.402-0.446-0.577-0.656c-0.347-0.423-0.64-0.791-0.845-1.155c-0.413-0.725-0.588-1.291-0.579-1.707
			c0.019-0.83,0.763-1.072,1.819-0.793c0.266,0.069,0.547,0.176,0.853,0.308c0.312,0.123,0.642,0.276,0.985,0.465
			c0.672,0.393,1.456,0.838,2.255,1.449c3.291,2.345,7.206,3.784,11.007,4.587c3.809,0.838,7.515,1.093,10.793,1.398
			c6.58,0.575,13.247,0.334,19.976,0.096c3.366-0.093,8.474-0.243,11.74-0.241c3.258,0.005,4.694,0.384,0.539,1.558
			c-4.161,1.137-7.088,1.996-10.274,2.763c-3.187,0.743-6.645,1.395-11.907,1.556c-5.261,0.164-11.451-0.314-16.237-1.308
			c-2.392-0.488-4.439-1.02-5.871-1.484c-0.721-0.21-1.285-0.417-1.674-0.552C314.366,237.315,314.155,237.24,314.155,237.24z"/>
		<path style="fill:#231815;" d="M366.907,234.834c-0.133-5.667,3.008-25.551,11.396-16.26c5.982,6.626-2.528,21.837-11.396,20.007
			V234.834z"/>
		<path style="fill:#231815;" d="M353.279,249.723c0.809-1.859,1.58-3.08,2.381-3.845c0.786-0.766,1.582-1.074,2.274-1.034
			c0.687,0.038,1.246,0.421,1.503,1.015c0.253,0.588,0.229,1.404-0.31,2.187c-1.042,1.574-1.822,3.255-2.631,4.86
			c-0.793,1.607-1.6,3.144-2.579,4.307c-1.934,2.331-4.149,4.48-6.85,5.896c-1.334,0.735-3.561,1.427-5.065,1.539
			c-1.512,0.117-2.268-0.223-0.931-1.349c0.677-0.552,1.175-1.127,1.641-1.636c0.441-0.545,0.841-1.043,1.237-1.566
			c0.794-1.046,1.649-2.085,3.084-3.456c1.433-1.374,3.051-3.04,4.244-4.439c0.583-0.708,1.104-1.313,1.441-1.768
			C353.072,249.988,353.279,249.723,353.279,249.723z"/>
		<path style="fill:#231815;" d="M327.167,274.149c1.569-1.305,3.051-2.314,4.395-3.067c1.359-0.737,2.559-1.242,3.605-1.513
			c2.082-0.571,3.414-0.342,4.013,0.117c0.605,0.463,0.536,1.199-0.009,1.906c-0.555,0.695-1.558,1.434-3.007,2.017
			c-2.904,1.212-5.501,3.168-7.836,5.186c-2.343,2.017-4.481,4.104-6.593,5.749c-2.112,1.648-4.286,3.286-6.617,4.761
			c-2.33,1.47-4.844,2.76-7.523,3.655c-1.347,0.428-3.073,0.856-4.813,1.025c-1.74,0.164-3.451,0.16-4.75-0.068
			c-0.647-0.08-1.193-0.238-1.592-0.375c-0.399-0.141-0.654-0.284-0.729-0.425c-0.15-0.292,0.416-0.528,1.982-0.806
			c3.135-0.632,5.134-1.69,7.167-2.863c2.033-1.195,4.105-2.532,7.277-4.626c3.174-2.095,6.821-4.857,9.785-7.018
			C324.877,275.634,327.167,274.149,327.167,274.149z"/>
		<path style="fill:#231815;" d="M289.12,303.259c-7.006-3.797-11.477-8.18-13.508-11.979c-1.034-1.881-1.48-3.545-1.608-4.788
			c-0.045-0.631-0.03-1.155,0.021-1.574c0.08-0.427,0.185-0.747,0.308-0.974c0.507-0.902,1.233-0.354,2.003,0.864
			c0.808,1.232,1.865,3.138,3.611,5.514c1.748,2.382,4.078,4.449,6.572,6.219c2.502,1.776,5.184,3.273,7.865,4.596
			c5.384,2.631,10.77,4.561,15.53,6.334l1.792,0.655c0.556,0.184,1.063,0.36,1.647,0.509c1.129,0.314,2.333,0.566,3.554,0.793
			c2.445,0.454,4.967,0.812,7.505,1.168c5.082,0.707,10.242,1.397,15.377,2.496c2.566,0.556,5.771,1.37,8.861,2.517
			c3.083,1.127,6.054,2.654,7.956,4.347c0.469,0.431,0.89,0.83,1.211,1.252c0.349,0.386,0.584,0.796,0.777,1.133
			c0.21,0.325,0.295,0.649,0.366,0.878c0.065,0.233,0.086,0.397,0.061,0.489c-0.049,0.182-0.282,0.08-0.7-0.333
			c-0.422-0.409-1.123-1.09-2.381-1.885c-1.263-0.79-2.576-1.341-3.851-1.767c-1.283-0.415-2.517-0.739-3.729-0.982
			c-2.419-0.498-4.698-0.782-7.065-1.036c-4.743-0.51-9.825-0.823-17.557-1.766c-1.937-0.245-3.962-0.522-6.036-0.872
			c-2.076-0.356-4.194-0.769-6.358-1.416c-0.53-0.169-1.124-0.368-1.606-0.548c-0.484-0.184-0.967-0.368-1.447-0.551
			c-0.959-0.369-1.903-0.746-2.829-1.124c-1.851-0.756-3.622-1.525-5.265-2.279c-3.29-1.508-6.071-2.963-8.013-4.067
			c-0.971-0.552-1.738-1.005-2.26-1.326C289.4,303.44,289.12,303.259,289.12,303.259z"/>
		<path style="fill:#231815;" d="M358.22,326.539c0.094-0.156,0.101-0.263,0.112-0.37c0.012-0.065,0.023-0.126,0.034-0.181
			c0.016-0.069,0.033-0.153-0.012-0.315l-0.024-0.113l-0.056-0.143c-0.035-0.095-0.064-0.189-0.089-0.282
			c-0.058-0.183-0.097-0.36-0.118-0.53c-0.047-0.338-0.025-0.641,0.061-0.9c0.171-0.517,0.592-0.845,1.14-0.868
			c0.274-0.017,0.574,0.06,0.882,0.221c0.157,0.093,0.298,0.185,0.468,0.34c0.197,0.198,0.364,0.368,0.562,0.677
			c0.787,1.116,1.193,2.363,0.769,3.539c-0.44,1.142-1.537,1.87-2.809,2.283c-0.578,0.198-0.94,0.297-1.342,0.401
			c-0.395,0.099-0.778,0.182-1.15,0.248c-0.743,0.133-1.446,0.207-2.101,0.212c-2.611,0.009-5.145-0.202-7.601-0.919
			c-1.228-0.358-3.021-1.154-4.073-1.904c-0.525-0.37-0.876-0.742-0.824-0.972c0.027-0.112,0.07-0.201,0.217-0.253
			c0.147-0.052,0.4-0.068,0.776-0.049c1.514,0.067,2.622-0.111,3.777-0.23c1.158-0.127,2.376-0.202,4.161-0.073
			c1.784,0.127,3.857,0.287,5.396,0.263c0.382-0.006,0.736-0.017,1.036-0.042c0.153-0.008,0.287-0.027,0.415-0.036
			c0.072-0.008,0.206-0.022,0.212-0.014C358.141,326.544,358.22,326.539,358.22,326.539z"/>
		<path style="fill:#231815;" d="M345.06,328.199c-2.003-1.436-3.557-2.209-4.683-2.833c-1.122-0.609-1.82-1.124-2.079-1.667
			c-0.259-0.536-0.054-1.038,0.611-1.34c0.33-0.149,0.776-0.269,1.29-0.231c0.259,0.01,0.537,0.04,0.83,0.092
			c0.29,0.062,0.586,0.174,0.894,0.296c0.625,0.228,1.196,0.558,1.791,0.823l0.85,0.477l0.424,0.234l0.404,0.264
			c1.107,0.661,2.083,1.482,3.018,2.316c1.8,1.73,3.189,3.841,3.769,5.983c0.105,0.382,0.169,0.778,0.251,1.166l0.079,0.401
			c0.024,0.157,0.03,0.328,0.033,0.486l0.031,0.97c0.076,1.291-0.015,2.588-0.051,3.859l-3.506-0.486l-1.576-0.275l-0.935-0.208
			c-1.203-0.287-2.387-0.638-3.544-1.061c-1.817-0.648-4.401-1.962-5.895-3.028c-1.501-1.066-1.967-1.792,0.29-1.255
			c2.264,0.517,3.903,0.652,5.626,0.818c0.861,0.084,1.745,0.168,2.745,0.292c0.497,0.066,1.026,0.136,1.599,0.212
			c0.247,0.035,0.504,0.071,0.772,0.109l0.147,0.014l0.01,0.011l0.038,0l0.012-0.011c0.005-0.004,0.008,0.001-0.013-0.123
			c-0.053-0.272-0.078-0.548-0.143-0.815c-0.243-1.075-0.691-2.059-1.128-2.896c-0.483-0.814-0.968-1.472-1.343-1.911
			C345.286,328.45,345.06,328.199,345.06,328.199z"/>
		<path style="fill:#231815;" d="M337.421,335.558c-1.629-1.281-2.874-1.996-3.772-2.638c-0.9-0.614-1.451-1.17-1.629-1.722
			c-0.179-0.546,0.036-1.037,0.637-1.306c0.297-0.128,0.694-0.23,1.14-0.178c0.451,0.032,0.967,0.146,1.478,0.423
			c2.071,1.023,3.913,2.341,5.453,3.897c1.509,1.568,2.642,3.438,3.112,5.285c0.053,0.171,0.093,0.345,0.121,0.523l0.104,0.568
			c0.141,0.576,0.114,1.172,0.134,1.744c0.049,1.153-0.003,2.322-0.034,3.461l-2.944-0.209l-1.461-0.153l-0.351-0.042l-0.197-0.032
			l-0.385-0.065c-1.025-0.183-2.038-0.425-3.031-0.737c-1.602-0.487-3.885-1.586-5.174-2.543c-1.295-0.962-1.659-1.643,0.273-1.258
			c1.945,0.355,3.354,0.345,4.828,0.362c0.738,0.007,1.493,0.016,2.349,0.049c0.426,0.022,0.878,0.046,1.368,0.071
			c0.122,0.008,0.246,0.017,0.373,0.025c0.056,0.001,0.018-0.007,0.03-0.009l-0.001-0.01l0.008,0.008l0.036,0.005l0.02-0.028
			c0.01,0.036-0.021-0.161-0.034-0.259c-0.02-0.117-0.021-0.239-0.056-0.352c-0.179-0.937-0.52-1.804-0.857-2.546
			c-0.372-0.724-0.75-1.319-1.051-1.715c-0.153-0.197-0.274-0.353-0.357-0.459C337.472,335.61,337.421,335.558,337.421,335.558z"/>
		<path style="fill:#231815;" d="M240.319,302.852c3.254,0.482,6.113,0.611,8.624,1.135c2.513,0.529,4.643,1.484,6.584,3.605
			c2.454,2.72,6.827,6.454,11.945,9.905c1.277,0.865,2.597,1.711,3.932,2.535c0.673,0.403,1.344,0.807,2.014,1.207
			c0.673,0.37,1.344,0.737,2.008,1.101c1.321,0.752,2.693,1.333,3.996,1.938c1.321,0.56,2.616,1.048,3.845,1.472
			c2.475,0.803,5.476,1.687,8.697,2.417c3.219,0.734,6.639,1.376,9.887,1.935c3.263,0.554,6.331,1.076,8.844,1.503
			c2.519,0.45,4.482,0.826,5.527,1.048c2.092,0.41,4.088,0.539,5.616,0.79c1.521,0.281,2.567,0.686,2.704,1.702
			c0.137,1.015-0.653,1.629-1.788,1.91c-1.137,0.275-2.622,0.219-3.959-0.069c-0.334-0.073-1.007-0.216-1.946-0.382
			c-0.944-0.154-2.141-0.366-3.527-0.576c-2.768-0.427-6.272-0.885-9.843-1.384c-3.568-0.492-7.214-1.071-10.191-1.725
			c-1.49-0.311-2.81-0.657-3.873-0.977c-1.066-0.304-1.868-0.616-2.328-0.868c-1.846-0.947-7.321-2.16-12.492-3.987
			c-1.275-0.476-2.567-0.939-3.751-1.4c-1.163-0.469-2.261-0.913-3.226-1.341c-1.936-0.841-3.36-1.57-3.818-1.997
			c-0.916-0.86-2.737-1.95-4.656-3.083c-1.928-1.117-3.944-2.298-5.313-3.176c-2.749-1.731-7.748-4.521-11.239-6.107
			c-1.699-0.763-3.695-2.739-5.2-4.611C235.786,303.4,238.559,302.588,240.319,302.852z"/>
		<path style="fill:#231815;" d="M240.938,319.558c3.635-1.004,6.567-2.137,8.646-3.191c2.073-1.066,3.291-2.054,3.371-2.844
			c0.083-0.777-0.977-1.328-3.456-1.365c-2.474-0.041-6.363,0.525-11.753,1.944c-5.481,1.441-10.171,2.837-14.671,3.983
			c-4.492,1.179-8.794,2.059-13.42,2.853c-9.233,1.556-19.382,2.872-33.695,3.347c-14.32,0.46-28.174,0.29-40.9-0.317
			c-6.361-0.314-12.426-0.775-18.123-1.436c-5.699-0.647-11.043-1.437-15.995-2.184c-9.67-1.481-14.489-0.223-11.938,1.8
			c1.276,1.007,4.384,2.205,9.67,3.293c2.641,0.546,5.835,1.053,9.622,1.456c3.786,0.401,8.182,0.678,13.182,0.673
			c5.331-0.035,9.519-0.062,13.278-0.086c3.746-0.01,7.058,0.01,10.653,0.062c7.182,0.078,15.525,0.27,30.643-0.373
			c12.08-0.547,23.411-0.906,34.249-1.737c0.678-0.054,1.354-0.109,2.027-0.162c0.676-0.067,1.349-0.133,2.02-0.199
			c1.34-0.117,2.684-0.3,4.017-0.461c2.661-0.369,5.276-0.824,7.839-1.35C231.329,322.202,236.226,320.854,240.938,319.558z"/>
		<path style="fill:#231815;" d="M67.35,290.616c5.335-0.923,9.17-1.769,11.914-2.097c2.719-0.417,4.331-0.388,5.033-0.052
			c0.7,0.328,0.473,0.934-0.509,1.597c-0.491,0.331-1.17,0.676-2.01,1.006c-0.42,0.164-0.88,0.326-1.378,0.477
			c-0.502,0.131-1.042,0.252-1.614,0.361c-4.561,0.944-9.127,1.784-13.5,2.472c-1.096,0.157-2.178,0.312-3.242,0.465
			c-1.07,0.11-2.121,0.218-3.151,0.324c-0.516,0.05-1.026,0.098-1.531,0.146c-0.506,0.025-1.006,0.049-1.5,0.074
			c-0.988,0.044-1.95,0.079-2.884,0.1c-7.465-0.001-14.959-0.707-22.19-2.517c-0.901-0.241-1.91-0.524-2.967-0.832
			c-1.059-0.3-2.146-0.706-3.232-1.076c-1.086-0.365-2.146-0.793-3.134-1.207c-0.987-0.417-1.912-0.79-2.69-1.194
			c-3.131-1.555-4.235-2.467,0.159-1.295c4.417,1.105,7.576,1.574,10.95,1.978c3.37,0.431,6.953,0.831,12.318,1.358
			c5.368,0.531,11.67,0.727,16.619,0.528c1.236-0.063,2.393-0.07,3.423-0.162c1.031-0.082,1.944-0.153,2.702-0.213
			c0.759-0.054,1.363-0.106,1.775-0.164C67.126,290.643,67.35,290.616,67.35,290.616z"/>
		<path style="fill:#231815;" d="M66.979,318.335c4.248-0.733,7.936-1.42,11.125-1.911c3.186-0.5,5.874-0.829,8.089-0.997
			c4.434-0.339,6.972-0.046,7.958,0.462c0.988,0.51,0.445,1.261-1.228,1.978c-1.675,0.707-4.474,1.429-8.065,1.907
			c-7.184,0.968-14.341,2.452-21.284,3.464c-3.472,0.499-6.889,0.871-10.191,1.079c-3.303,0.157-6.491,0.21-9.478-0.028
			c-0.746-0.057-1.495-0.091-2.24-0.167l-2.233-0.249c-1.5-0.156-2.946-0.365-4.416-0.595c-2.929-0.455-5.863-1.009-8.771-1.745
			c-2.907-0.732-5.791-1.628-8.596-2.741c-2.803-1.118-5.526-2.444-8.118-3.974c-1.3-0.759-2.743-1.699-4.182-2.816
			c-1.432-1.133-2.894-2.411-4.103-4.106c-0.148-0.222-0.289-0.414-0.452-0.709l-0.226-0.408l-0.199-0.462
			c-0.152-0.3-0.205-0.625-0.298-0.933c-0.034-0.317-0.098-0.629-0.059-0.939c0.027-0.617,0.238-1.221,0.621-1.685
			c0.392-0.454,0.874-0.809,1.409-1.035c0.254-0.134,0.546-0.191,0.806-0.286c0.263-0.078,0.5-0.106,0.744-0.154
			c0.465-0.06,0.883-0.097,1.297-0.094c0.824-0.019,1.581,0.059,2.278,0.14c2.777,0.389,4.591,1.066,4.868,1.373
			c0.136,0.164-0.117,0.264-0.846,0.284c-0.727,0.022-1.938-0.032-3.684-0.015c-0.868,0.021-1.701,0.072-2.452,0.211
			c-0.193,0.027-0.373,0.069-0.548,0.113c-0.18,0.041-0.358,0.081-0.482,0.131c-0.307,0.099-0.458,0.175-0.635,0.292
			c-0.174,0.103-0.309,0.25-0.409,0.407c-0.094,0.165-0.12,0.356-0.105,0.534c0.029,0.179,0.09,0.347,0.179,0.491
			c0.085,0.149,0.174,0.256,0.321,0.432c0.051,0.066,0.163,0.183,0.26,0.29c0.095,0.108,0.194,0.214,0.308,0.318
			c0.21,0.211,0.443,0.413,0.676,0.611c0.475,0.394,0.977,0.766,1.501,1.115c1.046,0.701,2.152,1.327,3.305,1.92
			c2.311,1.174,4.841,2.267,7.733,3.347c1.452,0.543,3.012,1.073,4.722,1.591c1.706,0.526,3.564,1.035,5.618,1.522
			c2.053,0.49,4.219,0.93,6.439,1.319c2.213,0.381,4.514,0.751,6.735,0.996c4.465,0.55,8.885,0.731,12.787,0.679
			c3.902-0.045,7.284-0.348,9.689-0.548c1.203-0.126,2.161-0.227,2.819-0.296C66.622,318.375,66.979,318.335,66.979,318.335z"/>
		<path style="fill:#231815;" d="M306.946,264.815c10.414,0.049,7.715-9.016,3.501-10.951
			C306.233,251.929,300.504,257.125,306.946,264.815z"/>
		<path style="fill:#231815;" d="M411.899,238.109c1.592-1.304,2.999-1.861,4.037-2.027c1.054-0.141,1.754,0.082,2.138,0.463
			c0.757,0.773,0.327,2.132-1.132,2.592c-1.454,0.507-2.743,1.366-3.801,2.331c-1.062,0.968-1.94,1.973-2.768,2.817
			c-1.696,1.646-3.146,3.619-5.036,5.427c-0.932,0.905-2.563,2.146-3.754,2.727c-1.195,0.584-1.888,0.574-1.035-0.763
			c1.703-2.708,1.613-4.251,4.092-7.387c1.247-1.573,2.992-3.282,4.525-4.404c0.371-0.295,0.749-0.528,1.072-0.756
			c0.325-0.225,0.615-0.418,0.868-0.558C411.604,238.282,411.899,238.109,411.899,238.109z"/>
		<path style="fill:#231815;" d="M369.96,291.598c1.228-1.003,2.448-1.711,3.558-2.184c1.128-0.444,2.121-0.694,2.964-0.734
			c1.683-0.117,2.629,0.363,2.97,0.839c0.346,0.483,0.145,1.039-0.352,1.469c-0.507,0.414-1.291,0.791-2.364,0.998
			c-2.164,0.47-4.139,1.77-5.746,3.263c-1.633,1.481-2.96,3.145-4.235,4.538c-2.55,2.808-4.844,5.929-7.502,8.862
			c-1.325,1.466-3.51,3.577-5.097,4.703c-1.598,1.118-2.458,1.298-1.104-0.713c2.641-4.123,2.929-6.309,6.584-11.099
			c1.837-2.393,4.232-5.056,6.379-6.937C368.142,292.703,369.96,291.598,369.96,291.598z"/>
		<path style="fill:#231815;" d="M343.735,339.897c0.565-1.382,1.458-2.214,2.257-2.546c0.401-0.168,0.762-0.221,1.096-0.168
			c0.321,0.046,0.572,0.176,0.765,0.349c0.383,0.348,0.556,0.864,0.603,1.286c0.021,0.217,0.006,0.386-0.057,0.56
			c-0.063,0.182-0.18,0.322-0.374,0.433c-0.782,0.503-1.267,1.448-1.58,2.348c-0.329,0.908-0.48,1.833-0.772,2.58
			c-0.563,1.52-0.956,3.071-1.571,4.624c-0.173,0.392-0.367,0.879-0.634,1.384c-0.215,0.499-0.513,1.023-0.727,1.442
			c-0.465,0.841-0.959,1.318-1.275,0.149c-0.175-0.583-0.268-1.083-0.425-1.56c-0.12-0.473-0.237-0.918-0.338-1.386
			c-0.157-0.923-0.256-1.949,0.104-3.368c0.345-1.423,1.013-2.998,1.665-4.169c0.33-0.586,0.635-1.079,0.879-1.419
			C343.582,340.092,343.735,339.897,343.735,339.897z"/>
		<path style="fill:#231815;" d="M346.323,355.312c0,0-0.915-2.492,1.443-2.939c2.359-0.446,2.454-2.253,4.422-1.641
			c1.968,0.612,3.361-0.007,4.579,0.159c1.215,0.164,3.609-0.001,5.28-0.348c1.675-0.362,6.05,0.226,8.222-0.02
			c2.184-0.256,3.142,0.523,4.596,0.315c0.73-0.113,1.466-0.338,2.024-0.53c0.557-0.196,0.934-0.369,0.934-0.369
			s0.424,0.084,0.965,0.213c0.541,0.136,1.2,0.313,1.674,0.475c0.476,0.156,2.53,0.33,4.762,0.554
			c2.23,0.215,4.644,0.518,5.827,0.69c2.358,0.36,7.829,0.922,9.482,1.17c1.653,0.248,2.989,1.03,3.704,1.073
			c2.874,0.175,2.874,0.175,2.874,0.175s4.726,0.72,6.382,0.972c1.655,0.253,3.665,1.344,5.357,1.348
			c1.694,0.009,4.528,0.456,7.682,0.455c3.158,0,6.57,1.353,10.295,0.98c3.738-0.39,8.089,2.563,9.834,2.401
			c0.879-0.08,2.256,0.16,3.515,0.496c1.261,0.36,2.403,0.832,2.813,1.191c0.815,0.728-2.424,0.72-4.113,0.621
			c-1.696-0.128-6.718-0.611-7.47-0.48c-0.746,0.111-3.242-2.175-5.265-1.753c-2.016,0.414-6.443-0.601-7.623-0.793
			c-1.177-0.205-6.56-1.334-7.781-1.264c-1.22,0.047-13.848-1.114-16.955-1.313c-1.554-0.105-5.255-0.787-8.806-1.483
			c-1.774-0.354-3.512-0.701-4.923-0.984c-1.404-0.268-2.486-0.47-2.957-0.538c-0.942-0.113-3.108-0.521-5.297-0.745
			c-1.093-0.122-2.193-0.177-3.136-0.192c-0.945,0.005-1.737,0.082-2.219,0.248c-1.92,0.682-3.552,0.139-5.683,0.389
			c-2.121,0.26-5.667,0.114-6.855,0.187c-1.179,0.027-7.841,0.229-8.537,0.555c-0.694,0.31-2.749,1.5-5.565,2.242
			C346.982,357.57,346.323,355.312,346.323,355.312z"/>
		<path style="fill:#231815;" d="M463.72,318.522c0.319-0.433,0.638-0.872,0.97-1.297c0.352-0.407,0.702-0.814,1.048-1.215
			c1.003-1.096,3.038-3.123,5.235-4.596c2.182-1.496,4.424-2.47,5.222-2.474c0.532-0.031,1.076-0.145,1.591-0.307
			c0.513-0.166,0.959-0.474,1.336-0.807c0.732-0.697,1.099-1.861,0.461-3.529c-0.522-1.364-1.619-1.763-2.764-1.633
			c-1.118,0.186-2.249,0.878-2.743,1.671c-0.342,0.491-2.646,2.049-4.806,4.102c-2.195,2.024-4.186,4.524-5.059,5.806
			c-0.448,0.688-0.9,1.336-1.314,1.919c-0.4,0.595-0.783,1.108-1.133,1.5c-0.229,0.303-1.086,1.434-2.143,3.206
			c-1.053,1.77-2.31,4.175-3.423,6.92c-1.122,2.741-2.107,5.813-2.835,8.812c-0.736,2.999-1.218,5.922-1.504,8.349
			c-0.55,4.775-0.532,7.533-0.587,9.237c-0.031,1.707-0.048,2.373-0.077,3.026c-0.039,1.328,1.275,2.165,2.389,2.148
			c1.131-0.02,2.064-0.794,1.454-2.672c-0.294-0.918-0.503-1.599-0.693-3.14c-0.142-1.54-0.322-3.96,0.058-8.332
			c0.207-2.33,0.616-5.144,1.278-8.038c0.657-2.895,1.568-5.865,2.623-8.528c1.047-2.666,2.241-5.016,3.261-6.777
			c0.261-0.437,0.503-0.842,0.724-1.212c0.224-0.367,0.447-0.683,0.632-0.968C463.293,319.125,463.564,318.72,463.72,318.522z"/>
		<path style="fill:#231815;" d="M484.544,284.89c-0.336,2.4-0.471,4.456-0.562,6.226c-0.017,0.883-0.032,1.694-0.062,2.44
			c0.017,0.742,0.007,1.421-0.024,2.041c0.008,2.459-0.139,3.959-0.614,4.66c-0.462,0.697-1.17,0.547-1.895-0.392
			c-0.352-0.47-0.757-1.123-0.999-1.972c-0.134-0.422-0.256-0.885-0.362-1.384c-0.113-0.499-0.134-1.045-0.172-1.614
			c-0.269-4.565,0.165-9.083,1.051-13.28c0.942-4.178,2.356-8.025,4.086-11.163c1.738-3.132,3.747-6.089,5.997-8.832
			c2.247-2.744,4.742-5.272,7.486-7.497c1.364-1.121,3.168-2.406,5.048-3.517c1.874-1.118,3.825-2.057,5.4-2.595
			c0.78-0.281,1.479-0.439,1.996-0.525c0.53-0.066,0.881-0.057,1.018,0.035c0.137,0.092,0.06,0.268-0.268,0.538
			c-0.329,0.263-0.906,0.645-1.763,1.217c-3.412,2.354-5.407,4.588-7.502,6.889c-0.526,0.576-1.034,1.189-1.586,1.803
			c-0.526,0.641-1.108,1.273-1.689,1.984c-1.195,1.39-2.503,2.983-4.038,4.911c-1.531,1.932-3.099,4.092-4.491,6.296
			c-1.387,2.206-2.584,4.457-3.504,6.491c-0.946,2.027-1.542,3.854-1.97,5.15C484.76,284.111,484.544,284.89,484.544,284.89z"/>
		<path style="fill:#231815;" d="M507.667,248.093c-0.612-0.109-1.927-0.253-3.772-0.443c-1.845-0.176-4.219-0.402-6.953-0.662
			c-5.466-0.517-12.36-1.211-19.319-1.949c-6.956-0.729-13.984-1.465-19.725-2.067c-5.739-0.583-10.193-0.991-11.995-1.162
			c-11.003-1.063-21.198-0.563-23.664-0.702c-2.469-0.16-3.576-0.475-3.505-1.68c0.072-1.206,0.554-1.661,3.259-1.486
			c0.676,0.045,2.141,0.159,4.032,0.323c1.891,0.175,4.211,0.39,6.601,0.611c4.777,0.46,9.832,0.979,12.314,1.141
			c12.962,0.852,27.578,2.245,39.481,3.222c11.905,0.986,21.107,1.455,23.244,1.464c4.271,0.029,4.216,0.996,4.161,1.961
			C511.775,247.626,509.687,248.462,507.667,248.093z"/>
		<path style="fill:#231815;" d="M373.755,261.958c-4.846,0.532-8.434,0.654-10.94,0.453c-2.507-0.194-3.913-0.683-4.422-1.187
			c-0.996-1.019,1.376-2.039,5.403-2.053c4.05-0.009,8.111-0.434,11.984-0.817c3.874-0.387,7.579-0.74,10.913-0.708
			c2.562,0.032,5.144,0.14,7.752,0.504c1.303,0.173,2.614,0.433,3.924,0.786l0.738,0.201c0.292,0.089,0.574,0.188,0.846,0.295
			c0.546,0.211,1.11,0.406,1.63,0.626l2.972,1.423c-0.392,0.499-0.847,1.026-1.263,1.53c-0.425,0.508-0.84,0.956-1.257,1.427
			c-0.184,0.24-0.468,0.444-0.728,0.654l-0.782,0.621c-0.253,0.208-0.531,0.402-0.843,0.553c-0.351,0.188-0.483,0.247-0.702,0.354
			c-1.785,0.816-4.11,1.036-6.214,0.904c-2.116-0.149-4.087-0.558-5.596-0.906c-1.506-0.358-2.564-0.654-2.74-0.889
			c-0.178-0.226,0.559-0.413,2.609-0.404c3.225,0.031,5.655-0.115,7.774-0.695c1.053-0.292,1.996-0.715,2.841-1.289
			c0.152-0.188,0.116-0.311,0.033-0.34c-0.089-0.002-0.139,0.008-0.163,0.019l-0.014,0.008l-0.006,0.003l-0.017-0.002l-0.157-0.039
			c-0.415-0.113-0.872-0.189-1.333-0.291c-4.488-0.871-10.138-0.958-14.555-0.921c-2.215,0.02-4.138,0.073-5.505,0.112
			C374.566,261.934,373.755,261.958,373.755,261.958z"/>
		<path style="fill:#231815;" d="M389.192,270.308c-0.229-0.2-0.3-0.238-0.358-0.345l-0.044-0.083
			c-0.023-0.035-0.001-0.05-0.127-0.138c-0.207-0.163-0.393-0.31-0.563-0.443c-0.758-0.6-1.175-1.26-1.176-1.806
			c-0.016-0.545,0.306-0.983,0.779-1.203c0.484-0.212,1.127-0.248,1.975,0.204l0.643,0.358c0.285,0.184,0.577,0.349,0.831,0.559
			c0.521,0.399,0.972,0.862,1.307,1.37c0.189,0.246,0.319,0.514,0.473,0.772c0.124,0.267,0.264,0.529,0.378,0.802
			c0.122,0.277,0.244,0.554,0.365,0.828l0.185,0.422l0.11,0.359c-1.204,0.663-2.446,1.369-3.735,2.026
			c-0.74,0.406-1.397,0.725-2.084,0.98c-2.559,0.943-5.428,1.609-8.294,1.195c-0.355-0.063-0.753-0.134-1.163-0.248
			c-0.41-0.129-0.835-0.253-1.243-0.429c-0.82-0.337-1.571-0.783-2.101-1.195c-1.051-0.878-1.257-1.5,0.263-1.261
			c1.539,0.194,2.629-0.025,3.725-0.246c1.074-0.231,2.215-0.477,3.927-0.845c1.531-0.312,3.315-0.81,4.769-1.317
			c0.182-0.064,0.358-0.125,0.528-0.185c0.116-0.042,0.083-0.021,0.111-0.027l0.037,0.003c0.05,0.003,0.108,0.002,0.165,0
			c0.144-0.012,0.241-0.019,0.27-0.021c0.079-0.015,0.047-0.054,0.047-0.069L389.192,270.308z"/>
		<path style="fill:#231815;" d="M370.152,278.948c5.236-0.91,8.811-1.688,11.207-1.914l-0.96,1.056
			c0.198-0.536,0.303-0.707,0.286-1.058c-0.046-0.374-0.218-0.886-0.216-1.251c-0.016-0.757,0.283-1.058,0.594-1.08
			c0.33-0.017,0.687,0.196,1.14,0.507c0.116,0.084,0.247,0.189,0.405,0.351c0.158,0.169,0.356,0.407,0.534,0.771
			c0.172,0.341,0.281,0.77,0.318,1.184c0.041,0.417,0.007,0.775-0.038,1.143l-0.121,0.983l-1.089,0.348
			c-0.55,0.176-1.185,0.342-1.874,0.485c-4.068,0.826-8.109,1.629-11.994,2.19c-3.881,0.543-7.591,0.933-10.892,0.93
			c-6.595,0.018-13.189-0.537-19.619-1.895c-3.218-0.677-7.941-2.124-10.785-3.333c-2.845-1.224-3.871-2.016,0.09-1.297
			c3.974,0.672,6.796,0.889,9.804,1.079c3.007,0.207,6.196,0.428,10.96,0.802c4.765,0.38,10.339,0.577,14.711,0.447
			c0.547-0.014,1.076-0.016,1.581-0.038c0.504-0.028,0.986-0.054,1.442-0.079c0.911-0.057,1.72-0.075,2.387-0.142
			C369.36,279.019,370.152,278.948,370.152,278.948z"/>
		<path style="fill:#231815;" d="M276.223,233.322c-0.048-0.768-0.827-3.213-2.921-5.721c-0.524-0.619-1.128-1.236-1.828-1.79
			c-0.691-0.564-1.468-1.081-2.326-1.492c-1.705-0.841-3.717-1.288-5.761-1.218c-2.043,0.059-4.094,0.618-5.884,1.495
			c-1.798,0.871-3.325,2.064-4.477,3.299c-1.162,1.233-1.944,2.513-2.417,3.581c-0.482,1.071-0.671,1.929-0.785,2.417
			c-0.3,1.505-0.092,3.028,0.476,4.278c0.558,1.26,1.409,2.26,2.293,3.008c0.877,0.755,1.767,1.278,2.495,1.665
			c0.354,0.199,0.677,0.359,0.942,0.498c0.261,0.142,0.455,0.267,0.594,0.37c0.268,0.209,0.476,0.418,0.624,0.64
			c0.158,0.216,0.249,0.45,0.263,0.722c0.027,0.546-0.249,1.25-0.934,2.257c-0.687,1.008-1.226,1.674-1.795,1.943
			c-0.564,0.263-1.18,0.161-1.929-0.451c-0.735-0.591-3.195-2.801-4.834-5.947c-0.83-1.553-1.372-3.326-1.603-4.92
			c-0.23-1.602-0.134-3.007-0.08-3.925c0.148-2.414,1.009-4.858,2.372-6.988c1.363-2.137,3.202-3.988,5.319-5.424
			c2.116-1.438,4.519-2.467,7.019-2.979c2.496-0.515,5.095-0.501,7.475,0.056c2.386,0.536,4.529,1.574,6.25,2.786
			c1.735,1.208,3.085,2.558,4.124,3.793c2.075,2.491,3.042,4.459,3.52,5.144c0.874,1.409,0.788,2.316,0.288,2.903
			c-0.5,0.592-1.429,0.898-2.353,1.212c-0.925,0.31-1.963,0.307-2.754,0.091C276.814,234.399,276.235,233.986,276.223,233.322z"/>
		<path style="fill:#231815;" d="M292.924,198.505c0.554,1.102,0.878,2.171,1.007,3.135c0.141,0.961,0.028,1.832-0.151,2.5
			c-0.414,1.378-1.239,1.889-1.748,1.905c-0.529,0.024-0.907-0.38-1.109-0.826c-0.082-0.219-0.193-0.491-0.195-0.757
			c-0.048-0.287-0.022-0.589,0.023-0.962c0.2-1.515-0.45-3.215-1.287-4.63c-0.835-1.442-1.851-2.701-2.653-3.887
			c-1.618-2.378-3.479-4.625-5.198-7.044c-0.853-1.215-2.075-3.13-2.79-4.439c-0.715-1.3-0.853-2.085,0.743-0.98
			c1.566,1.126,2.733,1.857,3.924,2.721c1.184,0.87,2.397,1.872,3.884,3.68c1.492,1.805,3.014,4.112,4.03,6.06
			C292.426,196.929,292.924,198.505,292.924,198.505z"/>
		<path style="fill:#231815;" d="M269.301,200.087c1.5,1.369,2.321,2.65,2.678,3.658c0.357,1.012,0.255,1.753-0.035,2.179
			c-0.296,0.43-0.799,0.573-1.305,0.45c-0.51-0.125-1.002-0.523-1.391-1.2c-0.762-1.37-1.864-2.518-3.004-3.503
			c-1.134-0.994-2.289-1.848-3.216-2.72c-1.85-1.75-3.79-3.437-5.497-5.445c-0.852-1.001-2.006-2.671-2.585-3.865
			c-0.579-1.195-0.596-1.894,0.751-0.974c2.704,1.836,4.24,2.026,7.205,4.634c1.483,1.307,3.127,2.959,4.352,4.336
			C268.481,199.013,269.301,200.087,269.301,200.087z"/>
		<path style="fill:#231815;" d="M251.17,212.05c1.137,1.269,1.559,2.522,1.586,3.416c0.02,0.908-0.337,1.48-0.749,1.751
			c-0.422,0.275-0.941,0.282-1.361,0.115c-0.428-0.171-0.717-0.521-0.853-1.059c-0.237-1.102-0.915-2.062-1.708-2.802
			c-0.787-0.753-1.632-1.343-2.322-1.938c-1.366-1.217-2.912-2.242-4.414-3.489c-0.739-0.641-1.859-1.699-2.548-2.518
			c-0.685-0.813-0.893-1.442,0.392-1.164c1.279,0.285,2.238,0.396,3.245,0.617c1.001,0.229,2.058,0.567,3.427,1.471
			c1.365,0.91,2.804,2.23,3.775,3.424c0.479,0.604,0.888,1.125,1.132,1.537C251.02,211.812,251.17,212.05,251.17,212.05z"/>
		<path style="fill:#231815;" d="M219.957,214.293c1.286,0.885,2.352,1.732,3.155,2.587c0.838,0.812,1.407,1.629,1.831,2.314
			c0.441,0.669,0.636,1.314,0.751,1.797c0.107,0.492,0.092,0.864-0.009,1.129c-0.204,0.53-0.753,0.634-1.389,0.386
			c-0.319-0.125-0.66-0.34-0.999-0.645c-0.326-0.315-0.736-0.664-1.087-1.141c-1.471-1.864-3.375-3.394-5.342-4.582
			c-1.955-1.21-3.909-2.183-5.611-3.113c-3.399-1.878-6.952-3.495-10.491-5.248c-1.759-0.901-4.411-2.306-6.061-3.326
			c-1.649-1.006-2.258-1.713,0.226-1.212c2.475,0.526,4.255,0.797,6.133,1.215c1.882,0.404,3.862,0.973,6.671,2.225
			c2.804,1.264,5.955,3.029,8.297,4.646c0.592,0.392,1.121,0.798,1.604,1.142c0.484,0.344,0.903,0.661,1.24,0.945
			C219.555,213.965,219.957,214.293,219.957,214.293z"/>
		<path style="fill:#231815;" d="M195.387,223.743c2.845,1.944,3.267,3.749,2.831,4.661c-0.447,0.929-1.741,1.066-2.572-0.009
			c-1.685-2.176-4.288-3.288-5.987-4.499c-1.716-1.233-3.468-2.326-5.179-3.549c-0.843-0.645-2.132-1.64-2.988-2.396
			c-0.849-0.742-1.203-1.358,0.249-1.203c1.441,0.177,2.502,0.257,3.613,0.46c1.111,0.203,2.271,0.553,3.788,1.444
			c1.512,0.899,3.112,2.156,4.284,3.211C194.6,222.919,195.387,223.743,195.387,223.743z"/>
		<path style="fill:#231815;" d="M171.473,233.943c4.067,1.672,5.443,3.353,5.43,4.434c-0.012,1.074-1.46,1.509-3.019,0.491
			c-3.106-2.03-6.72-3.045-9.309-4.403c-2.59-1.361-5.167-2.697-7.602-4.322c-1.214-0.822-2.977-2.19-4.032-3.202
			c-1.053-1.01-1.375-1.704,0.403-1.162c3.541,1.108,5.243,1.03,9.208,3.027c1.976,1.008,4.206,2.301,5.94,3.333
			C170.218,233.184,171.473,233.943,171.473,233.943z"/>
		<path style="fill:#231815;" d="M149.51,246.631c3.898,1.384,5.066,3.223,4.929,4.242c-0.142,1.047-1.495,1.417-2.816,0.473
			c-2.684-1.916-6.034-2.479-8.445-3.388c-2.432-0.922-4.893-1.73-7.307-2.794c-1.202-0.55-2.999-1.484-4.118-2.233
			c-1.117-0.742-1.535-1.345,0.161-1.219c1.693,0.137,2.917,0.115,4.216,0.189c1.299,0.073,2.676,0.249,4.631,0.872
			c1.955,0.626,4.167,1.555,5.862,2.37C148.319,245.959,149.51,246.631,149.51,246.631z"/>
		<path style="fill:#231815;" d="M124.533,254.785c2.269,1.151,3.655,2.508,4.372,3.612c0.19,0.266,0.328,0.531,0.425,0.787
			c0.101,0.25,0.171,0.479,0.214,0.687c0.085,0.415,0.06,0.745-0.042,0.993c-0.204,0.495-0.713,0.676-1.284,0.57
			c-0.58-0.104-1.178-0.52-1.808-1.194c-1.225-1.394-2.848-2.417-4.495-3.129c-1.641-0.735-3.272-1.239-4.696-1.764
			c-2.846-1.075-5.815-1.868-8.795-2.865c-1.483-0.522-3.733-1.384-5.142-2.095c-1.406-0.702-1.95-1.289,0.067-1.229
			c2.015,0.072,3.458-0.003,5.003,0.03c1.544,0.028,3.194,0.168,5.584,0.802c2.389,0.641,5.118,1.691,7.165,2.757
			c1.016,0.55,1.895,1.014,2.485,1.419C124.18,254.555,124.533,254.785,124.533,254.785z"/>
		<path style="fill:#231815;" d="M105.339,266.621c2.352,0.713,3.988,1.829,4.847,2.945c0.881,1.119,0.898,2.116,0.608,2.551
			c-0.281,0.453-0.838,0.518-1.312,0.431c-0.51-0.09-0.996-0.352-1.6-0.922c-1.229-1.157-3.043-1.824-4.737-2.292
			c-1.72-0.467-3.413-0.753-4.882-1.158c-2.942-0.807-5.964-1.482-8.917-2.592c-1.475-0.552-3.66-1.603-4.935-2.508
			c-1.275-0.914-1.631-1.564,0.247-1.206c3.816,0.631,5.514,0.103,10.089,1.196c2.293,0.546,4.958,1.329,7.034,2.09
			C103.859,265.898,105.339,266.621,105.339,266.621z"/>
		<path style="fill:#231815;" d="M69.691,273.616c2.339,0.756,3.89,1.71,4.822,2.565c0.935,0.862,1.258,1.634,1.217,2.165
			c-0.043,0.539-0.46,0.87-1.043,0.933c-0.586,0.064-1.325-0.159-2.119-0.686c-1.578-1.078-3.373-1.796-5.117-2.289
			c-0.863-0.274-1.734-0.445-2.547-0.658c-0.827-0.167-1.601-0.378-2.334-0.551c-2.922-0.758-5.872-1.263-8.857-1.728
			c-1.494-0.29-3.776-0.624-5.3-0.906c-1.511-0.259-2.262-0.649-0.288-1.195c1.975-0.506,3.397-0.881,4.946-1.128
			c0.387-0.059,0.783-0.113,1.198-0.162c0.414-0.04,0.845-0.052,1.307-0.065c0.463-0.014,0.955-0.012,1.482,0.035
			c0.526,0.046,1.1,0.076,1.71,0.184c2.461,0.359,5.243,1.157,7.35,1.953c1.048,0.418,1.952,0.771,2.575,1.072
			C69.32,273.445,69.691,273.616,69.691,273.616z"/>
		<path style="fill:#231815;" d="M64.434,258.576c2.199,0.706,3.615,1.354,4.573,1.921c0.239,0.14,0.45,0.285,0.635,0.431
			c0.185,0.143,0.344,0.26,0.48,0.397c0.273,0.266,0.452,0.539,0.54,0.8c0.176,0.521-0.029,0.991-0.591,1.254
			c-0.276,0.127-0.652,0.22-1.067,0.208c-0.407-0.023-0.88-0.115-1.366-0.306c-1.904-0.802-3.714-1.494-5.453-2.044
			c-1.734-0.548-3.365-0.987-4.754-1.441c-2.785-0.956-5.575-1.54-8.452-2.112c-0.721-0.129-1.629-0.374-2.55-0.532
			c-0.46-0.094-0.922-0.199-1.362-0.307c-0.439-0.077-0.855-0.161-1.221-0.251c-1.467-0.359-2.16-0.799-0.225-1.21
			c0.484-0.102,0.931-0.209,1.355-0.312c0.429-0.082,0.832-0.158,1.219-0.233c0.392-0.082,0.768-0.161,1.14-0.239
			c0.374-0.065,0.746-0.109,1.126-0.16c0.38-0.048,0.769-0.093,1.177-0.13c0.407-0.034,0.83-0.02,1.284-0.017
			c0.452,0.017,0.939,0.014,1.455,0.083c0.516,0.068,1.071,0.155,1.673,0.264c2.403,0.484,5.068,1.465,7.042,2.354
			C63.073,257.88,64.434,258.576,64.434,258.576z"/>
		<path style="fill:#231815;" d="M84.224,249.695c1.384,0.235,2.299,0.566,2.925,0.999c0.622,0.421,0.952,0.936,1.04,1.445
			c0.089,0.505-0.074,0.984-0.435,1.283c-0.357,0.296-0.926,0.434-1.543,0.188c-1.238-0.463-2.49-0.727-3.687-0.988
			c-1.198-0.255-2.336-0.495-3.257-0.887c-1.848-0.783-3.609-1.604-5.21-2.713c-0.8-0.566-1.939-1.547-2.639-2.317
			c-0.696-0.767-0.924-1.379,0.331-1.183c2.487,0.419,3.751,0.105,6.457,1.287c1.344,0.598,2.834,1.368,4.002,1.936
			C83.374,249.311,84.224,249.695,84.224,249.695z"/>
		<path style="fill:#231815;" d="M106.356,233.989c0.603,0.21,1.137,0.495,1.635,0.747c0.248,0.13,0.485,0.256,0.71,0.385
			c0.22,0.143,0.428,0.285,0.626,0.425c0.393,0.284,0.751,0.54,1.05,0.82c0.296,0.289,0.549,0.565,0.764,0.824
			c0.442,0.501,0.676,1.022,0.805,1.431c0.127,0.414,0.132,0.747,0.051,1.004c-0.161,0.513-0.661,0.727-1.24,0.668
			c-0.29-0.03-0.602-0.13-0.912-0.309c-0.311-0.179-0.678-0.392-1.01-0.722c-1.388-1.272-3.154-2.137-4.895-2.739
			c-1.754-0.597-3.459-1.021-4.958-1.476c-2.99-0.941-6.064-1.663-9.131-2.621c-1.53-0.494-3.833-1.343-5.276-2.038
			c-1.442-0.687-2.005-1.269,0.05-1.229c2.051,0.054,3.518-0.038,5.085-0.025c1.567,0.002,3.237,0.121,5.67,0.683
			c2.433,0.566,5.224,1.49,7.357,2.411c0.538,0.209,1.025,0.46,1.467,0.66c0.439,0.211,0.831,0.379,1.146,0.558
			C105.981,233.786,106.356,233.989,106.356,233.989z"/>
		<path style="fill:#231815;" d="M138.937,227.861c1.995,0.808,2.23,2.16,1.818,3.053c-0.412,0.904-1.415,1.427-1.958,0.794
			c-1.114-1.286-2.952-1.462-4.071-2.094c-1.131-0.642-2.276-1.236-3.289-2.157c-0.503-0.466-1.204-1.328-1.594-2.04
			c-0.387-0.71-0.446-1.287,0.428-1.151c1.738,0.285,2.728-0.167,4.618,0.785c0.94,0.482,1.967,1.174,2.742,1.759
			C138.406,227.395,138.937,227.861,138.937,227.861z"/>
		<path style="fill:#231815;" d="M164.664,212.132c1.816,1.43,2.856,2.812,3.357,3.904c0.504,1.097,0.477,1.908,0.226,2.366
			c-0.258,0.465-0.767,0.616-1.308,0.479c-0.546-0.138-1.101-0.574-1.597-1.3c-0.974-1.472-2.3-2.684-3.668-3.676
			c-1.361-1.004-2.734-1.832-3.886-2.657c-2.302-1.664-4.721-3.154-7.082-4.831c-1.168-0.861-2.92-2.22-3.991-3.225
			c-1.072-0.993-1.42-1.688,0.388-1.167c1.8,0.535,3.119,0.82,4.499,1.233c1.38,0.408,2.821,0.955,4.778,2.136
			c1.954,1.188,4.095,2.805,5.667,4.207c0.78,0.711,1.453,1.32,1.899,1.792C164.396,211.857,164.664,212.132,164.664,212.132z"/>
		<path style="fill:#231815;" d="M177.084,200.785c1.296,0.641,2.034,1.442,2.371,2.137c0.334,0.708,0.275,1.323,0.035,1.759
			c-0.242,0.44-0.67,0.72-1.1,0.795c-0.435,0.076-0.854-0.066-1.183-0.471c-0.644-0.836-1.558-1.387-2.472-1.786
			c-0.911-0.411-1.822-0.681-2.563-1.048c-1.487-0.743-3.034-1.358-4.539-2.262c-0.746-0.464-1.863-1.298-2.548-1.993
			c-0.682-0.692-0.91-1.273,0.24-1.204c1.147,0.073,1.999-0.003,2.903,0.007c0.902,0.013,1.861,0.114,3.178,0.632
			c1.318,0.518,2.782,1.332,3.867,2.069c0.539,0.378,0.999,0.706,1.312,0.964C176.898,200.635,177.084,200.785,177.084,200.785z"/>
		<path style="fill:#231815;" d="M218.821,196.582c1.928,1.162,3.122,2.328,3.769,3.309c0.653,0.978,0.761,1.767,0.591,2.264
			c-0.174,0.502-0.643,0.745-1.198,0.705c-0.556-0.043-1.188-0.371-1.786-1.015c-1.193-1.297-2.654-2.315-4.12-3.141
			c-1.462-0.835-2.901-1.521-4.114-2.235c-2.422-1.441-4.913-2.736-7.346-4.222c-1.206-0.768-3.013-1.98-4.141-2.888
			c-1.125-0.893-1.531-1.558,0.294-1.193c1.815,0.382,3.136,0.566,4.522,0.87c1.389,0.299,2.84,0.735,4.843,1.747
			c2,1.018,4.215,2.418,5.878,3.627C217.681,195.612,218.821,196.582,218.821,196.582z"/>
		<path style="fill:#231815;" d="M238.022,190.141c2.206,2.019,3.258,4.156,3.595,5.688c0.338,1.56,0.014,2.511-0.382,2.888
			c-0.404,0.384-0.948,0.263-1.412-0.143c-0.116-0.102-0.227-0.223-0.33-0.363c-0.116-0.137-0.232-0.289-0.335-0.462
			c-0.19-0.348-0.413-0.75-0.575-1.241c-0.376-0.968-0.921-1.89-1.589-2.716c-0.68-0.819-1.425-1.576-2.238-2.235
			c-1.595-1.344-3.315-2.382-4.777-3.393c-2.945-2.02-6.13-3.743-9.262-5.68c-1.56-0.977-3.896-2.55-5.303-3.711
			c-0.703-0.58-1.152-1.073-1.146-1.31c0.008-0.239,0.428-0.228,1.528,0.139c2.21,0.73,3.843,1.107,5.553,1.621
			c1.709,0.521,3.518,1.154,6.031,2.542c2.517,1.38,5.307,3.313,7.338,5.073C236.756,188.596,238.022,190.141,238.022,190.141z"/>
		<path style="fill:#231815;" d="M259.288,174.753c5.994,6.456,2.02,8.628,0.088,5.479c-1.919-3.154-4.786-5.575-6.575-7.871
			c-1.794-2.296-3.583-4.547-5.194-6.942c-0.798-1.204-1.928-3.097-2.578-4.403c-0.65-1.297-0.732-2.069,0.773-0.956
			c2.948,2.273,4.598,2.868,7.458,6.312c1.415,1.729,2.917,3.832,4.068,5.494C258.479,173.528,259.288,174.753,259.288,174.753z"/>
		<path style="fill:#231815;" d="M307.689,215.49c-0.125,0.488-0.262,0.942-0.406,1.357c-0.177,0.404-0.362,0.768-0.546,1.097
			c-0.173,0.334-0.389,0.609-0.599,0.85c-0.207,0.242-0.41,0.448-0.605,0.622c-0.829,0.667-1.551,0.776-2.03,0.621
			c-0.487-0.161-0.778-0.599-0.846-1.089c-0.079-0.505,0.126-1.007,0.539-1.545c0.467-0.508,0.774-1.13,1.053-1.746
			c0.218-0.645,0.432-1.281,0.502-1.939c0.226-1.292,0.145-2.533,0.204-3.604c0.056-2.165-0.24-4.307-0.672-6.48
			c-0.172-1.105-0.564-2.788-0.846-3.986c-0.294-1.167-0.271-1.944,0.919-0.814c1.137,1.158,1.969,2.029,2.695,3.081
			c0.179,0.264,0.367,0.535,0.539,0.829c0.157,0.299,0.313,0.617,0.469,0.962c0.167,0.344,0.289,0.724,0.41,1.141
			c0.122,0.417,0.252,0.868,0.315,1.373c0.352,2.01,0.237,4.407-0.153,6.219c-0.109,0.45-0.211,0.87-0.301,1.245
			c-0.113,0.371-0.231,0.693-0.322,0.962c-0.094,0.267-0.168,0.48-0.22,0.625C307.724,215.413,307.689,215.49,307.689,215.49z"/>
		<path style="fill:#231815;" d="M230.663,169.934c3.315,1.902,4.068,3.765,3.756,4.745c-0.319,0.996-1.671,1.2-2.74,0.105
			c-2.16-2.211-5.145-3.292-7.178-4.588c-2.045-1.309-4.127-2.534-6.086-4.032c-0.973-0.759-2.386-2.028-3.219-2.983
			c-0.831-0.952-1.053-1.62,0.452-1.143c1.502,0.481,2.621,0.703,3.789,1.024c1.166,0.323,2.382,0.749,4.028,1.704
			c1.645,0.957,3.467,2.231,4.852,3.287C229.701,169.112,230.663,169.934,230.663,169.934z"/>
		<path style="fill:#231815;" d="M189.205,170.087c4.722,3.087,5.961,5.622,5.732,6.688c-0.248,1.1-1.918,0.914-3.485-0.694
			c-1.581-1.615-3.418-2.947-5.24-4.072c-0.898-0.582-1.818-1.078-2.67-1.595c-0.874-0.478-1.683-0.979-2.449-1.437
			c-3.041-1.879-6.158-3.564-9.295-5.232c-1.559-0.863-3.94-2.108-5.512-2.934c-1.565-0.794-2.249-1.432,0.122-1.224
			c2.346,0.279,4.032,0.479,5.787,0.869c1.767,0.368,3.607,0.951,6.141,2.241c2.532,1.299,5.294,3.11,7.37,4.639
			c1.028,0.779,1.918,1.447,2.524,1.954C188.843,169.79,189.205,170.087,189.205,170.087z"/>
		<path style="fill:#231815;" d="M165.277,172.788c2.61,1.296,4.331,2.786,5.216,4.169c0.111,0.174,0.21,0.339,0.297,0.497
			c0.083,0.17,0.154,0.336,0.215,0.49c0.128,0.3,0.194,0.601,0.222,0.863c0.078,0.504-0.062,0.912-0.22,1.124
			c-0.335,0.439-0.922,0.352-1.386,0.149c-0.524-0.218-1.056-0.646-1.742-1.428c-1.387-1.577-3.432-2.714-5.369-3.622
			c-1.957-0.915-3.908-1.611-5.576-2.364c-3.349-1.501-6.788-2.831-10.15-4.414c-1.681-0.796-4.171-2.108-5.73-3.037
			c-0.776-0.466-1.324-0.844-1.38-1.081c-0.06-0.23,0.394-0.332,1.575-0.137c2.36,0.384,4.015,0.654,5.787,0.942
			c1.767,0.325,3.636,0.752,6.296,1.789c2.663,1.03,5.688,2.455,8.008,3.715C163.662,171.7,165.277,172.788,165.277,172.788z"/>
		<path style="fill:#231815;" d="M149.317,181.566c3.407,1.781,4.16,3.657,3.873,4.631c-0.3,0.999-1.646,1.236-2.724,0.171
			c-1.084-1.071-2.39-1.838-3.668-2.477c-1.281-0.64-2.544-1.141-3.605-1.741c-2.113-1.196-4.327-2.411-6.249-4.065
			c-1.957-1.646-5.138-5.742-2.347-4.389c2.798,1.327,4.24,1.27,7.397,3.084c1.585,0.902,3.441,2.036,4.883,3.016
			C148.319,180.776,149.317,181.566,149.317,181.566z"/>
		<path style="fill:#231815;" d="M129.304,204.458c1.779,1.048,2.878,2.126,3.461,3.044c0.588,0.917,0.664,1.67,0.481,2.154
			c-0.187,0.49-0.646,0.742-1.173,0.729c-0.531-0.014-1.118-0.3-1.663-0.892c-1.082-1.196-2.433-2.113-3.785-2.867
			c-1.35-0.76-2.681-1.389-3.791-2.075c-2.212-1.38-4.492-2.679-6.616-4.309c-2.12-1.631-6.054-5.585-2.924-4.373
			c3.123,1.221,4.7,1.118,8.217,3.123c1.756,1.009,3.734,2.332,5.24,3.453C128.26,203.564,129.304,204.458,129.304,204.458z"/>
		<path style="fill:#231815;" d="M112.706,214.091c1.783,0.709,2.924,1.567,3.578,2.332c0.65,0.777,0.816,1.473,0.7,1.976
			c-0.25,1.013-1.561,1.324-2.696,0.37c-1.151-0.967-2.521-1.611-3.862-2.114c-1.339-0.512-2.653-0.891-3.759-1.377
			c-2.211-0.974-4.484-1.876-6.63-3.172c-1.072-0.646-2.61-1.817-3.482-2.738c-0.873-0.922-1.089-1.567,0.402-1.162
			c2.993,0.806,4.437,0.465,7.895,1.867c1.731,0.702,3.718,1.663,5.249,2.496C111.631,213.405,112.706,214.091,112.706,214.091z"/>
		<path style="fill:#231815;" d="M78.936,233.928c2.164,0.683,3.586,1.585,4.445,2.377c0.854,0.815,1.148,1.546,1.099,2.072
			c-0.121,1.064-1.55,1.375-2.99,0.376c-1.457-1.014-3.125-1.654-4.741-2.126c-1.614-0.485-3.184-0.8-4.538-1.219
			c-2.709-0.843-5.487-1.535-8.222-2.591c-2.739-1.049-8.061-3.961-4.415-3.536c3.637,0.43,5.245-0.087,9.55,1.002
			c2.153,0.552,4.639,1.393,6.552,2.175c0.955,0.399,1.774,0.752,2.346,1.032C78.598,233.761,78.936,233.928,78.936,233.928z"/>
		<path style="fill:#231815;" d="M83.668,214.744c1.485,0.499,2.416,1.207,2.918,1.873c0.502,0.674,0.58,1.313,0.433,1.792
			c-0.319,0.967-1.471,1.386-2.333,0.617c-0.882-0.782-1.979-1.247-3.051-1.566c-1.072-0.327-2.119-0.523-2.997-0.833
			c-1.761-0.628-3.561-1.134-5.335-1.938c-0.882-0.414-2.207-1.176-3.033-1.826c-0.822-0.648-1.127-1.214,0.135-1.221
			c1.261-0.003,2.179-0.139,3.159-0.192c0.979-0.052,2.025-0.023,3.508,0.388c1.483,0.412,3.164,1.092,4.44,1.724
			c0.635,0.324,1.18,0.605,1.557,0.831C83.445,214.613,83.668,214.744,83.668,214.744z"/>
		<path style="fill:#231815;" d="M96.229,196.561c1.72,0.186,2.919,0.761,3.623,1.35c0.705,0.614,0.93,1.255,0.875,1.755
			c-0.057,0.506-0.392,0.901-0.824,1.093c-0.438,0.198-0.948,0.159-1.505-0.139c-1.099-0.643-2.385-0.878-3.619-0.975
			c-1.233-0.108-2.434-0.085-3.494-0.243c-2.113-0.316-4.345-0.589-6.49-1.511c-1.073-0.431-2.584-1.443-3.344-2.313
			c-0.769-0.877-0.874-1.474,0.398-1.163c1.283,0.299,2.242,0.248,3.235,0.235c0.997-0.016,2.036-0.017,3.597,0.234
			c1.564,0.247,3.452,0.595,4.953,0.954c0.753,0.186,1.399,0.354,1.862,0.498C95.957,196.475,96.229,196.561,96.229,196.561z"/>
		<path style="fill:#231815;" d="M127.561,184.297c1.752,0.783,2.888,1.51,3.619,2.168c0.725,0.666,1.054,1.275,1.071,1.817
			c0.018,0.531-0.278,0.948-0.794,1.118c-0.513,0.172-1.255,0.102-1.979-0.368c-1.452-0.923-2.954-1.65-4.38-2.336
			c-1.429-0.68-2.788-1.299-3.888-1.99c-2.207-1.38-4.355-2.741-6.393-4.231c-1.014-0.769-2.511-1.954-3.506-2.799
			c-0.991-0.819-1.416-1.473,0.285-1.195c1.674,0.325,2.893,0.528,4.147,0.861c1.265,0.322,2.551,0.807,4.276,1.824
			c1.719,1.025,3.594,2.348,5.045,3.374C126.51,183.557,127.561,184.297,127.561,184.297z"/>
		<path style="fill:#231815;" d="M197.927,155.181c3.438,1.194,4.466,2.856,4.312,3.869c-0.158,1.027-1.405,1.486-2.591,0.64
			c-2.402-1.71-5.416-2.197-7.544-3.099c-2.141-0.908-4.289-1.752-6.345-2.858c-1.028-0.56-2.535-1.52-3.495-2.257
			c-0.957-0.72-1.35-1.323,0.191-1.213c1.526,0.142,2.637,0.142,3.8,0.249c1.168,0.098,2.389,0.309,4.09,0.955
			c1.7,0.648,3.608,1.56,5.075,2.333C196.889,154.568,197.927,155.181,197.927,155.181z"/>
		<path style="fill:#231815;" d="M225.383,151.95c4.623,1.018,2.475,5.022,0.887,3.901c-1.604-1.115-3.676-1.064-5.082-1.593
			c-1.413-0.533-2.823-1.036-4.127-1.885c-0.651-0.43-1.583-1.245-2.134-1.932c-0.548-0.685-0.702-1.26,0.289-1.193
			c1.974,0.146,2.982-0.392,5.21,0.378C222.657,150.402,225.383,151.95,225.383,151.95z"/>
		<path style="fill:#231815;" d="M55.492,242.284c1.266,0.265,2.092,0.547,2.671,0.982c0.578,0.393,0.894,0.909,0.984,1.414
			c0.091,0.502-0.053,0.985-0.396,1.291c-0.337,0.294-0.889,0.465-1.49,0.215c-1.206-0.437-2.409-0.745-3.561-1.038
			c-1.154-0.294-2.217-0.595-3.055-1c-0.844-0.417-1.634-0.794-2.409-1.195c-0.769-0.371-1.507-0.786-2.256-1.187
			c-0.371-0.229-0.842-0.487-1.325-0.811c-0.487-0.278-0.988-0.626-1.397-0.885c-0.809-0.556-1.213-1.088,0.019-1.228
			c1.228-0.14,2.139-0.261,3.135-0.301c0.974,0.005,2.06,0.109,3.431,0.708c1.375,0.596,2.77,1.443,3.829,2.044
			C54.73,241.901,55.492,242.284,55.492,242.284z"/>
		<path style="fill:#231815;" d="M57.159,281.407c6.406-0.193,5.415,4.24,2.835,3.564c-2.584-0.667-5.303-0.104-7.425-0.337
			c-2.118-0.231-4.252-0.488-6.315-1.213c-1.033-0.355-2.535-1.129-3.417-1.817c-0.884-0.689-1.161-1.262,0.162-1.218
			c2.654,0.071,3.798-0.587,6.895-0.179C52.994,280.6,57.159,281.407,57.159,281.407z"/>
		<path style="fill:#231815;" d="M391.244,212.508c-3.453,3.321-4.828,4.973-5.602,5.099c-0.36,0.071-0.479-0.212-0.336-0.735
			c0.145-0.52,0.529-1.305,1.268-2.068c2.862-3.107,5.994-5.905,8.75-7.766c2.756-1.855,5.593-3.527,8.487-5.052
			c1.456-0.756,3.656-1.838,5.07-2.485c1.41-0.65,2.082-0.79,0.447,0.471c-3.293,2.481-4.533,3.646-8.706,6.213
			c-2.088,1.277-4.504,2.765-6.319,4.038c-0.901,0.642-1.686,1.192-2.211,1.616C391.559,212.26,391.244,212.508,391.244,212.508z"/>
		<path style="fill:#231815;" d="M396.073,220.212c-1.986,1.385-3.509,2.319-4.658,2.841c-1.154,0.524-1.92,0.616-2.25,0.496
			c-0.333-0.116-0.271-0.439,0.063-0.815c0.168-0.183,0.405-0.387,0.712-0.626c0.307-0.227,0.68-0.463,1.119-0.714
			c1.755-0.982,3.429-2.159,5.04-3.25c1.618-1.085,3.171-2.109,4.646-2.866c2.933-1.52,6.043-2.831,9.342-3.427
			c1.652-0.279,4.16-0.465,5.71-0.211c1.549,0.196,2.123,0.437,0.134,0.636c-0.998,0.067-1.829,0.271-2.594,0.444
			c-0.769,0.147-1.453,0.405-2.165,0.62c-1.42,0.442-2.898,1.004-5.115,1.843c-2.213,0.864-4.722,2.093-6.659,3.147
			C397.458,219.377,396.073,220.212,396.073,220.212z"/>
		<path style="fill:#231815;" d="M394.96,230.479c-4.271,1.422-6.363,1.657-6.978,1.31c-0.608-0.331,0.301-1.205,2.148-1.669
			c3.683-0.926,7.244-2.322,10.242-2.959c2.987-0.636,6.03-1.158,9.124-1.156c1.545-0.017,3.873,0.261,5.265,0.675
			c1.395,0.44,1.873,0.768,0.028,0.65c-1.856-0.056-3.156,0.107-4.533,0.322c-1.378,0.213-2.843,0.44-5.04,0.78
			c-2.203,0.334-4.772,0.818-6.784,1.255C396.42,230.125,394.96,230.479,394.96,230.479z"/>
		<path style="fill:#231815;" d="M410.365,288.672c-13.473-1.394-19.587-2.008-21.015-2.802c-0.707-0.391-0.216-0.775,1.182-1.03
			c0.699-0.132,1.625-0.226,2.73-0.237c1.107-0.03,2.394,0.023,3.817,0.158c11.364,1.109,22.672,2.29,31.644,3.7l6.715,1.079
			l3.35,0.538c1.1,0.172,2.21,0.33,3.323,0.482c4.46,0.591,8.968,1.114,13.465,1.764c4.497,0.64,11.234,1.852,15.366,2.975
			c2.07,0.54,3.486,1.046,3.697,1.25c0.207,0.223-0.785,0.143-3.577-0.253c-5.594-0.761-9.557-0.961-13.793-1.244
			c-4.241-0.285-8.755-0.531-15.554-1.35c-3.43-0.428-7.059-1.076-10.622-1.665c-3.559-0.599-7.049-1.186-10.12-1.703
			c-3.069-0.509-5.721-0.924-7.606-1.213C411.483,288.839,410.365,288.672,410.365,288.672z"/>
	</g>
</g>
</svg>
