<?xml version="1.0" encoding="iso-8859-1"?>
<!-- Generator: Adobe Illustrator 21.1.0, SVG Export Plug-In . SVG Version: 6.00 Build 0)  -->
<svg version="1.1" id="_x31_2" xmlns="http://www.w3.org/2000/svg" xmlns:xlink="http://www.w3.org/1999/xlink" x="0px" y="0px"
	 viewBox="0 0 512 512" style="enable-background:new 0 0 512 512;" xml:space="preserve">
<g>
	<path style="fill:#FFFFFF;" d="M82.549,104.462c-17.154-5.31-17.562-15.928-5.31-14.703c12.253,1.225,66.573,18.379,75.15,21.238
		c8.577,2.859,84.544,26.139,100.063,30.223c15.52,4.084,32.874,5.308,37.167,2.451c4.293-2.858,26.038-42.872,26.548-49.419
		c0.509-6.548-24.505-64.531,19.604-87.811c8.168,1.225,16.337,29.406,12.661,41.659c-3.676,12.253-4.493,16.337-4.493,16.337
		s20.83-35.533,37.575-37.575c6.943,7.76,3.267,26.139,1.225,34.716c-2.042,8.577-11.027,24.097-11.844,31.857
		c-0.817,7.76,1.634,8.577,8.985,19.604c7.352,11.027,12.661,23.28,8.577,30.632c-4.084,7.352-33.082,31.04-33.082,31.04
		s21.646,6.535,37.575,8.169s23.28,4.493,30.632,8.985c7.352,4.493,14.703,11.436,7.76,19.604
		c-6.943,8.169-13.069,8.985-22.872,8.985c-9.802,0-39.209-10.619-42.476-11.027s-12.253,48.602-9.394,60.038
		c5.718-0.408,2.859-0.817,17.562-2.859c14.703-2.042,35.941-4.493,44.927,8.985c8.985,13.478,0.817,40.025-15.52,55.137
		c-16.337,15.112-59.63,50.644-64.122,60.038c-4.493,9.394-5.718,17.154-2.042,23.28c3.676,6.126,4.084,13.886,1.225,15.112
		c-4.242,2.196-5.309,2.451-5.309,2.451s-5.718,3.676-7.352,2.859c-2.859,3.676-8.985-2.042-11.027-6.943
		c-2.042-4.901-6.535-17.971-6.535-17.971s-12.253,22.463-10.619,48.194c0.408,15.112,2.042,22.055,9.394,22.872
		c7.352,0.817,13.743,2.874,21.238,5.718c7.495,2.844,10.211,10.619,5.31,14.703c-0.408,3.676-7.32,7.515-8.577,7.352
		c-2.451,4.493-3.267,4.493-14.295,1.634c-11.027-2.859-30.223-10.619-38.392-24.914c-8.169-14.295-5.31-36.758-5.31-42.884
		c0-6.126-1.225-32.265,0-40.026c1.225-7.76,2.451-42.884,2.042-49.827c-0.408-6.943,0-12.661,0-12.661s-6.943-5.31-8.985-7.352
		c-2.042-2.042-21.238,7.76-17.154-1.225s8.169-19.196,8.577-28.998c0.408-9.802-4.493-51.87,3.267-76.783
		c7.76-24.914,3.676-36.758,3.676-36.758s-64.214-28.572-71.066-31.448c-6.852-2.876-57.996-22.055-63.306-24.097
		c-5.309-2.042-5.718-0.408-11.027,0c-5.31,0.408-22.463-1.634-29.407-8.577c-6.943-6.943-1.634-17.971,2.042-18.787
		C85.817,105.279,82.549,104.462,82.549,104.462z"/>
	<g>
		<path style="fill:#231815;" d="M289.405,152.243c-3.602-1.295-7.188,1.041-2.951,3.775c3.853,2.486,9.059,3.029,13.471,3.83
			c11.78,2.136,22.573,8.325,34.357,10.198c1.525,0.242,5.671,0.307,4.118-2.349c-0.569-0.974-2.283-1.488-3.243-1.799
			c-4.866-1.577-10.119-1.257-15.042-2.74C309.656,160.007,299.639,156.008,289.405,152.243z"/>
		<path style="fill:#231815;" d="M349.268,169.571c-1.379-0.327-15.48-3.684-16.155-0.988c-0.465,1.858,6.295,3.31,7.372,3.631
			c16.09,4.796,32.743,8.187,49.183,11.545c8.256,1.686,16.671,2.817,24.697,5.466c6.723,2.219,17.033,6.238,18.032,14.425
			c1.11,9.096-7.562,14.001-15.223,15.043c-8.885,1.209-18.237-0.181-26.812-2.583c-16.198-4.537-31.457-12.111-46.959-18.51
			c-1.055-0.436-16.86-6.696-17.253-3.948c-0.334,2.333,12.019,6.469,13.586,7.143c14.087,6.059,28.543,11.301,43.136,16.007
			c7.92,2.554,15.967,4.55,24.307,5.016c7.659,0.428,17.751,0.12,23.415-5.901c6.178-6.568,5.818-15.91-0.921-21.802
			c-7.01-6.13-16.935-8.876-25.801-10.969C385.616,178.835,367.535,173.816,349.268,169.571z"/>
		<path style="fill:#231815;" d="M280.507,158.169c-1.195,2.782,4.607,6.162,6.335,7.261c1.227,0.78,6.72,3.031,7.034,4.69
			c0.139,0.737-6.856-1.474-7.081-1.589c-2.688-1.383-6.047-2.984-7.715-5.588c-1.516-2.368-2.527-5.898,0.35-7.709
			c0.613-0.386,2.609-1.209,2.836-0.037C282.244,155.085,279.508,158.016,280.507,158.169z"/>
		<path style="fill:#231815;" d="M302.607,196.115c-10.547-2.471-9.022-15.628-6.835-23.576c0.589-2.14,1.151-7.056-2.596-4.301
			c-2.08,1.529-2.757,4.727-2.726,7.145c0.059,4.612,0.775,9.523,2.318,13.859c4.151,11.665,20.055,11.576,29.758,7.507
			c0.894-0.375,4.068-1.974,3.332-3.517c-0.941-1.972-5.794,1.254-6.942,1.73C313.874,197.051,307.878,197.789,302.607,196.115z"/>
		<path style="fill:#231815;" d="M263.749,144.868c3.347,0.424,6.858,0.509,10.181-0.162c1.109-0.224,6.919-1.685,4.423-3.254
			c-1.451-0.912-5.333-0.459-7.093-0.605c-3.563-0.295-7.106-0.775-10.63-1.38c-14.746-2.53-29.524-6.172-44.028-9.844
			c-14.043-3.555-27.597-8.314-41.329-12.869c-15.041-4.989-30.328-9.171-45.535-13.613c-14.619-4.27-29.002-9.509-43.748-13.315
			c-2.108-0.544-18.092-4.552-17.522,0.623c0.145,1.31,2.02,0.453,3.198,0.582c3.21,0.353,6.394,1.289,9.514,2.083
			c26.844,6.831,53.564,14.202,80.096,22.16c16.875,5.061,33.356,11.283,50.213,16.399c8.616,2.615,17.293,4.983,25.996,7.289
			C246.15,141.258,254.831,143.767,263.749,144.868z"/>
		<path style="fill:#231815;" d="M70.711,95.317c1.688,3.731,6.883,5.71,10.307,7.343c1.404,0.67,7.449,2.583,7.899,4.457
			c0.075,0.312-6.25-0.842-6.595-0.969c-3.081-1.13-7.042-2.38-9.682-4.388c-2.251-1.712-5.443-4.979-5.167-8.001
			c0.067-0.728,0.639-2.817,1.672-2.161c-0.002-0.001,0.234,2.062,0.27,2.145C69.686,94.359,70.168,94.932,70.711,95.317z"/>
		<path style="fill:#231815;" d="M81.256,116.368c0.972,8.444,13.764,12.264,20.526,13.92c4.11,1.007,8.313,1.654,12.521,2.079
			c1.981,0.2,7.165-0.359,8.792,0.806c-0.621-0.445-5.632,1.506-6.803,1.656c-3.981,0.512-7.995,0.026-11.926-0.65
			c-5.956-1.025-13.195-2.435-18.209-6.042c-5.148-3.704-10.323-9.9-7.797-16.61c0.492-1.308,1.291-2.757,2.352-3.69
			c1.226-1.078,1.717-1.542,1.519,0.086c-0.174,1.436-1.334,2.817-1.513,4.373C80.56,113.665,80.678,115.1,81.256,116.368z"/>
		<path style="fill:#231815;" d="M107.226,113.85c-1.687-0.418-4.887-2.005-6.206-0.2c-0.901,1.233-0.193,2.226,0.559,3.259
			c1.308,1.795,2.981,3.451,4.73,4.808c0.943,0.732,3.889,1.791,4.46,2.699c-0.054-0.086-3.523,0.091-4.029-0.043
			c-2.105-0.559-3.802-2.014-5.323-3.505c-2.577-2.526-6.249-7.397-1.867-10.298c2.935-1.944,7.955,0.359,11.026,1.038
			c1.116,0.247,2.823,0.298,2.287,1.356C112.457,113.763,108.124,113.797,107.226,113.85z"/>
		<path style="fill:#231815;" d="M137.118,136.798c9.615,4.181,19.667,7.291,29.425,11.111c4.805,1.881,9.586,3.886,14.119,6.363
			c0.768,0.42,4.955,2.214,4.958,3.31c-0.001-0.254-5.351-1.082-5.626-1.143c-5.177-1.139-10.038-3.236-15.011-5.017
			c-5.755-2.061-11.972-3.29-17.5-5.897c-3.323-1.567-6.711-2.928-10.129-4.277c-3.288-1.298-8.04-2.611-10.594-5.235
			c-1.133-1.164-1.201-1.314,0.361-1.348C130.158,134.601,134.058,136.259,137.118,136.798z"/>
		<path style="fill:#231815;" d="M204.406,163.691c13.02,5.89,26.999,9.361,40.008,15.302c6.22,2.84,12.444,6.204,17.416,10.971
			c2.153,2.065,4.077,4.42,5.395,7.107c0.301,0.613,1.845,7.19,1.493,7.056c-0.189-0.072-2.099-4.621-2.376-5.025
			c-0.962-1.399-2.092-2.638-3.309-3.817c-3.234-3.133-7.007-5.752-10.872-8.042c-7.881-4.669-16.636-7.741-25.35-10.44
			c-5.248-1.626-40.549-14.976-37.583-19.488C188.822,157.935,202.739,163.221,204.406,163.691z"/>
		<path style="fill:#231815;" d="M251.651,229.471c1.47-9.422,3.277-19.838,7.773-28.382c0.278-0.528,1.341-2.921,2.197-2.937
			c1.542-0.028,0.668,4.033,0.532,4.857c-0.966,5.888-3.044,11.569-4.309,17.4c-2.488,11.467-3.69,23.166-4.473,34.86
			c-0.855,12.759-0.022,25.098,0.594,37.82c0.313,6.465-0.377,12.794-3.046,18.749c-1.279,2.853-2.903,5.55-4.759,8.063
			c-1.084,1.468-3.069,4.884-4.938,5.43c-0.073,0.022,1.629-3.427,1.854-3.809c1.148-1.954,2.243-3.939,3.175-6.006
			c1.627-3.607,2.74-7.413,3.114-11.36c0.807-8.506-1.458-17.055-1.941-25.527C246.486,262.147,248.626,245.638,251.651,229.471z"/>
		<path style="fill:#231815;" d="M321.835,336.595c6.956-2.495,13.216-6.736,19.771-10.082c3.183-1.625,6.446-3.135,9.881-4.15
			c0.836-0.247,6.022-0.65,6.322-0.973c-0.568,0.615-2.245,1.115-2.991,1.526c-1.888,1.04-3.799,2.026-5.742,2.958
			c-4.706,2.258-9.216,4.728-13.631,7.514c-2.846,1.796-5.999,3.002-9.067,4.378c-0.5,0.224-11.968,4.625-11.836,3.007
			C314.616,339.873,320.769,337.269,321.835,336.595z"/>
		<path style="fill:#231815;" d="M327.17,341.6c-7.13,14.382-13.282,29.147-18.323,44.397c-2.095,6.336-2.145,12.847-1.814,19.444
			c0.199,3.97,0.639,7.897,1.458,11.789c0.071,0.338,1.443,4.642,1.23,4.872c0.072-0.077-0.185-0.548-0.051-0.598
			c-0.084,0.032,3.381,7.422,3.686,7.915c1.433,2.313,3.177,4.483,5.439,6.034c-1.108-2.962-1.337-6.087-2.28-9.039
			c-0.827-2.589-2.441-5.055-3.362-7.651c-1.769-4.988-2.919-10.042-3.072-15.33c-0.317-10.99,3.101-20.06,7.516-29.927
			c3.791-8.471,6.802-17.052,10.166-25.687c0.945-2.425,1.967-4.817,3.118-7.151c0.368-0.746,3.245-5.272,2.419-6.186
			C331.69,332.701,327.658,340.614,327.17,341.6z"/>
		<path style="fill:#231815;" d="M303.085,475.175c-9.16-10.775-5.433-27.55-2.091-40.049c0.496-1.856,4.823-17.459,0.634-16.559
			c-2.372,0.51-3.387,7.219-3.743,8.992c-0.546,2.719-0.687,5.431-0.926,8.181c-1.195,13.757-5.001,29.54,4.901,41.019
			c5.232,6.065,12.386,6.711,19.735,8.26c3.367,0.709,6.639,1.787,9.395,3.914c1.471,1.136,5.044,6.422,7.054,6.24
			c2.506-0.227-1.33-5.152-2.13-5.993c-2.757-2.901-6.413-4.737-10.245-5.753C317.713,481.318,308.872,482.098,303.085,475.175z"/>
		<path style="fill:#231815;" d="M268.081,422.956c1.486,9.307,0.813,19.227,0.369,28.611c-0.489,10.345-1.429,20.099,3.241,29.748
			c8.405,17.369,27.986,24.154,44.861,30.176c0.063,0.737-10.347-0.886-11.157-1.073c-5.027-1.158-9.912-2.687-14.508-5.061
			c-8.025-4.144-15.012-10.734-19.622-18.491c-4.7-7.908-7.147-16.824-7.021-26.033c0.109-8.029-0.349-16.011-0.663-24.036
			c-0.177-4.506-0.419-9.349,1.46-13.574C266.042,420.969,267.561,419.651,268.081,422.956z"/>
		<path style="fill:#231815;" d="M270.665,344.168c-1.087,6.119-0.588,12.398-1.296,18.555c-0.332,2.894-1.055,5.725-2.9,8.046
			c-0.223,0.28-4.544,4.206-4.816,3.446c-0.107-0.297,2.694-4.027,2.991-4.613c1.27-2.509,1.866-5.131,2.037-7.934
			c0.253-4.159-0.013-8.199,0.491-12.339c0.315-2.587,0.485-5.195,1.009-7.752c0.177-0.865,0.481-3.624,1.34-4.076
			C270.977,336.735,270.53,342.954,270.665,344.168z"/>
		<path style="fill:#231815;" d="M388.599,145.306c3.328-5.68,2.222-10.814,0.051-16.655c-2.029-5.459-4.492-10.732-6.706-16.114
			c-0.727-1.767-6.449-13.988-9.551-10.369c-2.159,2.52,5.065,10.562,6.492,12.67c3.144,4.643,5.66,9.833,7.821,14.994
			c2.269,5.418,3.2,10.068-0.265,15.224c-3.427,5.1-8.399,9.147-13.279,12.782c-1.523,1.134-12.075,7.314-10.124,9.895
			c1.524,2.017,10.395-6.848,11.672-7.917C379.812,155.542,385.164,151.106,388.599,145.306z"/>
		<path style="fill:#231815;" d="M343,94.422c0.879,2.25,3.732,5.879,6.638,5.27c3.11-0.652-0.454-3.507-1.318-5.025
			c-3.493-6.142-2.925-15.079-2.693-21.908c0.534-15.751,5.732-30.83,4.88-46.725c-0.373-6.951-1.608-15.124-6.47-20.5
			c-0.929-1.027-4.717-4.429-6.403-3.048c-1.102,0.903,0.509,2.365,1.158,3.163c8.486,10.452,10.036,23.255,8.693,36.312
			c-0.848,8.243-2.701,16.288-4.186,24.427C341.713,75.082,339.406,85.947,343,94.422z"/>
		<path style="fill:#231815;" d="M318.581,23.299c-6.327,13.428-9.742,28.642-7.27,43.417c1.187,7.097,2.816,14.247,5.365,20.988
			c0.873,2.309,1.854,4.607,3.112,6.736c0.314,0.532,3.411,5.129,3.758,4.941c-0.762,0.411-4.443-3.14-4.882-3.587
			c-1.968-2.003-3.495-4.392-4.775-6.877c-2.626-5.1-4.072-10.734-5.332-16.3c-2.341-10.336-3.668-21.75-0.522-32.073
			c2.803-9.199,5.744-19.279,11.467-27.119c1.28-1.753,2.977-3.889,4.998-4.856c2.816-1.347,1.538,0.166,0.46,1.454
			C321.776,13.826,319.92,18.559,318.581,23.299z"/>
		<path style="fill:#231815;" d="M370.776,86.479c1.931-6.159,5.163-11.792,7.95-17.581c2.714-5.637,4.687-11.569,6.09-17.665
			c1.351-5.871,2.193-11.91,2.131-17.944c-0.027-2.637-0.237-5.259-0.697-7.856c-0.117-0.66-1.053-6.358-1.504-6.44
			c1.412,0.255,3.203,6.87,3.557,8.18c1.017,3.765,1.263,7.701,1.068,11.584c-0.438,8.705-2.45,17.483-5.305,25.702
			c-2.181,6.279-6.066,11.715-8.666,17.815c-1.532,3.595-2.754,7.397-3.092,11.31c-0.069,0.798-0.055,8.273,0.267,8.34
			c-1.642-0.342-2.209-6.57-2.298-7.717C370.074,91.601,370.376,89.049,370.776,86.479z"/>
		<path style="fill:#231815;" d="M357.296,41.609c4.109-5.598,9.674-10.113,15.434-13.917c0.748-0.494,11.285-6.008,11.297-5.866
			c0.07,0.823-3.764,3.807-4.282,4.233c-3.542,2.913-7.568,5.136-10.996,8.219c-2.343,2.108-4.979,4.096-7.073,6.45
			c-1.291,1.451-2.377,3.075-3.415,4.714c-0.493,0.779-1.426,3.078-2.401,3.43C355.31,49.07,357.002,42.407,357.296,41.609z"/>
		<path style="fill:#231815;" d="M314.548,105.843c-3.907,8.071-8.159,15.999-12.884,23.623c-2.413,3.894-4.972,7.704-7.753,11.347
			c-1.067,1.398-3.934,6.21-5.768,6.605c0.287-0.062,1.142-3.737,1.286-4.148c1.23-3.519,3.095-6.677,5.066-9.823
			c3.673-5.864,6.312-12.376,9.993-18.171c3.342-5.263,5.869-10.742,8.623-16.335c0.605-1.228,2.792-6.013,2.964-2.387
			C316.216,99.519,315.11,102.937,314.548,105.843z"/>
		<path style="fill:#231815;" d="M363.203,219.507c-2.427,8.673-3.776,17.665-4.991,26.575c-0.627,4.595-1.186,9.201-1.686,13.812
			c-0.219,2.014,0.165,7.12-0.978,8.806c0.478-0.705-0.978-5.101-1.071-6.068c-0.306-3.173-0.114-6.346,0.181-9.512
			c0.554-5.936,1.301-11.853,1.988-17.775c0.469-4.044,1.719-8.006,2.656-11.965c0.761-3.217,1.503-6.443,2.6-9.566
			c0.28-0.799,1.43-4.878,2.572-5.04C364.317,208.797,363.321,218.295,363.203,219.507z"/>
		<path style="fill:#231815;" d="M253.998,322.708c-2.911,2.552-7.7,9.795-12.251,9.26c-0.067-0.008,4.486-4.743,4.661-4.915
			c1.192-1.171,2.151-2.505,3.365-3.623c1.019-0.938,3.605-4.257,5.046-3.999C256.209,319.68,254.418,321.716,253.998,322.708z"/>
		<path style="fill:#231815;" d="M264.997,326.589c-0.878,1.086-11.731,10.695-12.607,8.4c-0.24-0.629,2.62-2.699,3.062-3.031
			c1.803-1.354,3.371-2.793,5.046-4.266c1.256-1.104,2.424-2.997,3.729-3.886C266.328,322.372,265.46,324.947,264.997,326.589z"/>
		<path style="fill:#231815;" d="M270.206,339.621c7.803,3.896,17.29,4.387,25.851,4.518c4.245,0.065,8.486-0.086,12.728-0.215
			c1.877-0.057,6.385-1.013,8.036-0.064c-0.572-0.329-4.244,1.367-4.954,1.555c-2.577,0.681-5.214,1.052-7.871,1.234
			c-5.851,0.4-11.758,0.356-17.613,0.059c-4.344-0.22-8.443-1.284-12.577-2.618c-2.985-0.963-5.995-2.123-8.521-4.022
			c-0.803-0.604-4.661-3.734-3.806-5.16c0.086-0.144,3.381,2.49,3.836,2.755C266.832,338.547,268.511,339.176,270.206,339.621z"/>
		<path style="fill:#231815;" d="M408.693,128.624c5.975-2.851,12.299-5.138,18.754-6.619c3.115-0.715,6.295-1.235,9.492-1.373
			c0.582-0.025,6.195,0.412,6.204,0.397c-0.518,0.821-7.836,1.189-8.67,1.321c-4.514,0.714-8.937,1.721-13.236,3.286
			c-2.571,0.936-5.209,1.707-7.744,2.738c-2.31,0.939-4.539,2.062-6.77,3.174c-1.036,0.516-2.834,1.888-4.02,1.801
			c-0.08-0.006,2.564-2.314,2.712-2.423C406.491,130.133,407.592,129.381,408.693,128.624z"/>
		<path style="fill:#231815;" d="M407.488,137.252c6.892-1.319,13.842-2.584,20.884-2.575c3.403,0.005,6.855,0.276,10.144,1.193
			c0.638,0.178,6.014,2.741,6.027,2.733c-0.277,0.17-2.329-0.675-2.754-0.774c-2.067-0.478-4.192-0.798-6.294-1.069
			c-4.693-0.605-9.432-0.534-14.116,0.127c-2.965,0.419-5.954,0.69-8.909,1.179c-2.624,0.434-5.215,1.04-7.829,1.525
			c-1.216,0.226-3.47,1.023-4.659,0.539c0.201,0.082,3.627-1.535,4.301-1.768C405.352,137.993,406.42,137.623,407.488,137.252z"/>
		<path style="fill:#231815;" d="M407.721,148.023c4.479,1.018,8.957,2.137,13.277,3.712c1.731,0.631,7.96,2.345,8.68,4.413
			c-0.15-0.432-4.648-1.198-5.217-1.395c-3.359-1.16-6.657-2.145-10.074-3.09c-1.256-0.347-2.473-0.81-3.732-1.16
			c-1.609-0.447-6.993-0.63-8.022-2.244C402.61,148.224,407.003,148.02,407.721,148.023z"/>
		<path style="fill:#231815;" d="M327.971,427.058c0.211,2.592,0.368,5.622-0.911,7.997c-0.884,1.641-4.011,3.756-5.296,1.165
			c0.29,0.586,2.643-0.382,3.015-0.709c1.297-1.142,1.213-3.001,1.339-4.548c0.072-0.879-0.193-6.419,0.331-6.477
			C326.894,424.439,327.754,426.621,327.971,427.058z"/>
		<path style="fill:#231815;" d="M334.935,426.002c0.344,1.798,0.663,3.783-0.547,5.352c-0.81,1.051-3.095,2.324-4.425,1.396
			c0.739,0.516,3.249-3.075,3.377-3.8c0.159-0.903-0.692-4.25,0.029-4.467C333.858,424.336,334.594,425.617,334.935,426.002z"/>
		<path style="fill:#231815;" d="M323.249,277.908c10.174-0.094,20.353-5.536,29.891-8.582c9.655-3.084,19.657-5.306,29.709-6.617
			c9.988-1.302,21.345-1.618,30.146,4.053c8.277,5.334,12.989,15.737,12.9,25.421c-0.194,20.871-18.33,38.798-32.8,51.749
			c-15.993,14.314-35.851,25.004-48.199,42.95c-4.595,6.678-11.492,18.105-6.709,26.311c2.285,3.922,6.136,6.609,5.574,11.755
			c-0.187,1.712-0.891,3.359-2.217,4.503c-1.36,1.174-3.754,2.129-2.958-0.207c0.766-2.249,2.228-3.099,1.673-5.831
			c-0.508-2.5-2.154-4.347-3.668-6.28c-2.578-3.293-3.604-7.218-3.32-11.375c0.723-10.594,7.611-20.588,14.229-28.466
			c7.064-8.408,15.88-14.599,24.512-21.256c7.404-5.71,14.531-11.717,21.677-17.741c13.365-11.266,29.996-30.114,27.027-49.027
			c-1.218-7.756-6.156-16.28-13.678-19.342c-9.147-3.723-20.252-1.59-29.501,0.738c-10.439,2.627-20.674,6.073-31.082,8.834
			c-5.047,1.339-10.134,2.319-15.367,2.508c-4.367,0.158-10.222,0.177-13.758-2.819c-0.914-0.775-2.68-2.696-1.015-2.853
			c0.615-0.058,1.926,0.946,2.627,1.142C320.314,277.861,321.831,277.949,323.249,277.908z"/>
		<path style="fill:#231815;" d="M329.372,495.031c1.757,1.554,3.764,3.146,4.184,5.612c0.311,1.827-0.67,5.251-2.988,5.395
			c-0.034,0.002,0.909-3.986,0.876-4.374c-0.1-1.149-1.041-2.261-1.764-3.096c-0.514-0.593-3.334-2.562-3.17-3.3
			C326.761,494.137,328.343,494.856,329.372,495.031z"/>
		<path style="fill:#231815;" d="M322.243,501.728c2.176,1.685,4.645,4.669,3.612,7.629c-0.196,0.562-1.225,2.447-2.228,2.09
			c-0.098-0.035,0.281-3.108,0.268-3.219c-0.186-1.586-1.55-3.252-2.66-4.368c-0.349-0.351-1.895-1.098-1.656-1.829
			C319.774,501.435,321.771,501.68,322.243,501.728z"/>
		<path style="fill:#231815;" d="M349.499,147.023c-2.582,2.199-8.939,6.582-12.558,4.299c0.033,0.021,3.228-1.208,3.486-1.29
			c1.579-0.502,2.845-1.1,4.267-1.931c0.933-0.545,5.734-4.187,6.03-3.876C351.051,144.567,349.743,146.592,349.499,147.023z"/>
		<path style="fill:#231815;" d="M334.092,144.446c-2.066,1.464-4.558,2.66-7.059,3.149c-0.61,0.119-4.568,0.754-4.761-0.192
			c0.151,0.741,13.113-5.441,13.076-5.484C335.658,142.273,334.347,144.057,334.092,144.446z"/>
		<path style="fill:#231815;" d="M318.287,142.256c-2.513,1.155-7.538,6.466-10.592,3.69c0.539,0.49,12.038-6.747,12.268-5.558
			C320.037,140.772,318.553,141.885,318.287,142.256z"/>
		<path style="fill:#231815;" d="M378.503,142.938c1.371,0.542,5.523-0.478,6.418,0.825c0.727,1.059-1.978,1.078-2.76,1.167
			C380.387,145.134,374.34,144.241,378.503,142.938z"/>
		<path style="fill:#231815;" d="M309.963,43.502c2.452-5.948,8.198-1.551,12.359-0.908c2.236,0.346,2.78-0.686,2.672-2.843
			c-0.071-1.411-0.678-1.608,0.453-2.469c0.557-0.424,2.307-0.768,2.918-0.634c1.253,0.275,1.183,0.784,1.787,2.044
			c0.379,0.789,1.02,1.6,1.183,2.478c-0.254-1.798-0.872-5.608,1.398-6.504c1.635-0.645,3.831,0.821,5.148,1.618
			c2.184,1.321,4.183,2.929,6.247,4.423c1.323,0.958,3.286,2.802,5.041,2.793c-0.536-8.99,1.792-19.746-1.866-28.233
			c-1.766-4.098-4.894-7.544-8.143-10.531c-1.491-1.371-3.235-3.213-5.024-4.166c-1.281-0.682-0.856-0.735-2.165-0.259
			c-0.592,0.215-1.195,0.821-1.673,1.201c-5.676,4.504-10.307,11.194-13.88,17.438C312.149,26.413,313.475,35.698,309.963,43.502z"
			/>
		<path style="fill:#231815;" d="M348.401,56.571c0.568-4.512,11.993-7.981,14.569-3.901c3.406-3.178,9.489-7.019,9.376,0.705
			c1.247-0.66,2.628-0.391,3.745-1.419c0.815,2.012,5.823,11.342,7.591,11.046c1.898-0.318,2.991-4.288,3.439-5.719
			c2.28-7.275,2.754-15.433,2.411-23.007c-0.199-4.389-0.158-13.007-6.326-12.878c-7.223,0.152-14.182,7.904-18.684,12.717
			C358.419,40.641,351.96,48.271,348.401,56.571z"/>
		<path style="fill:#231815;" d="M270.561,385.583c-1.452,5.666-1.355,11.65-2.295,17.407c-0.482,2.95-1.161,5.897-2.407,8.626
			c-0.155,0.339-2.973,5.289-3.388,4.824c-0.431-0.482,1.637-6.936,1.786-7.557c0.994-4.152,1.564-8.221,1.705-12.487
			c0.089-2.716,0.706-5.301,1.164-7.976c0.331-1.935,0.875-9.03,3.479-9.748C270.685,378.65,270.546,384.729,270.561,385.583z"/>
		<path style="fill:#231815;" d="M353.987,132.404c-3.091-2.704-2.597-14.934,3.896-12.986
			C364.376,121.366,359.182,136.95,353.987,132.404z"/>
		<path style="fill:#231815;" d="M383.134,133.771c-2.237-1.957-1.88-10.81,2.82-9.399
			C390.653,125.782,386.893,137.061,383.134,133.771z"/>
	</g>
</g>
</svg>
